<svg xmlns="http://www.w3.org/2000/svg" viewBox="0 0 46 46"><defs><style>.cls-1{fill:#fbf8f8;}.cls-2{fill:#0060ea;}</style></defs><g id="Header_y_Footer" data-name="Header y Footer"><circle class="cls-1" cx="23" cy="23" r="23"/><path class="cls-2" d="M14.39,12.6h-4a.66.66,0,0,0-.67.66v4a.67.67,0,0,0,1.34,0V13.93h3.34a.67.67,0,0,0,.67-.67A.66.66,0,0,0,14.39,12.6Z"/><path class="cls-2" d="M14.39,32.66H11.05V29.32a.67.67,0,1,0-1.34,0v4a.67.67,0,0,0,.67.67h4a.67.67,0,0,0,0-1.34Z"/><path class="cls-2" d="M35.8,12.6h-4a.66.66,0,0,0-.67.66.67.67,0,0,0,.67.67h3.35v3.35a.67.67,0,1,0,1.34,0v-4A.66.66,0,0,0,35.8,12.6Z"/><path class="cls-2" d="M35.8,28.65a.67.67,0,0,0-.67.67v3.34H31.78a.67.67,0,0,0,0,1.34h4a.67.67,0,0,0,.67-.67v-4A.67.67,0,0,0,35.8,28.65Z"/><path class="cls-2" d="M14.39,16.61a.67.67,0,0,0-.67.67v12a.67.67,0,1,0,1.34,0v-12A.67.67,0,0,0,14.39,16.61Z"/><path class="cls-2" d="M17.07,16.61h1.34a.66.66,0,0,1,.66.67v12a.66.66,0,0,1-.66.67H17.07a.67.67,0,0,1-.67-.67v-12A.67.67,0,0,1,17.07,16.61Z"/><path class="cls-2" d="M21.08,16.61a.67.67,0,0,0-.67.67v12a.67.67,0,0,0,1.34,0v-12A.67.67,0,0,0,21.08,16.61Z"/><path class="cls-2" d="M23.76,16.61h1.33a.67.67,0,0,1,.67.67v12a.67.67,0,0,1-.67.67H23.76a.67.67,0,0,1-.67-.67v-12A.67.67,0,0,1,23.76,16.61Z"/><path class="cls-2" d="M27.77,16.61a.67.67,0,0,0-.67.67v12a.67.67,0,0,0,1.34,0v-12A.67.67,0,0,0,27.77,16.61Z"/><path class="cls-2" d="M30.45,16.61h1.33a.67.67,0,0,1,.67.67v12a.67.67,0,0,1-.67.67H30.45a.67.67,0,0,1-.67-.67v-12A.67.67,0,0,1,30.45,16.61Z"/></g></svg>