<?xml version="1.0" encoding="utf-8"?>
<!-- Generator: Adobe Illustrator 25.2.3, SVG Export Plug-In . SVG Version: 6.00 Build 0)  -->
<svg version="1.1" id="Capa_1" xmlns="http://www.w3.org/2000/svg" xmlns:xlink="http://www.w3.org/1999/xlink" x="0px" y="0px"
	 viewBox="0 0 210 58" style="enable-background:new 0 0 210 58;" xml:space="preserve">
<style type="text/css">
	.st0{fill-rule:evenodd;clip-rule:evenodd;fill:#CF010D;}
</style>
<path class="st0" d="M48.1,37.8l8.7-24.2l4.5-1.4L63.4,36L59,34l-0.2-3.8l-3.3-1.6l-1.8,5.8c0,0,14.4,8,33.1,11.2
	c18.7,3.2,33.9,0.7,40.5-0.6c6.6-1.3,20.1-5.3,28.7-10.1l-2.6-5.9l-2.1,4.7l-5.7,2.6l5.6-12.2l-5.5-12.8l4.9,1.6l2.9,6.3l2.1-4.6
	l3.6,1.4l-3.5,8l6.1,13.5c0,0-17.6,11.4-45,14.9C89.4,55.6,62.8,46.2,48.1,37.8z M58.6,26.2L58.2,20l-1.7,5.3L58.6,26.2z M68.1,10.2
	c0,0,0.1,20.5,0.1,22.9c0,1.2,0.4,1.5,1.2,1.5c0.9-0.1,1.1-0.4,1.1-1.5V9.7l3.8-0.9v24.3c0,0,0.1,4.9-4.4,4.9c-4.5,0-5.4-3.4-5.4-5
	V11.3L68.1,10.2z M80.9,7.6c2.5,0,4.7,2.2,4.7,4.8v7.3h-3.7v-7.3c0-1-0.6-1.3-1.2-1.3s-1.2,0.5-1.2,1.5v7.8l6,7.7v8.4
	c0,2.8-1.8,5.3-4.7,5.3c-2.9,0-5-2.3-5-4.6v-7.5h3.8v7.1c0,1.2,0.6,1.5,1.2,1.5c0.4,0,1.2-0.2,1.2-1.5v-7.8l-6.1-7v-9.5
	C75.8,9.4,78.1,7.5,80.9,7.6z M86.7,6.5l9.8-1v3.8l-3,0.2V44l-3.6-0.4V9.9l-3.1,0.3C86.8,10.2,86.7,6.5,86.7,6.5z M113.7,5.3
	c2.7,0,4.9,2.2,4.9,4.9v29.2c0,2.7-2.2,4.9-4.9,4.9c-2.7,0-4.9-2.2-4.9-4.9V10.2C108.8,7.5,111.1,5.3,113.7,5.3z M113.9,9
	c0.7,0,1.2,0.6,1.2,1.2v29.4c0,0.7-0.6,1.2-1.2,1.2c-0.7,0-1.2-0.6-1.2-1.2V10.2C112.7,9.5,113.2,9,113.9,9z M107.6,8.5v14.2
	c0,1.7-0.2,2.3-1.7,3.1c1.1,0.9,1.7,1.6,1.7,3.6v15.4H104V29.2c0-0.9-0.7-1.5-1.7-1.5h-0.8v17H98V5.3h6.6
	C106.8,5.3,107.6,6.8,107.6,8.5L107.6,8.5z M101.5,24.1V8.8c0,0,2.4-0.7,2.4,2.1V22C103.9,24.3,102.9,24.1,101.5,24.1z M120,43.8
	V5.9l4.7,0.6l2.9,19.1l3.7-18l3.7,0.8v31.9l-3.4,1V26.8l-3.2,15.2l-1.4,0.3l-3.4-15.6v16.5L120,43.8z M136.2,39.7V8.5l8.2,2.3v3.7
	l-4.5-1.2v8.8h3.6v3.7h-3.8V35l4.7-1.9v3.8L136.2,39.7z M159,5.1c0.8,0,1.5,0.3,2.1,0.9c0.6,0.6,0.9,1.3,0.9,2.1s-0.3,1.5-0.9,2.1
	c-0.6,0.6-1.3,0.9-2.1,0.9s-1.5-0.3-2.1-0.9c-0.6-0.6-0.9-1.3-0.9-2.1c0-0.8,0.3-1.5,0.9-2.1C157.5,5.4,158.2,5.1,159,5.1z
	 M160.7,6.3c-0.5-0.5-1-0.7-1.7-0.7c-0.7,0-1.3,0.3-1.7,0.7c-0.5,0.5-0.7,1-0.7,1.7s0.3,1.3,0.7,1.7s1,0.7,1.7,0.7
	c0.7,0,1.3-0.3,1.7-0.7s0.7-1,0.7-1.7S161.1,6.7,160.7,6.3z M157.2,9V6.9h0.6l0.3,1.4l0.3-1.4h0.6V9h-0.4V7.4L158.2,9h-0.4l-0.3-1.6
	V9H157.2z M159.3,9V6.9h0.8c0.2,0,0.4,0,0.4,0.1c0.1,0.1,0.2,0.1,0.2,0.2c0.1,0.1,0.1,0.2,0.1,0.3c0,0.2-0.1,0.3-0.1,0.4
	c-0.1,0.1-0.2,0.2-0.4,0.2c0.1,0.1,0.2,0.1,0.2,0.2c0.1,0.1,0.1,0.2,0.2,0.4l0.2,0.4h-0.5l-0.3-0.5c-0.1-0.2-0.2-0.3-0.2-0.3
	c-0.1-0.1-0.1-0.1-0.1-0.1c-0.1,0-0.1,0-0.2,0h-0.1V9H159.3z M159.6,7.8h0.3c0.2,0,0.3,0,0.4,0c0.1,0,0.1-0.1,0.1-0.1
	c0-0.1,0.1-0.1,0.1-0.2s0-0.1-0.1-0.2c-0.1-0.1-0.1-0.1-0.2-0.1c-0.1,0-0.1,0-0.3,0h-0.3V7.8z"/>
</svg>
