<?xml version="1.0" encoding="utf-8"?>
<!-- Generator: Adobe Illustrator 25.2.3, SVG Export Plug-In . SVG Version: 6.00 Build 0)  -->
<svg version="1.1" id="Capa_1" xmlns="http://www.w3.org/2000/svg" xmlns:xlink="http://www.w3.org/1999/xlink" x="0px" y="0px"
	 viewBox="0 0 210 58" style="enable-background:new 0 0 210 58;" xml:space="preserve">
<style type="text/css">
	.st0{fill:#010101;}
	.st1{fill:#F33240;}
	.st2{fill:#171717;}
	.st3{fill:#151515;}
</style>
<g>
	<path class="st0" d="M91.5,30.7c-0.6,2-1.4,3.9-2.5,5.7c-2.4,3.7-5.4,6.6-9.6,8.1c-2.9,1.1-5.8,1.3-8.8,0.2c-2-0.7-3.5-2-4.8-3.6
		c-0.1-0.2-0.2-0.3-0.3-0.5c0,0,0,0-0.1,0c-0.2,1.1-0.4,2.2-0.6,3.3c-0.1,0.4-0.2,0.9-0.2,1.3c0,0.2-0.1,0.3-0.4,0.3
		c-3.6,0-7.2,0-10.7,0c-0.4,0-0.3-0.2-0.3-0.4c0.8-4.1,1.5-8.3,2.3-12.4c1-5.5,2-11,3-16.5c0.9-5.2,1.9-10.3,2.8-15.5
		c0.1-0.3,0.2-0.4,0.5-0.4c3.5,0,7,0,10.6,0c0.4,0,0.4,0.1,0.3,0.4c-1,5.5-2,11.1-3,16.6c0,0.1,0,0.2-0.1,0.4c0.2,0,0.3-0.2,0.4-0.3
		c2.4-2.2,5-3.9,8.3-4.5c4.1-0.8,7.7,0.1,10.6,3.1c0.2,0.5,0.2,1,0.3,1.5c0.6,3.2,1.1,6.3,1.7,9.5C91.1,28.2,91.3,29.4,91.5,30.7z
		 M80.3,26.5c0-2-0.4-3.7-1.5-5c-0.9-1.2-2.2-1.8-3.7-1.7c-1.6,0.1-2.9,0.8-4.1,1.9c-2.4,2.4-3.5,5.3-3.4,8.6c0,1.3,0.4,2.6,1.1,3.8
		c1.1,1.6,2.6,2.4,4.6,2.1c1.1-0.2,2.1-0.7,3-1.4C79,32.4,80.1,29.5,80.3,26.5z"/>
	<path class="st0" d="M124.6,12.6c0.6-0.1,1.3,0,1.9,0c1.3,0,2.5,0,3.8,0c0.4,0,0.5,0.1,0.4,0.5c-0.3,1.5-0.5,2.9-0.8,4.4
		c0,0.1,0,0.1,0,0.2c0.2,0,0.3-0.2,0.4-0.3c2.5-2.3,5.3-4,8.6-4.6c6.1-1.1,11.2,2.1,13,8c1.2,3.9,0.8,7.7-0.6,11.5
		c-1.8,4.8-4.8,8.6-9.3,11.2c-2.4,1.4-5,2.1-7.8,1.9c-3.4-0.2-6.1-1.7-8.1-4.5c-0.1-0.1-0.2-0.3-0.3-0.5c-0.1,0.6-0.2,1.2-0.3,1.7
		c-0.9,5-1.8,10-2.7,15.1c-0.1,0.4-0.2,0.5-0.7,0.5c-3.5,0-6.9,0-10.4,0c-0.4,0-0.5-0.1-0.4-0.5c1.8-9.8,3.6-19.5,5.4-29.3
		c0.1-0.5,0.3-1,0.2-1.6c0.1-0.2,0.2-0.4,0.3-0.6c1.5-2.6,3-5.2,4.4-7.8C122.5,16.2,123.5,14.4,124.6,12.6z M128,29.3
		c0,1.9,0.3,3.5,1.3,4.8c1.1,1.6,2.9,2.3,4.8,1.8c1.1-0.2,2-0.8,2.8-1.5c2.7-2.4,3.8-5.4,3.7-9c0-1.4-0.4-2.7-1.2-3.8
		c-1.2-1.7-3-2.4-4.9-1.9c-1.1,0.3-2,0.8-2.8,1.5C129.2,23.6,128.1,26.4,128,29.3z"/>
	<path class="st1" d="M124.6,12.6c-1,1.8-2,3.6-3.1,5.4c-1.5,2.6-3,5.2-4.4,7.8c-0.1,0.2-0.2,0.4-0.3,0.6c-0.2,0.1-0.3,0.3-0.4,0.5
		c-3.9,6.9-7.8,13.8-11.7,20.7c-1.7,3-3.9,5.6-6.9,7.5c-2.7,1.8-5.6,2.7-8.8,2.6c-2.1,0-4.3,0-6.4,0c-0.4,0-0.5-0.1-0.4-0.5
		c0.5-2.8,1-5.6,1.5-8.4c0.1-0.3,0.2-0.4,0.5-0.4c1.7,0,3.5,0.1,5.2-0.1c1.9-0.2,3.4-1.2,4.7-2.6c0.1-0.1,0.1-0.2,0.1-0.4
		c-0.9-4.9-1.7-9.8-2.6-14.6c0,0,0-0.1-0.1-0.1c-0.2-1.3-0.4-2.6-0.7-3.8c-0.6-3.2-1.1-6.3-1.7-9.5c-0.1-0.5-0.1-1-0.3-1.5
		c0-0.8-0.3-1.7-0.4-2.5c-0.2-0.9-0.2-0.9,0.8-0.9c3,0,5.9,0,8.9,0c0.4,0,0.6,0.1,0.6,0.5c1.1,6.2,2.1,12.4,3.2,18.6
		c0,0.1,0,0.1,0,0.2c0.2,0,0.2-0.2,0.3-0.3c3.5-6.2,7.1-12.4,10.6-18.5c0.2-0.4,0.4-0.5,0.8-0.5c3.4,0,6.9,0,10.3,0
		C124.2,12.5,124.4,12.5,124.6,12.6z"/>
	<path class="st2" d="M151.1,10.7c0-1.6,1.3-2.9,2.9-2.9c1.6,0,2.9,1.3,2.9,2.9c0,1.6-1.3,2.9-2.9,2.9
		C152.3,13.6,151,12.3,151.1,10.7z M153.9,13.2c1.4,0,2.5-1.1,2.5-2.5c0-1.4-1.1-2.5-2.5-2.5c-1.4,0-2.5,1.1-2.5,2.5
		C151.4,12.1,152.6,13.2,153.9,13.2z"/>
	<path class="st3" d="M154.6,10.8c0.4,0.4,0.7,0.9,1,1.4c-0.4,0.1-0.6,0-0.7-0.3c-0.1-0.3-0.3-0.5-0.5-0.7c-0.2-0.4-0.6-0.4-1-0.4
		c-0.2,0-0.2,0.1-0.2,0.3c0,0.3,0,0.6,0,0.9c0,0.2,0,0.3-0.2,0.3c-0.2,0-0.2-0.1-0.2-0.3c0-0.9,0-1.8,0-2.7c0-0.2,0.1-0.3,0.3-0.3
		c0.4,0,0.9,0,1.3,0c0.6,0,0.9,0.3,1,0.7c0.1,0.5-0.1,0.8-0.7,1C154.6,10.7,154.6,10.7,154.6,10.8z M153.8,9.3c-0.7,0-0.7,0-0.7,0.7
		c0,0.1,0,0.1,0,0.2c0,0.1,0,0.2,0.2,0.2c0.4,0,0.8,0,1.2,0c0.3-0.1,0.4-0.2,0.4-0.5c0-0.3-0.1-0.4-0.4-0.5
		C154.3,9.3,154,9.3,153.8,9.3z"/>
</g>
</svg>
