<?xml version="1.0" encoding="utf-8"?>
<!-- Generator: Adobe Illustrator 25.2.3, SVG Export Plug-In . SVG Version: 6.00 Build 0)  -->
<svg version="1.1" id="Capa_1" xmlns="http://www.w3.org/2000/svg" xmlns:xlink="http://www.w3.org/1999/xlink" x="0px" y="0px"
	 viewBox="0 0 210 58" style="enable-background:new 0 0 210 58;" xml:space="preserve">
<style type="text/css">
	.st0{fill-rule:evenodd;clip-rule:evenodd;fill:#F58220;}
	.st1{fill-rule:evenodd;clip-rule:evenodd;fill:#9A989B;enable-background:new    ;}
</style>
<g>
	<path class="st0" d="M29.9,6.8c-0.8,3.8-1.4,7.7-2.1,11.5c-3.2,0-6.4,0-9.6,0c0,1.3,0,2.7,0,4c2.7,0.2,5.7,0,8.6,0.1
		c-0.4,3.2-1.2,6.5-1.7,9.9c-2.3,0-4.6,0-6.8,0c0,6.3,0,12.6,0,18.9c-3.1,0-6.1,0-9.2,0C9,36.4,9,21.6,9,6.8
		C16,6.8,22.9,6.8,29.9,6.8z"/>
	<path class="st0" d="M32.5,6.8c3.3,0,6.6,0,9.9,0c2.6,14.9,5.4,29.5,8.1,44.4c-3.2,0-6.3,0-9.4,0c-0.3-1.9-0.6-3.9-0.9-5.8
		c-2,0-4,0-6,0c-0.5,1.8-0.6,4-1,5.8c-3.1,0-6.2,0-9.2,0C26.7,36.3,29.7,21.6,32.5,6.8z M35.8,34.7c0.9,0,1.9,0,2.8,0
		c-0.5-3.1-0.9-6.2-1.4-9.2C36.8,28.5,36.2,31.6,35.8,34.7z"/>
	<path class="st0" d="M51.5,6.8c3.1,0,6.2,0,9.2,0c2.2,6.6,4.4,13.3,6.6,19.9c0.2-6.5,0-13.3,0.1-19.9c3,0,6.1,0,9.1,0
		c0,14.8,0,29.6,0,44.4c-3.1,0-6.2,0-9.3,0c-2.2-6.2-4.4-12.5-6.6-18.8c-0.2,6.1,0,12.6-0.1,18.8c-3,0-6.1,0-9.1,0
		C51.5,36.4,51.5,21.6,51.5,6.8z"/>
	<path class="st0" d="M78.9,6.8c4.4,0,8.7,0,13.1,0c5.3,0.9,8.1,5,9.7,10.2c1.5,5.1,1.7,12.1,0.8,18c-0.9,5.7-2.6,10.6-6,13.8
		c-2,1.8-3.8,2.3-7.6,2.3c-3.1,0-6.5,0.1-9.9-0.1C78.9,36.3,78.9,21.6,78.9,6.8z M92.6,35.7c1.4-3.9,1.6-9.6,0.1-13.4
		c-0.8-2-2.3-4.3-4.7-3.8c-0.2,6.9,0,14-0.1,21C90.4,40,91.8,37.8,92.6,35.7z"/>
	<path class="st0" d="M104.6,6.8c6.4,0,12.8,0,19.2,0c0,3.8,0,7.7,0,11.5c-3.3,0-6.6,0-9.9,0c0,1.3,0,2.7,0,4
		c2.4,0.2,5.2-0.1,7.6,0.1c-0.1,3.2-0.1,6.5-0.1,9.8c-2.5,0-5,0-7.5,0c0,2.4,0,4.9,0,7.3c3.4,0,6.8,0,10.1,0c0,3.9,0,7.7,0,11.6
		c-6.5,0-12.9,0-19.4,0C104.6,36.4,104.6,21.6,104.6,6.8z"/>
	<path class="st0" d="M126.1,6.8c3.1,0,6.2,0,9.2,0c0,10.9,0,21.9,0,32.8c3.4,0,6.8,0,10.2,0c0,3.8,0.1,7.8-0.1,11.6
		c-6.5,0-12.9,0-19.4,0C126.1,36.4,126.1,21.6,126.1,6.8z"/>
	<path class="st0" d="M147.3,6.8c3.1,0,6.1,0,9.2,0c0,14.8,0,29.6,0,44.4c-3,0-6.1,0-9.1,0C147.2,36.5,147.4,21.6,147.3,6.8z"/>
	<path class="st1" d="M159.4,6.9c1.6-0.3,2.8,0.7,2.7,2.3c-0.2,3.3-5.5,2.1-4.4-1C157.9,7.7,158.5,7.1,159.4,6.9z M159.9,10.8
		c2.3,0,2-3.9-0.5-3.4C157.6,7.9,158,10.8,159.9,10.8z"/>
	<path class="st1" d="M160.4,9.1c0.3,0.2,0.4,0.6,0.5,1.1c-0.2,0-0.4,0-0.5,0c-0.1-0.3-0.1-0.5-0.2-0.8c-0.2,0-0.3-0.1-0.5-0.1
		c-0.2,0.1,0,0.6-0.1,0.8c-0.2,0-0.3,0-0.5,0c0-0.7,0-1.5,0-2.2C160,7.5,161.5,8.4,160.4,9.1z M159.6,8.9c0.3,0,0.7,0,0.7-0.3
		c0-0.3-0.3-0.4-0.7-0.3C159.6,8.5,159.6,8.7,159.6,8.9z"/>
	<path class="st1" d="M201,14.4c-0.2,1.2-1.2,1.7-2.1,2.3c-0.1,0.9,0.3,1.7,0.2,2.6c-0.1,1.1-0.5,2.2-0.5,3.2c0,0.2,0.1,0.5,0.1,0.8
		c-0.2,0.9-1.7,1.7-3,1.4c-0.3,0.5,0,1.6-0.4,2c-0.5-0.2-0.8-0.5-1.2-0.9c-0.1,0.9,0.5,1.1,1.1,1.4c-5.6,1.4-10.9,3.5-15.7,5.3
		c3.8-1.1,7.9-2.5,11.9-3.4c0.8-0.2,1.4-0.7,2.3-0.5c0.6-0.5,1.8-0.4,2.5-0.8c0.9,0.6,1.7,1.5,1.2,3.2c-0.2,0.7-1,1.6-1.4,2.5
		c-0.5,1-0.7,2.1-1.3,2.5c-0.6-0.4-1.1-1.1-1-1.7c0-1,1.4-1.4,1.6-2.3c-0.2-0.3-0.3-0.7-0.4-1.1c-0.7,0.2-1.2,0.7-1.9,0.8
		c-1.5,0.2-3.1-0.8-4.3-1.1c0.3,1.1,1.6,1.8,1.4,3.1c0,0.3-0.3,0.5-0.4,0.7c-0.4,1-0.5,2.4-1.2,3.2c-0.8-0.3-1.3-0.6-1.4-1.4
		c0-0.7,0.7-1.3,0.6-2c-0.1-0.8-0.9-1-1.4-1.6c-1.2,0.3-2.2,0.2-3.4,0.5c-1.1,0.3-2,1.3-3.1,1.2c-0.4,0-0.8-0.4-1.2-0.4
		c-0.7-0.1-1.1,0.1-1.9,0.3c-1.1,2.7-3.1,4.8-6.2,5.3c-1.2,0.2-1.9,3.4-2.6,4.5c-0.5,0.7-1.2,1-2.1,1.2c-0.8-0.6-0.4-1.9-0.1-2.7
		c1.2-1.2,2.5-2.5,3-4.4c-2,1.4-3.9,2.9-5,5.2c-0.2,0.4-0.2,0.9-0.5,1.3c-0.5,0.8-1.5,1.3-2.5,1.6c-1-1.8,0.6-2.8,1.3-3.6
		c0.6-0.7,1.2-1.5,1.8-2.3c0.9-1.2,0.8-2.1,1-4.2c0.1-0.7,0.4-1,0.8-1.5c0-0.3-0.1-0.5-0.1-0.8c4.6-1.7,8.9-3.8,13.6-5.1
		c3.5-1.4,7.5-2.1,11-3.5c-2.3,0.4-4.7,1.3-7.3,1.7c-0.1,0.2-0.4,0.3-0.7,0.5c-0.2,0.1-0.1-0.2-0.1-0.3c-0.8,0.2-1.4,0.7-2.3,0.6
		c0.1,0.2,0.5,0,0.8,0.1c-1.3,0.2-2.7,0.7-3.8,1c-0.2,0,0.1,0.1,0,0.3c-2.3,0.2-3.7,1.2-5.5,1.6c0.1,0.2,0.2-0.1,0.3,0
		c-1.1,0.4-2.4,0.7-3.6,1.1c-0.9,0.3-1.7,0.8-2.6,1.1c-0.1-0.8,0.1-1.4,0.3-2c-1.2,1.6-1.2,4.3-3.4,4.9c-0.1-1.8,1.5-2.8,2.5-4.1
		c0.4-0.6,0.9-1.2,1.2-1.8c0.3-0.7,0.4-1.5,0.8-2.1c0.7-1,1.9-1.5,2.6-2.4c0.4,0.2,1.3-0.2,1.7-0.5c1.5-0.5,3.2-1,4.6-1.8
		c1.8-0.4,3.3-1.2,5.1-1.6c0.4-0.1,0.7-0.4,1-0.5c0.2-0.1,0.5,0,0.7-0.1c3.6-1,7.2-2.1,10.8-3.1c-1.3-0.2-2.7,0.7-4.2,0.9
		c-0.2,0-0.4,0-0.6,0c-0.9,0.1-1.6,0.6-2.6,0.5c-0.1,0.3-0.4,0.3-0.6,0.4c-0.2,0-0.2-0.2-0.1-0.3c-0.7,0.2-1.4,0.6-2.2,0.5
		c0.1,0.2,0.5,0,0.8,0.1c-1.2,0.2-2.8,0.6-3.8,0.8c-0.2,0,0.1,0.1,0,0.3c-2.1,0.1-3.7,1.1-5.3,1.4c0.1,0.2,0.2-0.1,0.3,0
		c-0.2,0.3-0.4,0.1-0.7,0.1c-0.9,0.1-1.9,0.7-2.8,0.9c-0.1-0.2,0.3-0.5,0.5-0.8c0.6-0.8,1.1-2,1.4-3.2c-2.7,0.9-5.5,1.6-8.1,2.6
		c1-0.7,2.9-1,4-1.8c0.6,0,1.1-0.2,1.4-0.5c0.3,0,0.2-0.1,0.3,0.1c0.6-0.5,0.9-0.4,1.4-0.7c0.3,0,0,0,0,0.1c1.7-1,3.9-1.4,5.6-2.3
		c1.2-0.2,2.5-0.8,3.6-1.1c1.3-0.4,2.5-0.7,3.7-1c0.7-0.2,1.4-0.6,2.1-0.8c0.8-0.2,1.5-0.3,2.2-0.5c-2.9,0.4-5.8,1.3-8.2,1.6
		c0,0.2,0.3,0,0.4,0.1c-0.1,0.1-0.5,0.2-0.6,0.1c-0.5,0.3-1.8,0.3-1.9,0.7c-1.5,0.1-2.6,0.7-3.8,1c0,0.1,0.1,0,0.2,0
		c-0.4,0.2-0.9,0.1-1.4,0.3c0.7-1.5,2.4-2.6,4.3-3.6c1.8-1,3.3-2.3,5.5-2.5c1.6-0.1,3.9-0.2,5.6,0.2c2-1.6,6.6-2.1,8.8-0.3
		c0,0.2,0.1,0.3,0.1,0.5c0.7,0.5,1.1,1.3,1,2.5c0.5-0.1,0.8-1.4,0.5-2.2c0.6,0.2,0.6,0.9,0.8,1.4C201,13.7,201,14,201,14.4z
		 M190.4,13.4c-0.4,1.3,0.5,3.4,1.6,3.4c0.5,0,0.9-0.5,0.9-1c-0.1-0.8-1.3-1-1.5-2.1c-0.2-1,0.3-1.6,0.5-2.4
		C191.3,11.9,190.7,12.4,190.4,13.4z"/>
</g>
</svg>
