<?xml version="1.0" encoding="utf-8"?>
<!-- Generator: Adobe Illustrator 25.2.3, SVG Export Plug-In . SVG Version: 6.00 Build 0)  -->
<svg version="1.1" id="Capa_1" xmlns="http://www.w3.org/2000/svg" xmlns:xlink="http://www.w3.org/1999/xlink" x="0px" y="0px"
	 viewBox="0 0 210 58" style="enable-background:new 0 0 210 58;" xml:space="preserve">
<style type="text/css">
	.st0{fill-rule:evenodd;clip-rule:evenodd;fill:#E20613;}
</style>
<g>
	<path class="st0" d="M53.6,29c0-14.4,23.1-26.2,51.4-26.2c28.3,0,51.4,11.7,51.4,26.2c0,14.4-23.1,26.2-51.4,26.2
		C76.7,55.2,53.6,43.4,53.6,29L53.6,29z M160.2,29c0-15.9-24.7-28.7-55.2-28.7C74.5,0.3,49.8,13.1,49.8,29
		c0,15.9,24.7,28.7,55.2,28.7C135.5,57.7,160.2,44.9,160.2,29L160.2,29z"/>
	<polygon class="st0" points="67.6,37.1 63.4,37.1 63.4,19.9 67.6,19.9 67.6,26.3 73.9,26.3 73.9,19.9 78,19.9 78,37.1 73.9,37.1 
		73.9,29.7 67.6,29.7 67.6,37.1 	"/>
	<path class="st0" d="M94.3,33.5c-1,3.5-4.2,4.1-6.6,4.1c-1.7,0-6.8-0.4-6.8-6.7c0-4.3,3-6.7,7.1-6.7c6.2,0,6.5,5.4,6.5,6.9l0,0.7
		h-9.7c0,1.2,0.6,3.3,3,3.3c1.1,0,2.2-0.5,2.6-1.6H94.3L94.3,33.5z M90.6,29.7c-0.1-2.7-1.7-3-2.7-3c-0.5,0-2.7,0-3.1,3L90.6,29.7
		L90.6,29.7z"/>
	<path class="st0" d="M100.7,26.1c1-1.4,2.7-2,4.4-2c1.7,0,4.2,0.5,4.2,5.1l0,7.8h-3.8v-7.2c0-1.2-0.1-3.2-2.1-3.2
		c-2.5,0-2.5,2.9-2.5,3.4v7h-3.8V24.6h3.6V26.1L100.7,26.1z"/>
	<polygon class="st0" points="120.6,24.6 125.1,24.6 120.1,29.5 125.6,37.1 121.1,37.1 117.5,31.9 116.2,33.2 116.2,37.1 
		112.4,37.1 112.4,19.9 116.2,19.9 116.2,29.3 120.6,24.6 	"/>
	<path class="st0" d="M130.2,29.7c0.4-3.1,2.6-3,3.1-3c0.9,0,2.6,0.3,2.7,3L130.2,29.7L130.2,29.7z M135.8,33.5
		c-0.3,1.1-1.5,1.6-2.6,1.6c-2.5,0-3-2.1-3-3.3l9.7,0l0-0.7c-0.1-1.5-0.4-6.9-6.5-6.9c-4.1,0-7.1,2.4-7.1,6.7c0,6.4,5.1,6.7,6.8,6.7
		c2.3,0,5.6-0.5,6.6-4.1H135.8L135.8,33.5z"/>
	<polygon class="st0" points="146.2,19.9 146.2,37.1 142.4,37.1 142.4,19.9 146.2,19.9 	"/>
</g>
</svg>
