<?xml version="1.0" encoding="utf-8"?>
<!-- Generator: Adobe Illustrator 25.2.3, SVG Export Plug-In . SVG Version: 6.00 Build 0)  -->
<svg version="1.1" id="Capa_1" xmlns="http://www.w3.org/2000/svg" xmlns:xlink="http://www.w3.org/1999/xlink" x="0px" y="0px"
	 viewBox="0 0 210 58" style="enable-background:new 0 0 210 58;" xml:space="preserve">
<style type="text/css">
	.st0{enable-background:new    ;}
	.st1{fill:#0D3686;}
	.st2{clip-path:url(#SVGID_2_);fill-rule:evenodd;clip-rule:evenodd;fill:#0D3686;}
</style>
<g class="st0">
	<path class="st1" d="M92.8,26.7L95.7,13h2.8l-2.9,13.7H92.8z"/>
	<path class="st1" d="M100.4,16.7h2.5l-0.3,1.3c0.6-0.5,1.2-0.9,1.8-1.2c0.6-0.2,1.1-0.4,1.7-0.4c0.8,0,1.5,0.2,1.9,0.7
		s0.7,1.1,0.7,1.9c0,0.3-0.1,1-0.3,2l-1.2,5.6h-2.7l1.2-5.6c0.2-0.8,0.3-1.3,0.3-1.5c0-0.3-0.1-0.6-0.3-0.8
		c-0.2-0.2-0.5-0.3-0.8-0.3c-0.4,0-0.8,0.2-1.3,0.5c-0.5,0.3-0.9,0.8-1.1,1.3c-0.2,0.4-0.4,1.2-0.7,2.4l-0.9,4.1h-2.7L100.4,16.7z"
		/>
	<path class="st1" d="M116.9,16.7l-0.4,2h-1.9l-1.7,8h-2.7l1.7-8h-1.5l0.4-2h1.5l0.2-1c0.2-0.8,0.3-1.4,0.5-1.7
		c0.2-0.4,0.5-0.7,0.9-0.9c0.4-0.2,1-0.4,1.7-0.4c0.8,0,1.7,0.1,2.6,0.4l-0.5,1.9c-0.6-0.2-1.2-0.3-1.6-0.3c-0.3,0-0.5,0.1-0.7,0.3
		c-0.1,0.1-0.2,0.5-0.3,1l-0.1,0.7H116.9z"/>
	<path class="st1" d="M116.7,22.5c0-1.8,0.5-3.3,1.6-4.4c1-1.1,2.4-1.6,4.1-1.6c1.5,0,2.6,0.4,3.4,1.2s1.2,1.9,1.2,3.3
		c0,1.6-0.5,3-1.5,4.2s-2.4,1.8-4.1,1.8c-0.9,0-1.8-0.2-2.5-0.6c-0.7-0.4-1.3-0.9-1.6-1.6S116.7,23.3,116.7,22.5z M124.4,20.6
		c0-0.6-0.2-1.1-0.6-1.5c-0.4-0.4-0.8-0.6-1.4-0.6c-0.6,0-1.1,0.2-1.5,0.5c-0.4,0.4-0.8,0.9-1,1.6c-0.2,0.7-0.4,1.3-0.4,1.9
		c0,0.7,0.2,1.3,0.6,1.7s0.9,0.6,1.5,0.6c0.7,0,1.4-0.3,1.9-0.9C124,23,124.4,21.9,124.4,20.6z"/>
	<path class="st1" d="M130,16.7h2.5l-0.4,1.9c0.9-1.4,1.9-2.2,3-2.2c0.4,0,0.8,0.1,1.2,0.3l-1,2.2c-0.2-0.1-0.5-0.1-0.8-0.1
		c-0.5,0-0.9,0.2-1.4,0.5c-0.5,0.3-0.9,0.8-1.1,1.4c-0.3,0.6-0.5,1.5-0.8,2.8l-0.7,3.1h-2.7L130,16.7z"/>
	<path class="st1" d="M137.5,16.7h2.5l-0.3,1.2c1-1,2-1.4,3.1-1.4c0.7,0,1.3,0.2,1.7,0.5s0.7,0.7,0.8,1.3c0.3-0.5,0.8-0.9,1.5-1.3
		c0.6-0.3,1.3-0.5,2-0.5c0.8,0,1.4,0.2,1.9,0.6c0.4,0.4,0.7,1,0.7,1.7c0,0.3-0.1,0.9-0.3,1.8l-1.3,6.1h-2.7l1.3-6.1
		c0.2-0.8,0.2-1.2,0.2-1.3c0-0.3-0.1-0.5-0.2-0.7s-0.4-0.2-0.7-0.2c-0.7,0-1.3,0.4-1.8,1.1c-0.4,0.5-0.7,1.4-1,2.7l-0.9,4.5h-2.7
		l1.3-6c0.1-0.7,0.2-1.1,0.2-1.3c0-0.3-0.1-0.5-0.3-0.6s-0.4-0.3-0.7-0.3c-0.3,0-0.6,0.1-0.9,0.3c-0.3,0.2-0.6,0.4-0.8,0.7
		c-0.2,0.3-0.4,0.7-0.6,1.2c-0.1,0.2-0.2,0.7-0.4,1.5l-1,4.6h-2.7L137.5,16.7z"/>
	<path class="st1" d="M156.3,19.5l-2.6-0.2c0.3-0.9,0.8-1.6,1.6-2.1c0.7-0.5,1.7-0.7,3-0.7c1.3,0,2.2,0.3,2.8,0.8
		c0.6,0.5,0.9,1.1,0.9,1.9c0,0.3,0,0.6-0.1,1c-0.1,0.3-0.2,1.2-0.6,2.7c-0.3,1.2-0.4,2-0.4,2.5c0,0.4,0.1,0.9,0.2,1.4h-2.6
		c-0.1-0.4-0.2-0.7-0.2-1.1c-0.4,0.4-0.8,0.8-1.4,1c-0.5,0.2-1,0.4-1.5,0.4c-0.8,0-1.5-0.3-2-0.8s-0.8-1.2-0.8-2.1
		c0-0.9,0.3-1.7,0.9-2.3c0.6-0.6,1.6-0.9,3.2-1c1.3-0.1,2.1-0.2,2.6-0.4c0.1-0.4,0.2-0.7,0.2-0.9c0-0.3-0.1-0.5-0.3-0.7
		s-0.6-0.3-1-0.3c-0.5,0-0.9,0.1-1.1,0.3C156.6,18.9,156.4,19.2,156.3,19.5z M158.9,22c-0.2,0-0.4,0.1-0.6,0.1
		c-1.3,0.2-2.2,0.4-2.6,0.7c-0.3,0.2-0.4,0.5-0.4,0.9c0,0.3,0.1,0.6,0.3,0.8c0.2,0.2,0.5,0.3,0.9,0.3c0.4,0,0.8-0.1,1.1-0.3
		c0.4-0.2,0.6-0.4,0.8-0.8s0.3-0.8,0.5-1.4L158.9,22z"/>
	<path class="st1" d="M169.9,22.9l2.6,0.4c-0.4,1.2-1.1,2-1.9,2.6c-0.8,0.6-1.8,0.9-2.9,0.9c-1.3,0-2.3-0.4-3-1.1
		c-0.7-0.8-1.1-1.8-1.1-3.1c0-1.1,0.2-2.1,0.7-3.1s1.1-1.7,2-2.3c0.9-0.6,1.9-0.8,3-0.8c1.2,0,2.1,0.3,2.8,0.9
		c0.7,0.6,1.1,1.4,1.2,2.4l-2.6,0.3c-0.1-0.6-0.2-1-0.5-1.2c-0.3-0.3-0.6-0.4-1.1-0.4c-0.5,0-1,0.2-1.5,0.6s-0.8,1-1,1.7
		c-0.2,0.8-0.4,1.5-0.4,2.2c0,0.6,0.1,1,0.4,1.4c0.3,0.3,0.6,0.5,1.1,0.5s0.8-0.2,1.2-0.5S169.7,23.5,169.9,22.9z"/>
	<path class="st1" d="M175.9,16.7h2.7l-2.1,9.9h-2.7L175.9,16.7z M176.7,13h2.7l-0.5,2.4h-2.7L176.7,13z"/>
	<path class="st1" d="M179.6,22.5c0-1.8,0.5-3.3,1.6-4.4c1-1.1,2.4-1.6,4.1-1.6c1.5,0,2.6,0.4,3.4,1.2s1.2,1.9,1.2,3.3
		c0,1.6-0.5,3-1.5,4.2s-2.4,1.8-4.1,1.8c-0.9,0-1.8-0.2-2.5-0.6c-0.7-0.4-1.3-0.9-1.6-1.6S179.6,23.3,179.6,22.5z M187.2,20.6
		c0-0.6-0.2-1.1-0.6-1.5c-0.4-0.4-0.8-0.6-1.4-0.6c-0.6,0-1.1,0.2-1.5,0.5c-0.4,0.4-0.8,0.9-1,1.6c-0.2,0.7-0.4,1.3-0.4,1.9
		c0,0.7,0.2,1.3,0.6,1.7s0.9,0.6,1.5,0.6c0.7,0,1.4-0.3,1.9-0.9C186.9,23,187.2,21.9,187.2,20.6z M185.8,12.7h2.9l-3,2.8h-1.8
		L185.8,12.7z"/>
	<path class="st1" d="M193,16.7h2.5l-0.3,1.3c0.6-0.5,1.2-0.9,1.8-1.2s1.1-0.4,1.7-0.4c0.8,0,1.5,0.2,1.9,0.7s0.7,1.1,0.7,1.9
		c0,0.3-0.1,1-0.3,2l-1.2,5.6h-2.7l1.2-5.6c0.2-0.8,0.3-1.3,0.3-1.5c0-0.3-0.1-0.6-0.3-0.8c-0.2-0.2-0.5-0.3-0.8-0.3
		c-0.4,0-0.8,0.2-1.3,0.5s-0.9,0.8-1.1,1.3c-0.2,0.4-0.4,1.2-0.7,2.4l-0.9,4.1h-2.7L193,16.7z"/>
</g>
<g class="st0">
	<path d="M88.2,33.2c0.9,0,1.6,0.1,2.2,0.4c0.6,0.3,1.1,0.7,1.4,1.2v-5.2h2.6v14h-2.5l-0.1-1.5c-0.6,1.1-1.8,1.7-3.7,1.7
		c-0.7,0-1.3-0.1-1.9-0.4c-0.6-0.3-1.1-0.6-1.5-1.1c-0.4-0.5-0.8-1-1-1.7c-0.3-0.7-0.4-1.4-0.4-2.1s0.1-1.5,0.4-2.1
		c0.3-0.7,0.6-1.2,1-1.7c0.4-0.5,0.9-0.8,1.5-1.1C86.8,33.4,87.5,33.2,88.2,33.2z M88.9,41.6c0.8,0,1.5-0.3,2.1-0.9
		c0.6-0.6,0.9-1.3,0.9-2.2c0-0.9-0.3-1.6-0.9-2.2c-0.6-0.6-1.3-0.9-2.1-0.9c-0.8,0-1.5,0.3-2.1,0.9s-0.8,1.3-0.8,2.2
		c0,0.9,0.3,1.6,0.8,2.2C87.4,41.3,88,41.6,88.9,41.6z"/>
	<path d="M101.6,33.2c0.8,0,1.6,0.1,2.3,0.4c0.7,0.3,1.3,0.7,1.8,1.2c0.5,0.5,0.9,1.2,1.1,1.9c0.3,0.8,0.4,1.6,0.3,2.5h-8.3
		c0.2,0.7,0.5,1.3,1,1.7c0.5,0.4,1.1,0.6,1.8,0.6c0.6,0,1.1-0.2,1.6-0.5s0.8-0.7,1.1-1.3l2.2,1.1c-0.5,0.9-1.1,1.5-2,2
		c-0.9,0.5-1.9,0.7-2.9,0.7c-1,0-1.9-0.2-2.8-0.6c-0.8-0.4-1.5-1-2-1.8c-0.5-0.8-0.8-1.7-0.8-2.8c0-1.1,0.3-2,0.8-2.8
		c0.5-0.8,1.2-1.4,2-1.8C99.7,33.5,100.6,33.2,101.6,33.2z M101.6,35.3c-0.7,0-1.3,0.2-1.9,0.6c-0.5,0.4-0.8,1-1,1.7h5.7
		c-0.1-0.7-0.5-1.3-1-1.7C103,35.5,102.4,35.3,101.6,35.3z"/>
	<path d="M121.6,36l-2.6,0.2c-0.1-0.3-0.2-0.6-0.5-0.8c-0.3-0.2-0.6-0.3-1.1-0.3c-0.5,0-0.9,0.1-1.2,0.3c-0.3,0.2-0.5,0.5-0.5,0.8
		c0,0.2,0.1,0.4,0.3,0.6c0.2,0.2,0.4,0.3,0.6,0.4c0.2,0.1,0.6,0.2,1,0.3c0.6,0.1,1.1,0.3,1.6,0.4c0.4,0.1,0.8,0.3,1.2,0.5
		c0.4,0.2,0.7,0.4,0.9,0.6c0.2,0.2,0.4,0.4,0.5,0.7c0.1,0.3,0.2,0.6,0.2,1c0,1-0.4,1.8-1.2,2.4c-0.8,0.6-1.9,0.8-3.2,0.8
		c-1.3,0-2.4-0.3-3.2-0.8c-0.8-0.5-1.3-1.2-1.4-2.2l2.6-0.2c0.1,0.4,0.3,0.7,0.7,1c0.4,0.2,0.8,0.3,1.3,0.3c0.5,0,1-0.1,1.3-0.3
		c0.3-0.2,0.5-0.5,0.5-0.9c0-0.4-0.2-0.7-0.6-0.9s-1-0.4-1.7-0.6c-0.7-0.2-1.3-0.3-1.8-0.5c-0.4-0.1-0.8-0.3-1.1-0.6
		s-0.6-0.5-0.7-0.8c-0.1-0.3-0.2-0.7-0.2-1.2c0-1,0.4-1.7,1.2-2.2c0.8-0.5,1.8-0.8,3.2-0.8c1.2,0,2.2,0.2,2.9,0.7
		S121.5,35.1,121.6,36z"/>
	<path d="M126.2,33.4v5.1c0,1,0.2,1.8,0.5,2.3c0.3,0.5,0.9,0.8,1.7,0.8c0.8,0,1.5-0.3,1.9-0.8c0.4-0.6,0.7-1.3,0.7-2.2v-5.1h2.6
		v10.3h-2.5l-0.1-1.5c-0.6,1.1-1.8,1.7-3.5,1.7c-1.4,0-2.4-0.4-3-1.3c-0.6-0.9-0.9-2.2-0.9-3.9v-5.1H126.2z"/>
	<path d="M147,41.2c0.7,0,1.4-0.2,2-0.5c0.6-0.3,1.1-0.8,1.5-1.4l2.5,1.2c-0.6,1-1.4,1.9-2.4,2.4c-1.1,0.6-2.2,0.9-3.5,0.9
		c-1,0-1.9-0.2-2.7-0.5s-1.6-0.8-2.2-1.4c-0.6-0.6-1.1-1.3-1.4-2.1c-0.4-0.8-0.5-1.7-0.5-2.7s0.2-1.9,0.5-2.7
		c0.4-0.8,0.8-1.5,1.4-2.1c0.6-0.6,1.3-1,2.2-1.4s1.7-0.5,2.7-0.5c1.3,0,2.5,0.3,3.5,0.9c1.1,0.6,1.9,1.4,2.4,2.5l-2.5,1.2
		c-0.3-0.6-0.8-1.1-1.5-1.4s-1.3-0.5-2-0.5c-1.1,0-2.1,0.4-2.9,1.2s-1.2,1.8-1.2,2.9s0.4,2.2,1.2,2.9S145.8,41.2,147,41.2z"/>
	<path d="M157.4,33.4v5.1c0,1,0.2,1.8,0.5,2.3c0.3,0.5,0.9,0.8,1.7,0.8c0.8,0,1.5-0.3,1.9-0.8c0.4-0.6,0.7-1.3,0.7-2.2v-5.1h2.6
		v10.3h-2.5l-0.1-1.5c-0.6,1.1-1.8,1.7-3.5,1.7c-1.4,0-2.4-0.4-3-1.3c-0.6-0.9-0.9-2.2-0.9-3.9v-5.1H157.4z"/>
	<path d="M172,33.2c0.8,0,1.6,0.1,2.3,0.4s1.3,0.7,1.8,1.2c0.5,0.5,0.9,1.2,1.1,1.9c0.3,0.8,0.4,1.6,0.3,2.5h-8.3
		c0.2,0.7,0.5,1.3,1,1.7c0.5,0.4,1.1,0.6,1.8,0.6c0.6,0,1.1-0.2,1.6-0.5c0.5-0.3,0.8-0.7,1.1-1.3L177,41c-0.5,0.9-1.1,1.5-2,2
		c-0.9,0.5-1.9,0.7-2.9,0.7c-1,0-1.9-0.2-2.8-0.6s-1.5-1-2-1.8c-0.5-0.8-0.8-1.7-0.8-2.8c0-1.1,0.3-2,0.8-2.8c0.5-0.8,1.2-1.4,2-1.8
		S171,33.2,172,33.2z M172,35.3c-0.7,0-1.3,0.2-1.9,0.6c-0.5,0.4-0.8,1-1,1.7h5.7c-0.1-0.7-0.5-1.3-1-1.7
		C173.4,35.5,172.8,35.3,172,35.3z"/>
	<path d="M186.6,43.7v-5.1c0-1-0.2-1.8-0.5-2.3c-0.3-0.5-0.9-0.8-1.7-0.8c-0.8,0-1.5,0.3-1.9,0.8c-0.4,0.5-0.7,1.3-0.7,2.2v5.1h-2.6
		V33.4h2.5l0.1,1.5c0.6-1.1,1.8-1.7,3.5-1.7c1.4,0,2.4,0.4,3,1.3s0.9,2.2,0.9,3.9v5.1H186.6z"/>
	<path d="M191.7,31.1h2.6v2.3h2.5v2h-2.5v4.7c0,0.8,0.3,1.3,0.9,1.4c0.5,0.1,1,0.1,1.6,0v2.2c-0.7,0.1-1.3,0.2-1.9,0.2
		c-1.2,0-2-0.3-2.5-0.9s-0.7-1.5-0.7-2.7v-4.7h-1.4v-2h1.4V31.1z"/>
	<path d="M202.7,33.2c0.9,0,1.6,0.1,2.2,0.4c0.6,0.3,1.1,0.7,1.4,1.2l0.1-1.5h2.5v10.3h-2.5l-0.1-1.5c-0.6,1.1-1.8,1.7-3.7,1.7
		c-0.7,0-1.3-0.1-1.9-0.4c-0.6-0.3-1.1-0.6-1.5-1.1c-0.4-0.5-0.8-1-1-1.7c-0.3-0.7-0.4-1.4-0.4-2.1s0.1-1.5,0.4-2.1
		c0.3-0.7,0.6-1.2,1-1.7c0.4-0.5,0.9-0.8,1.5-1.1C201.4,33.4,202.1,33.2,202.7,33.2z M203.4,41.6c0.8,0,1.5-0.3,2.1-0.9
		c0.6-0.6,0.9-1.3,0.9-2.2c0-0.9-0.3-1.6-0.9-2.2s-1.3-0.9-2.1-0.9c-0.8,0-1.5,0.3-2.1,0.9s-0.8,1.3-0.8,2.2c0,0.9,0.3,1.6,0.8,2.2
		C201.9,41.3,202.6,41.6,203.4,41.6z"/>
</g>
<g>
	<defs>
		<rect id="SVGID_1_" y="0" width="78.7" height="57.9"/>
	</defs>
	<clipPath id="SVGID_2_">
		<use xlink:href="#SVGID_1_"  style="overflow:visible;"/>
	</clipPath>
	<path id="Rectángulo_2" class="st2" d="M0,0h78.4v57.9H0V0z"/>
	<g style="clip-path:url(#SVGID_2_);enable-background:new    ;">
		
			<image style="overflow:visible;" width="252" height="211" id="Capa_2_2_" xlink:href="411B814F.png"  transform="matrix(0.3201 0 0 0.3201 -2.2406 -4.8014)">
		</image>
	</g>
</g>
</svg>
