<?xml version="1.0" encoding="utf-8"?>
<!-- Generator: Adobe Illustrator 25.2.3, SVG Export Plug-In . SVG Version: 6.00 Build 0)  -->
<svg version="1.1" id="Capa_1" xmlns="http://www.w3.org/2000/svg" xmlns:xlink="http://www.w3.org/1999/xlink" x="0px" y="0px"
	 viewBox="0 0 210 58" style="enable-background:new 0 0 210 58;" xml:space="preserve">
<style type="text/css">
	.st0{fill-rule:evenodd;clip-rule:evenodd;fill:#CD1719;}
</style>
<g>
	<path class="st0" d="M194.7,41.1l7.4-20.5h-20.5c-2.7,0-5.5,2.1-6.5,4.7l-5.6,15.3h-10.9l5.3-13.8h5.6l2.7-7.3h-5.5l3.8-10h-9.8
		l-3.6,10h-6.5l-2.7,7.3h6.5l-5.1,13.8h-11.2l7.8-20.7h-9.5L128.8,41H120l-2.4-8l14.2-12.7h-10.1l-11.5,10.3h-0.8l7.4-20.5h-8.9
		l-11.3,31h-8.2l7.3-20.5H75.3c-2.7,0-5.5,2.1-6.6,4.7l-5.8,16.3h-7.6l7.6-21.1H46l1.8-5.1H31.5l1.7-4.8H5.7v8.8h15.6L10.6,48.5h8.8
		l8.8-24.1h7.6l-8.8,24.1H36l6.9-19h8l-6.9,19H58l4.6-4.7c0.1,2.3,1.3,4.7,3.3,4.7H74l4.9-5.2c-0.1,2.4,1.2,5.2,3.3,5.2h8.2l5.7-5.6
		l-2,5.6h8.9l5.2-14.3h1l4.5,14.3h9.4l5.4-5.6c-0.2,2.5,1.1,5.5,3.3,5.5h11.9l5.5-6c-0.4,2.5,0.8,6,3.2,6h11.9l5.1-5.6
		c-0.4,2.5,0.8,5.7,3.2,5.7h8.2l4.9-5.2c-0.1,2.4,1.2,5.2,3.3,5.2h15.6v-7.3L194.7,41.1L194.7,41.1z M79.2,40.9h-7l4.7-12.7h7
		L79.2,40.9L79.2,40.9z M185.6,40.9h-7l4.7-12.7h7L185.6,40.9L185.6,40.9z"/>
	<polygon class="st0" points="150.1,9.5 140.3,9.5 137.3,17.6 147,17.6 	"/>
</g>
</svg>
