<?xml version="1.0" encoding="utf-8"?>
<!-- Generator: Adobe Illustrator 25.2.3, SVG Export Plug-In . SVG Version: 6.00 Build 0)  -->
<svg version="1.1" id="Capa_1" focusable="false" xmlns="http://www.w3.org/2000/svg" xmlns:xlink="http://www.w3.org/1999/xlink"
	 x="0px" y="0px" viewBox="0 0 512 512" style="enable-background:new 0 0 512 512;" xml:space="preserve">
<style type="text/css">
	.st0{fill:#666666;}
</style>
<path class="st0" d="M256,0C114.7,0,0.2,114.5,0.2,255.8S114.7,511.5,256,511.5S511.8,397,511.8,255.8S397.3,0,256,0z M181.7,386.6
	h-62.2V199.2h62.2V386.6z M150.5,173.6h-0.4c-20.9,0-34.5-14.4-34.5-32.4c0-18.4,13.9-32.4,35.3-32.4s34.5,14,34.9,32.4
	C185.8,159.2,172.3,173.6,150.5,173.6z M406.3,386.6H344V286.4c0-25.2-9-42.4-31.6-42.4c-17.2,0-27.5,11.6-32,22.8
	c-1.6,4-2.1,9.6-2.1,15.2v104.6h-62.2c0,0,0.8-169.8,0-187.4h62.2v26.6c8.3-12.8,23.1-31,56.1-31c41,0,71.7,26.8,71.7,84.3
	L406.3,386.6L406.3,386.6z"/>
</svg>
