<?xml version="1.0" encoding="utf-8"?>
<!-- Generator: Adobe Illustrator 25.2.3, SVG Export Plug-In . SVG Version: 6.00 Build 0)  -->
<svg version="1.1" id="Capa_1" xmlns="http://www.w3.org/2000/svg" xmlns:xlink="http://www.w3.org/1999/xlink" x="0px" y="0px"
	 viewBox="0 0 146.4 57.6" style="enable-background:new 0 0 146.4 57.6;" xml:space="preserve">
<style type="text/css">
	.st0{fill:#D6D6D6;}
	.st1{fill:#99968F;}
	.st2{fill:#C6BEA7;}
	.st3{fill:#F8F7F2;}
	.st4{fill:#C6C6C6;}
</style>
<g>
	<g>
		<g>
			<polygon class="st0" points="16.4,24.3 24.5,29 32.8,24.3 32.8,5.9 24.5,0.8 16.4,5.7 			"/>
			<polygon class="st0" points="0.4,14.8 12.4,21.9 12.4,8.1 			"/>
			<polygon class="st1" points="12.4,21.9 0.4,14.8 0.4,43 12.4,49.7 			"/>
			<polygon class="st1" points="16.4,52.1 24.5,56.8 24.5,29 16.4,24.3 			"/>
			<polygon class="st2" points="24.5,29 32.8,24.3 32.8,52.1 24.5,56.8 			"/>
			<polygon class="st0" points="37.1,8.3 37.1,21.7 48.8,15 			"/>
			<polygon class="st2" points="37.1,49.7 48.8,42.8 48.8,15 37.1,21.7 			"/>
		</g>
		<polygon class="st3" points="58.7,14.4 78.5,14.4 78.5,18.5 62.5,18.5 62.5,22.3 78.5,22.3 78.5,26.2 62.5,26.2 62.5,34.1 
			58.7,34.1 		"/>
		<polygon class="st3" points="88.2,34.1 88.2,14.4 116.2,14.4 116.2,34.1 112.3,34.1 112.3,18.5 104.2,18.5 104.2,34.1 100.2,34.1 
			100.2,18.5 92.3,18.5 92.3,34.1 		"/>
		<path class="st3" d="M143.9,24.3l2,2v7.9h-20.1V14.4H146v7.9L143.9,24.3z M141.9,18.5h-12v3.8h12V18.5z M130,30.2h12v-4.1h-12
			V30.2z"/>
		<g>
			<path class="st3" d="M70.3,39.3c-0.1-0.1-0.2-0.2-0.3-0.3c-0.1-0.1-0.3-0.2-0.5-0.2c-0.2-0.1-0.4-0.1-0.6-0.2
				c-0.2,0-0.4-0.1-0.7-0.1c-0.6,0-1,0.1-1.3,0.3c-0.3,0.2-0.4,0.5-0.4,0.9c0,0.2,0,0.4,0.1,0.5s0.2,0.2,0.4,0.3
				c0.2,0.1,0.4,0.2,0.6,0.2c0.2,0.1,0.5,0.1,0.9,0.2c0.4,0.1,0.7,0.2,1.1,0.3c0.3,0.1,0.6,0.2,0.8,0.4s0.4,0.3,0.5,0.6
				c0.1,0.2,0.2,0.5,0.2,0.8c0,0.3-0.1,0.6-0.2,0.9s-0.3,0.5-0.6,0.6c-0.2,0.2-0.5,0.3-0.9,0.4C69.1,45,68.7,45,68.3,45
				c-0.6,0-1.1-0.1-1.7-0.3s-1-0.4-1.4-0.7l0.5-0.8c0.1,0.1,0.3,0.2,0.4,0.3c0.2,0.1,0.4,0.2,0.6,0.3s0.5,0.2,0.7,0.2
				c0.3,0.1,0.5,0.1,0.8,0.1c0.5,0,1-0.1,1.3-0.3c0.3-0.2,0.4-0.5,0.4-0.8c0-0.2,0-0.4-0.1-0.5c-0.1-0.1-0.2-0.3-0.4-0.4
				c-0.2-0.1-0.4-0.2-0.7-0.3c-0.3-0.1-0.6-0.2-0.9-0.2c-0.4-0.1-0.7-0.2-1-0.3s-0.5-0.2-0.7-0.4c-0.2-0.1-0.3-0.3-0.4-0.5
				c-0.1-0.2-0.1-0.4-0.1-0.7c0-0.3,0.1-0.6,0.2-0.9c0.1-0.3,0.3-0.5,0.6-0.7c0.2-0.2,0.5-0.3,0.9-0.4c0.3-0.1,0.7-0.1,1.1-0.1
				c0.5,0,1,0.1,1.4,0.2c0.4,0.1,0.8,0.3,1.1,0.6L70.3,39.3z"/>
			<path class="st3" d="M77.6,45c-0.5,0-1-0.1-1.5-0.3c-0.4-0.2-0.8-0.5-1.1-0.8s-0.6-0.7-0.7-1.2c-0.2-0.4-0.3-0.9-0.3-1.3
				c0-0.5,0.1-0.9,0.3-1.4c0.2-0.4,0.4-0.8,0.8-1.1c0.3-0.3,0.7-0.6,1.1-0.8s0.9-0.3,1.4-0.3c0.5,0,1,0.1,1.5,0.3
				c0.4,0.2,0.8,0.5,1.1,0.8c0.3,0.3,0.6,0.7,0.7,1.2c0.2,0.4,0.3,0.9,0.3,1.3c0,0.5-0.1,0.9-0.3,1.4c-0.2,0.4-0.4,0.8-0.7,1.1
				s-0.7,0.6-1.1,0.8C78.6,44.9,78.1,45,77.6,45z M75,41.4c0,0.4,0.1,0.7,0.2,1c0.1,0.3,0.3,0.6,0.5,0.9c0.2,0.3,0.5,0.5,0.8,0.6
				c0.3,0.2,0.7,0.2,1.1,0.2c0.4,0,0.8-0.1,1.1-0.2c0.3-0.2,0.6-0.4,0.8-0.6c0.2-0.3,0.4-0.6,0.5-0.9c0.1-0.3,0.2-0.7,0.2-1
				c0-0.4-0.1-0.7-0.2-1c-0.1-0.3-0.3-0.6-0.5-0.9c-0.2-0.3-0.5-0.5-0.8-0.6s-0.7-0.2-1.1-0.2c-0.4,0-0.8,0.1-1.1,0.2
				c-0.3,0.2-0.6,0.4-0.8,0.6c-0.2,0.3-0.4,0.6-0.5,0.9C75,40.7,75,41,75,41.4z"/>
			<path class="st3" d="M84.6,44.9v-7.1h1v6.3h4.2v0.8H84.6z"/>
			<path class="st3" d="M95.9,44.2c0.4,0,0.8-0.1,1.1-0.2c0.3-0.2,0.5-0.4,0.7-0.6c0.2-0.3,0.3-0.5,0.4-0.9s0.1-0.7,0.1-1v-3.6h1
				v3.6c0,0.5-0.1,0.9-0.2,1.4c-0.1,0.4-0.3,0.8-0.6,1.1s-0.6,0.6-1,0.8S96.5,45,95.9,45c-0.6,0-1.1-0.1-1.5-0.3
				c-0.4-0.2-0.7-0.5-1-0.8c-0.3-0.3-0.4-0.7-0.5-1.1c-0.1-0.4-0.2-0.9-0.2-1.3v-3.6h1v3.6c0,0.4,0,0.7,0.1,1s0.2,0.6,0.4,0.9
				s0.4,0.5,0.7,0.6C95.1,44.1,95.5,44.2,95.9,44.2z"/>
			<path class="st3" d="M108.5,38.6h-2.6v6.3h-1v-6.3h-2.6v-0.8h6.2V38.6z"/>
			<path class="st3" d="M111.7,44.9v-7.1h1v7.1H111.7z"/>
			<path class="st3" d="M119.7,45c-0.5,0-1-0.1-1.5-0.3c-0.4-0.2-0.8-0.5-1.1-0.8c-0.3-0.3-0.6-0.7-0.7-1.2
				c-0.2-0.4-0.3-0.9-0.3-1.3c0-0.5,0.1-0.9,0.3-1.4c0.2-0.4,0.4-0.8,0.8-1.1c0.3-0.3,0.7-0.6,1.1-0.8s0.9-0.3,1.4-0.3
				c0.5,0,1,0.1,1.5,0.3c0.4,0.2,0.8,0.5,1.1,0.8c0.3,0.3,0.6,0.7,0.7,1.2c0.2,0.4,0.3,0.9,0.3,1.3c0,0.5-0.1,0.9-0.3,1.4
				c-0.2,0.4-0.4,0.8-0.7,1.1s-0.7,0.6-1.1,0.8C120.7,44.9,120.2,45,119.7,45z M117.1,41.4c0,0.4,0.1,0.7,0.2,1
				c0.1,0.3,0.3,0.6,0.5,0.9c0.2,0.3,0.5,0.5,0.8,0.6c0.3,0.2,0.7,0.2,1.1,0.2c0.4,0,0.8-0.1,1.1-0.2c0.3-0.2,0.6-0.4,0.8-0.6
				c0.2-0.3,0.4-0.6,0.5-0.9c0.1-0.3,0.2-0.7,0.2-1c0-0.4-0.1-0.7-0.2-1c-0.1-0.3-0.3-0.6-0.5-0.9c-0.2-0.3-0.5-0.5-0.8-0.6
				s-0.7-0.2-1.1-0.2c-0.4,0-0.8,0.1-1.1,0.2c-0.3,0.2-0.6,0.4-0.8,0.6c-0.2,0.3-0.4,0.6-0.5,0.9C117.2,40.7,117.1,41,117.1,41.4z"
				/>
			<path class="st3" d="M127.7,39.5v5.4h-1v-7.1h0.7l4.7,5.5v-5.5h1v7.1h-0.8L127.7,39.5z"/>
			<path class="st3" d="M141.6,39.3c-0.1-0.1-0.2-0.2-0.3-0.3c-0.1-0.1-0.3-0.2-0.5-0.2c-0.2-0.1-0.4-0.1-0.6-0.2
				c-0.2,0-0.4-0.1-0.7-0.1c-0.6,0-1,0.1-1.3,0.3c-0.3,0.2-0.4,0.5-0.4,0.9c0,0.2,0,0.4,0.1,0.5s0.2,0.2,0.4,0.3
				c0.2,0.1,0.4,0.2,0.6,0.2c0.2,0.1,0.5,0.1,0.9,0.2c0.4,0.1,0.7,0.2,1.1,0.3c0.3,0.1,0.6,0.2,0.8,0.4s0.4,0.3,0.5,0.6
				c0.1,0.2,0.2,0.5,0.2,0.8c0,0.3-0.1,0.6-0.2,0.9s-0.3,0.5-0.6,0.6c-0.2,0.2-0.5,0.3-0.9,0.4c-0.3,0.1-0.7,0.1-1.1,0.1
				c-0.6,0-1.1-0.1-1.7-0.3c-0.5-0.2-1-0.4-1.4-0.7l0.5-0.8c0.1,0.1,0.3,0.2,0.4,0.3c0.2,0.1,0.4,0.2,0.6,0.3s0.5,0.2,0.7,0.2
				c0.3,0.1,0.5,0.1,0.8,0.1c0.5,0,1-0.1,1.3-0.3c0.3-0.2,0.4-0.5,0.4-0.8c0-0.2,0-0.4-0.1-0.5c-0.1-0.1-0.2-0.3-0.4-0.4
				c-0.2-0.1-0.4-0.2-0.7-0.3s-0.6-0.2-0.9-0.2c-0.4-0.1-0.7-0.2-1-0.3c-0.3-0.1-0.5-0.2-0.7-0.4c-0.2-0.1-0.3-0.3-0.4-0.5
				c-0.1-0.2-0.1-0.4-0.1-0.7c0-0.3,0.1-0.6,0.2-0.9c0.1-0.3,0.3-0.5,0.6-0.7c0.2-0.2,0.5-0.3,0.9-0.4c0.3-0.1,0.7-0.1,1.1-0.1
				c0.5,0,1,0.1,1.4,0.2c0.4,0.1,0.8,0.3,1.1,0.6L141.6,39.3z"/>
		</g>
		<g>
			<path class="st3" d="M60.5,50.6v0.2h-1.7v-2.6h1.7v0.2H59v1h1.3v0.2H59v1.1H60.5z"/>
			<path class="st3" d="M60.9,48.2l0.9,1.2l0.9-1.2h0.2l-1,1.3l1,1.3h-0.2l-0.9-1.1L61,50.7h-0.2l1-1.3l-1-1.3H60.9z"/>
			<path class="st3" d="M63.3,50.7v-2.6h1.1c0.1,0,0.2,0,0.3,0.1c0.1,0,0.2,0.1,0.2,0.2c0.1,0.1,0.1,0.2,0.2,0.3s0.1,0.2,0.1,0.3
				c0,0.1,0,0.2-0.1,0.3c0,0.1-0.1,0.2-0.1,0.3c-0.1,0.1-0.1,0.1-0.2,0.2s-0.2,0.1-0.3,0.1h-0.9v1H63.3z M63.5,49.6h0.9
				c0.1,0,0.2,0,0.2-0.1c0.1,0,0.1-0.1,0.2-0.1c0-0.1,0.1-0.1,0.1-0.2s0-0.2,0-0.2c0-0.1,0-0.2,0-0.2c0-0.1-0.1-0.1-0.1-0.2
				s-0.1-0.1-0.2-0.1s-0.1-0.1-0.2-0.1h-0.9V49.6z"/>
			<path class="st3" d="M67.2,50.6v0.2h-1.7v-2.6h1.7v0.2h-1.5v1H67v0.2h-1.3v1.1H67.2z"/>
			<path class="st3" d="M67.7,50.7v-2.6h1.1c0.1,0,0.2,0,0.3,0.1c0.1,0,0.2,0.1,0.2,0.2c0.1,0.1,0.1,0.2,0.2,0.3s0.1,0.2,0.1,0.3
				c0,0.1,0,0.2,0,0.3c0,0.1-0.1,0.2-0.1,0.2c-0.1,0.1-0.1,0.1-0.2,0.2c-0.1,0-0.2,0.1-0.2,0.1l0.6,1h-0.2l-0.6-1h-0.8v1H67.7z
				 M67.9,49.6h0.9c0.1,0,0.2,0,0.2-0.1s0.1-0.1,0.2-0.1c0-0.1,0.1-0.1,0.1-0.2c0-0.1,0-0.2,0-0.2c0-0.1,0-0.2,0-0.2
				c0-0.1-0.1-0.1-0.1-0.2s-0.1-0.1-0.2-0.1c-0.1,0-0.1-0.1-0.2-0.1h-0.9V49.6z"/>
			<path class="st3" d="M71.8,48.3h-0.9v2.4h-0.2v-2.4h-0.9v-0.2h2.1V48.3z"/>
			<path class="st3" d="M73.1,50.8c-0.2,0-0.3,0-0.5-0.1c-0.1-0.1-0.3-0.2-0.4-0.3c-0.1-0.1-0.2-0.3-0.2-0.4
				c-0.1-0.2-0.1-0.3-0.1-0.5c0-0.2,0-0.3,0.1-0.5c0.1-0.2,0.1-0.3,0.3-0.4c0.1-0.1,0.2-0.2,0.4-0.3s0.3-0.1,0.5-0.1
				c0.2,0,0.3,0,0.5,0.1c0.1,0.1,0.3,0.2,0.4,0.3c0.1,0.1,0.2,0.3,0.2,0.4c0.1,0.2,0.1,0.3,0.1,0.5c0,0.2,0,0.3-0.1,0.5
				c-0.1,0.2-0.1,0.3-0.3,0.4c-0.1,0.1-0.2,0.2-0.4,0.3S73.3,50.8,73.1,50.8z M72.1,49.5c0,0.1,0,0.3,0.1,0.4s0.1,0.3,0.2,0.4
				s0.2,0.2,0.3,0.3s0.3,0.1,0.4,0.1c0.2,0,0.3,0,0.4-0.1c0.1-0.1,0.2-0.2,0.3-0.3S74,50,74,49.9c0-0.1,0.1-0.3,0.1-0.4
				c0-0.1,0-0.3-0.1-0.4c0-0.1-0.1-0.3-0.2-0.4s-0.2-0.2-0.3-0.2s-0.3-0.1-0.4-0.1c-0.2,0-0.3,0-0.4,0.1c-0.1,0.1-0.2,0.2-0.3,0.3
				c-0.1,0.1-0.2,0.2-0.2,0.4S72.1,49.3,72.1,49.5z"/>
			<path class="st3" d="M76.3,48.6c-0.2-0.2-0.4-0.3-0.7-0.3c-0.2,0-0.4,0-0.5,0.1s-0.2,0.2-0.2,0.4c0,0.1,0,0.1,0,0.2
				c0,0.1,0.1,0.1,0.1,0.1c0.1,0,0.1,0.1,0.2,0.1c0.1,0,0.2,0.1,0.3,0.1c0.1,0,0.3,0.1,0.4,0.1c0.1,0,0.2,0.1,0.3,0.1
				c0.1,0.1,0.1,0.1,0.2,0.2c0,0.1,0.1,0.2,0.1,0.3s0,0.2-0.1,0.3s-0.1,0.2-0.2,0.2c-0.1,0.1-0.2,0.1-0.3,0.1c-0.1,0-0.2,0-0.4,0
				c-0.4,0-0.7-0.1-1-0.4l0.1-0.1c0.1,0.1,0.2,0.2,0.4,0.3s0.3,0.1,0.5,0.1c0.2,0,0.4,0,0.5-0.1s0.2-0.2,0.2-0.4c0-0.1,0-0.2,0-0.2
				c0-0.1-0.1-0.1-0.1-0.2c-0.1,0-0.1-0.1-0.3-0.1c-0.1,0-0.2-0.1-0.4-0.1c-0.1,0-0.3-0.1-0.4-0.1c-0.1,0-0.2-0.1-0.3-0.1
				c-0.1,0-0.1-0.1-0.2-0.2c0-0.1-0.1-0.2-0.1-0.3c0-0.1,0-0.2,0.1-0.3c0-0.1,0.1-0.2,0.2-0.2s0.2-0.1,0.3-0.1s0.2,0,0.4,0
				c0.2,0,0.3,0,0.4,0.1c0.1,0,0.2,0.1,0.4,0.2L76.3,48.6z"/>
			<path class="st3" d="M79.6,50.6v0.2h-1.7v-2.6h1.7v0.2h-1.5v1h1.3v0.2h-1.3v1.1H79.6z"/>
			<path class="st3" d="M80.3,48.5v2.2h-0.2v-2.6h0.1l1.8,2.2v-2.2h0.2v2.6h-0.2L80.3,48.5z"/>
			<path class="st3" d="M84.5,48.2h0.2l1.1,2.6h-0.2l-0.4-0.8H84l-0.4,0.8h-0.2L84.5,48.2z M85.1,49.7l-0.6-1.3L84,49.7H85.1z"/>
			<path class="st3" d="M86.1,50.7v-2.6H87c0.2,0,0.4,0,0.5,0.1c0.2,0.1,0.3,0.2,0.4,0.3c0.1,0.1,0.2,0.2,0.2,0.4
				c0,0.2,0.1,0.3,0.1,0.5c0,0.2,0,0.4-0.1,0.5c-0.1,0.2-0.1,0.3-0.2,0.4c-0.1,0.1-0.2,0.2-0.4,0.3s-0.3,0.1-0.5,0.1H86.1z M88,49.5
				c0-0.2,0-0.3-0.1-0.4c0-0.1-0.1-0.3-0.2-0.4c-0.1-0.1-0.2-0.2-0.3-0.2c-0.1-0.1-0.3-0.1-0.4-0.1h-0.7v2.2H87c0.2,0,0.3,0,0.4-0.1
				c0.1-0.1,0.2-0.1,0.3-0.2c0.1-0.1,0.2-0.2,0.2-0.4C88,49.8,88,49.6,88,49.5z"/>
			<path class="st3" d="M88.7,50.7v-2.6h0.8c0.2,0,0.4,0,0.5,0.1c0.2,0.1,0.3,0.2,0.4,0.3c0.1,0.1,0.2,0.2,0.2,0.4
				c0,0.2,0.1,0.3,0.1,0.5c0,0.2,0,0.4-0.1,0.5c-0.1,0.2-0.1,0.3-0.2,0.4c-0.1,0.1-0.2,0.2-0.4,0.3s-0.3,0.1-0.5,0.1H88.7z
				 M90.6,49.5c0-0.2,0-0.3-0.1-0.4c0-0.1-0.1-0.3-0.2-0.4c-0.1-0.1-0.2-0.2-0.3-0.2c-0.1-0.1-0.3-0.1-0.4-0.1h-0.7v2.2h0.7
				c0.2,0,0.3,0,0.4-0.1c0.1-0.1,0.2-0.1,0.3-0.2c0.1-0.1,0.2-0.2,0.2-0.4C90.6,49.8,90.6,49.6,90.6,49.5z"/>
			<path class="st3" d="M91.2,49.8v-0.2h1v0.2H91.2z"/>
			<path class="st3" d="M93.8,50.8c-0.2,0-0.3,0-0.5-0.1c-0.1-0.1-0.3-0.2-0.4-0.3s-0.2-0.3-0.2-0.4c-0.1-0.2-0.1-0.3-0.1-0.5
				c0-0.2,0-0.3,0.1-0.5c0.1-0.2,0.1-0.3,0.3-0.4c0.1-0.1,0.2-0.2,0.4-0.3s0.3-0.1,0.5-0.1c0.2,0,0.3,0,0.5,0.1s0.3,0.2,0.4,0.3
				s0.2,0.3,0.2,0.4c0.1,0.2,0.1,0.3,0.1,0.5c0,0.2,0,0.3-0.1,0.5c-0.1,0.2-0.1,0.3-0.3,0.4c-0.1,0.1-0.2,0.2-0.4,0.3
				S94,50.8,93.8,50.8z M92.8,49.5c0,0.1,0,0.3,0.1,0.4c0,0.1,0.1,0.3,0.2,0.4c0.1,0.1,0.2,0.2,0.3,0.3c0.1,0.1,0.3,0.1,0.4,0.1
				c0.2,0,0.3,0,0.4-0.1c0.1-0.1,0.2-0.2,0.3-0.3s0.2-0.2,0.2-0.4s0.1-0.3,0.1-0.4c0-0.1,0-0.3-0.1-0.4c-0.1-0.1-0.1-0.3-0.2-0.4
				s-0.2-0.2-0.3-0.2c-0.1-0.1-0.3-0.1-0.4-0.1c-0.2,0-0.3,0-0.4,0.1s-0.2,0.2-0.3,0.3c-0.1,0.1-0.2,0.2-0.2,0.4
				S92.8,49.3,92.8,49.5z"/>
			<path class="st3" d="M95.7,48.5v2.2h-0.2v-2.6h0.1l1.8,2.2v-2.2h0.2v2.6h-0.2L95.7,48.5z"/>
			<path class="st3" d="M99.8,48.6c-0.2-0.2-0.4-0.3-0.7-0.3c-0.2,0-0.4,0-0.5,0.1s-0.2,0.2-0.2,0.4c0,0.1,0,0.1,0,0.2
				c0,0.1,0.1,0.1,0.1,0.1c0.1,0,0.1,0.1,0.2,0.1c0.1,0,0.2,0.1,0.3,0.1c0.1,0,0.3,0.1,0.4,0.1c0.1,0,0.2,0.1,0.3,0.1
				c0.1,0.1,0.1,0.1,0.2,0.2c0,0.1,0.1,0.2,0.1,0.3s0,0.2-0.1,0.3s-0.1,0.2-0.2,0.2c-0.1,0.1-0.2,0.1-0.3,0.1c-0.1,0-0.2,0-0.4,0
				c-0.4,0-0.7-0.1-1-0.4l0.1-0.1c0.1,0.1,0.2,0.2,0.4,0.3s0.3,0.1,0.5,0.1c0.2,0,0.4,0,0.5-0.1s0.2-0.2,0.2-0.4c0-0.1,0-0.2,0-0.2
				c0-0.1-0.1-0.1-0.1-0.2c-0.1,0-0.1-0.1-0.3-0.1c-0.1,0-0.2-0.1-0.4-0.1c-0.1,0-0.3-0.1-0.4-0.1c-0.1,0-0.2-0.1-0.3-0.1
				c-0.1,0-0.1-0.1-0.2-0.2c0-0.1-0.1-0.2-0.1-0.3c0-0.1,0-0.2,0.1-0.3c0-0.1,0.1-0.2,0.2-0.2s0.2-0.1,0.3-0.1s0.2,0,0.4,0
				c0.2,0,0.3,0,0.4,0.1c0.1,0,0.2,0.1,0.4,0.2L99.8,48.6z"/>
			<path class="st3" d="M101.4,50.7v-2.6h1.1c0.1,0,0.2,0,0.3,0.1c0.1,0,0.2,0.1,0.2,0.2c0.1,0.1,0.1,0.2,0.2,0.3s0.1,0.2,0.1,0.3
				c0,0.1,0,0.2-0.1,0.3c0,0.1-0.1,0.2-0.1,0.3c-0.1,0.1-0.1,0.1-0.2,0.2s-0.2,0.1-0.3,0.1h-0.9v1H101.4z M101.6,49.6h0.9
				c0.1,0,0.2,0,0.2-0.1c0.1,0,0.1-0.1,0.2-0.1c0-0.1,0.1-0.1,0.1-0.2s0-0.2,0-0.2c0-0.1,0-0.2,0-0.2c0-0.1-0.1-0.1-0.1-0.2
				s-0.1-0.1-0.2-0.1s-0.1-0.1-0.2-0.1h-0.9V49.6z"/>
			<path class="st3" d="M104.3,48.2h0.2l1.1,2.6h-0.2l-0.4-0.8h-1.2l-0.4,0.8h-0.2L104.3,48.2z M104.9,49.7l-0.6-1.3l-0.6,1.3H104.9
				z"/>
			<path class="st3" d="M105.9,50.7v-2.6h1.1c0.1,0,0.2,0,0.3,0.1c0.1,0,0.2,0.1,0.2,0.2c0.1,0.1,0.1,0.2,0.2,0.3s0.1,0.2,0.1,0.3
				c0,0.1,0,0.2,0,0.3c0,0.1-0.1,0.2-0.1,0.2s-0.1,0.1-0.2,0.2c-0.1,0-0.2,0.1-0.2,0.1l0.6,1h-0.2l-0.6-1h-0.8v1H105.9z M106.1,49.6
				h0.9c0.1,0,0.2,0,0.2-0.1s0.1-0.1,0.2-0.1c0-0.1,0.1-0.1,0.1-0.2c0-0.1,0-0.2,0-0.2c0-0.1,0-0.2,0-0.2c0-0.1-0.1-0.1-0.1-0.2
				s-0.1-0.1-0.2-0.1c-0.1,0-0.1-0.1-0.2-0.1h-0.9V49.6z"/>
			<path class="st3" d="M109,48.2h0.2l1.1,2.6H110l-0.4-0.8h-1.2l-0.4,0.8h-0.2L109,48.2z M109.6,49.7l-0.6-1.3l-0.6,1.3H109.6z"/>
			<path class="st3" d="M112.9,48.6c-0.2-0.2-0.4-0.3-0.7-0.3c-0.2,0-0.4,0-0.5,0.1s-0.2,0.2-0.2,0.4c0,0.1,0,0.1,0,0.2
				c0,0.1,0.1,0.1,0.1,0.1c0.1,0,0.1,0.1,0.2,0.1c0.1,0,0.2,0.1,0.3,0.1c0.1,0,0.3,0.1,0.4,0.1c0.1,0,0.2,0.1,0.3,0.1
				c0.1,0.1,0.1,0.1,0.2,0.2c0,0.1,0.1,0.2,0.1,0.3s0,0.2-0.1,0.3s-0.1,0.2-0.2,0.2c-0.1,0.1-0.2,0.1-0.3,0.1c-0.1,0-0.2,0-0.4,0
				c-0.4,0-0.7-0.1-1-0.4l0.1-0.1c0.1,0.1,0.2,0.2,0.4,0.3s0.3,0.1,0.5,0.1c0.2,0,0.4,0,0.5-0.1s0.2-0.2,0.2-0.4c0-0.1,0-0.2,0-0.2
				c0-0.1-0.1-0.1-0.1-0.2c-0.1,0-0.1-0.1-0.3-0.1c-0.1,0-0.2-0.1-0.4-0.1c-0.1,0-0.3-0.1-0.4-0.1c-0.1,0-0.2-0.1-0.3-0.1
				c-0.1,0-0.1-0.1-0.2-0.2c0-0.1-0.1-0.2-0.1-0.3c0-0.1,0-0.2,0.1-0.3c0-0.1,0.1-0.2,0.2-0.2s0.2-0.1,0.3-0.1s0.2,0,0.4,0
				c0.2,0,0.3,0,0.4,0.1c0.1,0,0.2,0.1,0.4,0.2L112.9,48.6z"/>
			<path class="st3" d="M114.4,48.2h0.2l1.1,2.6h-0.2l-0.4-0.8h-1.2l-0.4,0.8h-0.2L114.4,48.2z M115,49.7l-0.6-1.3l-0.6,1.3H115z"/>
			<path class="st3" d="M116,50.7v-2.6h1.1c0.1,0,0.2,0,0.3,0.1c0.1,0,0.2,0.1,0.2,0.2c0.1,0.1,0.1,0.2,0.2,0.3s0.1,0.2,0.1,0.3
				c0,0.1,0,0.2-0.1,0.3c0,0.1-0.1,0.2-0.1,0.3c-0.1,0.1-0.1,0.1-0.2,0.2s-0.2,0.1-0.3,0.1h-0.9v1H116z M116.2,49.6h0.9
				c0.1,0,0.2,0,0.2-0.1c0.1,0,0.1-0.1,0.2-0.1c0-0.1,0.1-0.1,0.1-0.2s0-0.2,0-0.2c0-0.1,0-0.2,0-0.2c0-0.1-0.1-0.1-0.1-0.2
				s-0.1-0.1-0.2-0.1s-0.1-0.1-0.2-0.1h-0.9V49.6z"/>
			<path class="st3" d="M120.9,50.1c0,0.1,0,0.2-0.1,0.3c0,0.1-0.1,0.2-0.1,0.2s-0.1,0.1-0.2,0.1c-0.1,0-0.2,0.1-0.3,0.1H119v-2.6
				h1.2c0.1,0,0.2,0,0.2,0.1c0.1,0,0.1,0.1,0.2,0.1c0.1,0.1,0.1,0.1,0.1,0.2s0,0.2,0,0.2c0,0.1,0,0.2-0.1,0.4
				c-0.1,0.1-0.2,0.2-0.3,0.2c0.1,0,0.3,0.1,0.3,0.2S120.9,49.9,120.9,50.1z M119.2,48.3v1h0.9c0.1,0,0.1,0,0.2,0s0.1-0.1,0.1-0.1
				c0,0,0.1-0.1,0.1-0.2s0-0.1,0-0.2c0-0.1,0-0.1,0-0.2c0-0.1-0.1-0.1-0.1-0.2s-0.1-0.1-0.1-0.1c-0.1,0-0.1,0-0.2,0H119.2z
				 M120.7,50c0-0.1,0-0.1,0-0.2c0-0.1-0.1-0.1-0.1-0.2c0,0-0.1-0.1-0.2-0.1s-0.1,0-0.2,0h-1v1h1c0.1,0,0.1,0,0.2,0
				c0.1,0,0.1-0.1,0.2-0.1c0,0,0.1-0.1,0.1-0.2S120.7,50.1,120.7,50z"/>
			<path class="st3" d="M122.5,50.6c0.2,0,0.3,0,0.4-0.1c0.1-0.1,0.2-0.1,0.3-0.3c0.1-0.1,0.1-0.2,0.1-0.4c0-0.1,0-0.3,0-0.4v-1.3
				h0.2v1.3c0,0.2,0,0.3-0.1,0.5c0,0.2-0.1,0.3-0.2,0.4c-0.1,0.1-0.2,0.2-0.3,0.3c-0.1,0.1-0.3,0.1-0.5,0.1c-0.2,0-0.4,0-0.5-0.1
				s-0.2-0.2-0.3-0.3c-0.1-0.1-0.1-0.3-0.2-0.4c0-0.2-0.1-0.3-0.1-0.5v-1.3h0.2v1.3c0,0.1,0,0.3,0,0.4c0,0.1,0.1,0.3,0.1,0.4
				s0.2,0.2,0.3,0.3C122.1,50.6,122.3,50.6,122.5,50.6z"/>
			<path class="st3" d="M125.6,48.6c-0.2-0.2-0.4-0.3-0.7-0.3c-0.2,0-0.4,0-0.5,0.1s-0.2,0.2-0.2,0.4c0,0.1,0,0.1,0,0.2
				c0,0.1,0.1,0.1,0.1,0.1c0.1,0,0.1,0.1,0.2,0.1c0.1,0,0.2,0.1,0.3,0.1c0.1,0,0.3,0.1,0.4,0.1c0.1,0,0.2,0.1,0.3,0.1
				c0.1,0.1,0.1,0.1,0.2,0.2c0,0.1,0.1,0.2,0.1,0.3s0,0.2-0.1,0.3s-0.1,0.2-0.2,0.2c-0.1,0.1-0.2,0.1-0.3,0.1c-0.1,0-0.2,0-0.4,0
				c-0.4,0-0.7-0.1-1-0.4l0.1-0.1c0.1,0.1,0.2,0.2,0.4,0.3s0.3,0.1,0.5,0.1c0.2,0,0.4,0,0.5-0.1s0.2-0.2,0.2-0.4c0-0.1,0-0.2,0-0.2
				c0-0.1-0.1-0.1-0.1-0.2c-0.1,0-0.1-0.1-0.3-0.1c-0.1,0-0.2-0.1-0.4-0.1c-0.1,0-0.3-0.1-0.4-0.1c-0.1,0-0.2-0.1-0.3-0.1
				c-0.1,0-0.1-0.1-0.2-0.2c0-0.1-0.1-0.2-0.1-0.3c0-0.1,0-0.2,0.1-0.3c0-0.1,0.1-0.2,0.2-0.2s0.2-0.1,0.3-0.1s0.2,0,0.4,0
				c0.2,0,0.3,0,0.4,0.1c0.1,0,0.2,0.1,0.4,0.2L125.6,48.6z"/>
			<path class="st3" d="M126.3,50.7v-2.6h0.2v2.6H126.3z"/>
			<path class="st3" d="M127.4,48.5v2.2h-0.2v-2.6h0.1l1.8,2.2v-2.2h0.2v2.6h-0.2L127.4,48.5z"/>
			<path class="st3" d="M131.7,50.6v0.2H130v-2.6h1.7v0.2h-1.5v1h1.3v0.2h-1.3v1.1H131.7z"/>
			<path class="st3" d="M133.6,48.6c-0.2-0.2-0.4-0.3-0.7-0.3c-0.2,0-0.4,0-0.5,0.1s-0.2,0.2-0.2,0.4c0,0.1,0,0.1,0,0.2
				c0,0.1,0.1,0.1,0.1,0.1c0.1,0,0.1,0.1,0.2,0.1c0.1,0,0.2,0.1,0.3,0.1c0.1,0,0.3,0.1,0.4,0.1c0.1,0,0.2,0.1,0.3,0.1
				c0.1,0.1,0.1,0.1,0.2,0.2c0,0.1,0.1,0.2,0.1,0.3s0,0.2-0.1,0.3s-0.1,0.2-0.2,0.2c-0.1,0.1-0.2,0.1-0.3,0.1c-0.1,0-0.2,0-0.4,0
				c-0.4,0-0.7-0.1-1-0.4l0.1-0.1c0.1,0.1,0.2,0.2,0.4,0.3s0.3,0.1,0.5,0.1c0.2,0,0.4,0,0.5-0.1s0.2-0.2,0.2-0.4c0-0.1,0-0.2,0-0.2
				c0-0.1-0.1-0.1-0.1-0.2c-0.1,0-0.1-0.1-0.3-0.1c-0.1,0-0.2-0.1-0.4-0.1c-0.1,0-0.3-0.1-0.4-0.1c-0.1,0-0.2-0.1-0.3-0.1
				c-0.1,0-0.1-0.1-0.2-0.2c0-0.1-0.1-0.2-0.1-0.3c0-0.1,0-0.2,0.1-0.3c0-0.1,0.1-0.2,0.2-0.2s0.2-0.1,0.3-0.1s0.2,0,0.4,0
				c0.2,0,0.3,0,0.4,0.1c0.1,0,0.2,0.1,0.4,0.2L133.6,48.6z"/>
			<path class="st3" d="M135.8,48.6c-0.2-0.2-0.4-0.3-0.7-0.3c-0.2,0-0.4,0-0.5,0.1s-0.2,0.2-0.2,0.4c0,0.1,0,0.1,0,0.2
				c0,0.1,0.1,0.1,0.1,0.1c0.1,0,0.1,0.1,0.2,0.1c0.1,0,0.2,0.1,0.3,0.1c0.1,0,0.3,0.1,0.4,0.1c0.1,0,0.2,0.1,0.3,0.1
				c0.1,0.1,0.1,0.1,0.2,0.2c0,0.1,0.1,0.2,0.1,0.3s0,0.2-0.1,0.3s-0.1,0.2-0.2,0.2c-0.1,0.1-0.2,0.1-0.3,0.1c-0.1,0-0.2,0-0.4,0
				c-0.4,0-0.7-0.1-1-0.4l0.1-0.1c0.1,0.1,0.2,0.2,0.4,0.3s0.3,0.1,0.5,0.1c0.2,0,0.4,0,0.5-0.1s0.2-0.2,0.2-0.4c0-0.1,0-0.2,0-0.2
				c0-0.1-0.1-0.1-0.1-0.2c-0.1,0-0.1-0.1-0.3-0.1c-0.1,0-0.2-0.1-0.4-0.1c-0.1,0-0.3-0.1-0.4-0.1c-0.1,0-0.2-0.1-0.3-0.1
				c-0.1,0-0.1-0.1-0.2-0.2c0-0.1-0.1-0.2-0.1-0.3c0-0.1,0-0.2,0.1-0.3c0-0.1,0.1-0.2,0.2-0.2s0.2-0.1,0.3-0.1s0.2,0,0.4,0
				c0.2,0,0.3,0,0.4,0.1c0.1,0,0.2,0.1,0.4,0.2L135.8,48.6z"/>
			<path class="st3" d="M138.4,50.8c-0.2,0-0.3,0-0.5-0.1c-0.1-0.1-0.3-0.2-0.4-0.3s-0.2-0.3-0.2-0.4c-0.1-0.2-0.1-0.3-0.1-0.5
				c0-0.2,0-0.3,0.1-0.5c0.1-0.2,0.1-0.3,0.3-0.4c0.1-0.1,0.2-0.2,0.4-0.3s0.3-0.1,0.5-0.1c0.2,0,0.3,0,0.5,0.1s0.3,0.2,0.4,0.3
				s0.2,0.3,0.2,0.4c0.1,0.2,0.1,0.3,0.1,0.5c0,0.2,0,0.3-0.1,0.5c-0.1,0.2-0.1,0.3-0.3,0.4c-0.1,0.1-0.2,0.2-0.4,0.3
				S138.6,50.8,138.4,50.8z M137.4,49.5c0,0.1,0,0.3,0.1,0.4c0,0.1,0.1,0.3,0.2,0.4c0.1,0.1,0.2,0.2,0.3,0.3
				c0.1,0.1,0.3,0.1,0.4,0.1c0.2,0,0.3,0,0.4-0.1c0.1-0.1,0.2-0.2,0.3-0.3s0.2-0.2,0.2-0.4s0.1-0.3,0.1-0.4c0-0.1,0-0.3-0.1-0.4
				c-0.1-0.1-0.1-0.3-0.2-0.4s-0.2-0.2-0.3-0.2c-0.1-0.1-0.3-0.1-0.4-0.1c-0.2,0-0.3,0-0.4,0.1s-0.2,0.2-0.3,0.3
				c-0.1,0.1-0.2,0.2-0.2,0.4S137.4,49.3,137.4,49.5z"/>
			<path class="st3" d="M140.3,48.5v2.2h-0.2v-2.6h0.1l1.8,2.2v-2.2h0.2v2.6h-0.2L140.3,48.5z"/>
			<path class="st3" d="M144.6,50.6v0.2h-1.7v-2.6h1.7v0.2h-1.5v1h1.3v0.2h-1.3v1.1H144.6z"/>
		</g>
	</g>
	<g>
		<path class="st4" d="M75.8,8.3V1.2h2.9c0.3,0,0.6,0.1,0.8,0.2c0.3,0.1,0.5,0.3,0.7,0.5c0.2,0.2,0.3,0.4,0.4,0.7
			c0.1,0.3,0.2,0.5,0.2,0.8c0,0.3,0,0.6-0.1,0.8c-0.1,0.3-0.2,0.5-0.4,0.7s-0.4,0.4-0.6,0.5c-0.2,0.1-0.5,0.2-0.8,0.2h-2.5v2.7H75.8
			z M76.3,5.2h2.4c0.2,0,0.4,0,0.6-0.1c0.2-0.1,0.3-0.2,0.5-0.4c0.1-0.2,0.2-0.4,0.3-0.6c0.1-0.2,0.1-0.4,0.1-0.7
			c0-0.2,0-0.5-0.1-0.7c-0.1-0.2-0.2-0.4-0.3-0.6c-0.1-0.2-0.3-0.3-0.5-0.4c-0.2-0.1-0.4-0.1-0.6-0.1h-2.4V5.2z"/>
		<path class="st4" d="M83.9,8.4c-0.4,0-0.7-0.1-1-0.2c-0.3-0.1-0.6-0.3-0.8-0.6c-0.2-0.2-0.4-0.5-0.5-0.9c-0.1-0.3-0.2-0.7-0.2-1
			c0-0.4,0.1-0.7,0.2-1s0.3-0.6,0.5-0.9c0.2-0.2,0.5-0.4,0.8-0.6c0.3-0.1,0.6-0.2,1-0.2s0.7,0.1,1,0.2c0.3,0.1,0.6,0.3,0.8,0.6
			c0.2,0.2,0.4,0.5,0.5,0.9s0.2,0.7,0.2,1c0,0.4-0.1,0.7-0.2,1s-0.3,0.6-0.5,0.9c-0.2,0.2-0.5,0.4-0.8,0.6
			C84.6,8.3,84.3,8.4,83.9,8.4z M81.9,5.7c0,0.3,0.1,0.6,0.2,0.9s0.3,0.5,0.4,0.7c0.2,0.2,0.4,0.4,0.6,0.5c0.2,0.1,0.5,0.2,0.8,0.2
			s0.5-0.1,0.8-0.2c0.2-0.1,0.5-0.3,0.6-0.5c0.2-0.2,0.3-0.4,0.4-0.7s0.2-0.6,0.2-0.9c0-0.3-0.1-0.6-0.2-0.9s-0.3-0.5-0.4-0.7
			c-0.2-0.2-0.4-0.4-0.6-0.5c-0.2-0.1-0.5-0.2-0.8-0.2s-0.5,0.1-0.8,0.2c-0.2,0.1-0.5,0.3-0.6,0.5c-0.2,0.2-0.3,0.4-0.4,0.7
			C81.9,5.1,81.9,5.4,81.9,5.7z"/>
		<path class="st4" d="M94,3.1h0.5l-2.2,5.2h-0.4l-1.2-2.8l-1.2,2.8h-0.4l-2.2-5.2h0.5l2,4.7l1.1-2.6l-0.9-2.1H90l0.7,1.7l0.7-1.7
			h0.4L91,5.2l1.1,2.6L94,3.1z"/>
		<path class="st4" d="M97.5,8.4c-0.4,0-0.7-0.1-1-0.2c-0.3-0.1-0.6-0.3-0.8-0.6c-0.2-0.2-0.4-0.5-0.5-0.9S95,6.1,95,5.7
			c0-0.4,0.1-0.7,0.2-1c0.1-0.3,0.3-0.6,0.5-0.9c0.2-0.2,0.5-0.4,0.8-0.6c0.3-0.1,0.6-0.2,1-0.2c0.4,0,0.7,0.1,1,0.2
			c0.3,0.1,0.6,0.3,0.8,0.6c0.2,0.2,0.4,0.5,0.5,0.9c0.1,0.3,0.2,0.7,0.2,1c0,0,0,0.1,0,0.1c0,0.1,0,0.1,0,0.1h-4.6
			c0,0.3,0.1,0.6,0.2,0.8C95.8,7,96,7.2,96.2,7.4c0.2,0.2,0.4,0.3,0.6,0.4S97.3,8,97.6,8c0.2,0,0.4,0,0.5-0.1c0.2,0,0.3-0.1,0.5-0.2
			c0.1-0.1,0.3-0.2,0.4-0.3c0.1-0.1,0.2-0.3,0.3-0.4l0.4,0.1c-0.1,0.2-0.2,0.4-0.3,0.5c-0.1,0.2-0.3,0.3-0.5,0.4
			c-0.2,0.1-0.4,0.2-0.6,0.3C98,8.4,97.8,8.4,97.5,8.4z M99.6,5.5c0-0.3-0.1-0.6-0.2-0.8c-0.1-0.3-0.3-0.5-0.5-0.7
			c-0.2-0.2-0.4-0.3-0.6-0.4c-0.2-0.1-0.5-0.2-0.8-0.2S97,3.5,96.7,3.6c-0.2,0.1-0.5,0.2-0.6,0.4c-0.2,0.2-0.3,0.4-0.4,0.7
			c-0.1,0.3-0.2,0.5-0.2,0.8H99.6z"/>
		<path class="st4" d="M103.6,3.6c-0.5,0-0.9,0.2-1.2,0.4c-0.3,0.3-0.6,0.6-0.7,1.1v3.2h-0.5V3.1h0.5v1.3c0.2-0.4,0.4-0.7,0.7-0.9
			c0.3-0.2,0.6-0.4,1-0.4c0.1,0,0.1,0,0.2,0c0.1,0,0.1,0,0.1,0V3.6z"/>
		<path class="st4" d="M106.5,8.4c-0.4,0-0.7-0.1-1-0.2c-0.3-0.1-0.6-0.3-0.8-0.6c-0.2-0.2-0.4-0.5-0.5-0.9s-0.2-0.7-0.2-1.1
			c0-0.4,0.1-0.7,0.2-1c0.1-0.3,0.3-0.6,0.5-0.9c0.2-0.2,0.5-0.4,0.8-0.6c0.3-0.1,0.6-0.2,1-0.2c0.4,0,0.7,0.1,1,0.2
			c0.3,0.1,0.6,0.3,0.8,0.6c0.2,0.2,0.4,0.5,0.5,0.9c0.1,0.3,0.2,0.7,0.2,1c0,0,0,0.1,0,0.1c0,0.1,0,0.1,0,0.1h-4.6
			c0,0.3,0.1,0.6,0.2,0.8c0.1,0.3,0.3,0.5,0.5,0.7c0.2,0.2,0.4,0.3,0.6,0.4s0.5,0.2,0.8,0.2c0.2,0,0.4,0,0.5-0.1
			c0.2,0,0.3-0.1,0.5-0.2c0.1-0.1,0.3-0.2,0.4-0.3c0.1-0.1,0.2-0.3,0.3-0.4l0.4,0.1c-0.1,0.2-0.2,0.4-0.3,0.5
			c-0.1,0.2-0.3,0.3-0.5,0.4c-0.2,0.1-0.4,0.2-0.6,0.3C107,8.4,106.8,8.4,106.5,8.4z M108.6,5.5c0-0.3-0.1-0.6-0.2-0.8
			c-0.1-0.3-0.3-0.5-0.5-0.7c-0.2-0.2-0.4-0.3-0.6-0.4c-0.2-0.1-0.5-0.2-0.8-0.2s-0.5,0.1-0.8,0.2c-0.2,0.1-0.5,0.2-0.6,0.4
			c-0.2,0.2-0.3,0.4-0.4,0.7c-0.1,0.3-0.2,0.5-0.2,0.8H108.6z"/>
		<path class="st4" d="M112.3,8.4c-0.4,0-0.7-0.1-1-0.2s-0.6-0.4-0.8-0.6S110.1,7,110,6.7c-0.1-0.3-0.2-0.7-0.2-1
			c0-0.4,0.1-0.7,0.2-1c0.1-0.3,0.3-0.6,0.5-0.9c0.2-0.2,0.5-0.4,0.8-0.6c0.3-0.1,0.6-0.2,1-0.2c0.2,0,0.4,0,0.6,0.1
			c0.2,0.1,0.4,0.2,0.6,0.3c0.2,0.1,0.3,0.2,0.5,0.4c0.1,0.1,0.3,0.3,0.4,0.5V1h0.5v6.6c0,0.2,0.1,0.2,0.2,0.2v0.5c0,0-0.1,0-0.1,0
			c0,0-0.1,0-0.1,0c-0.1,0-0.2-0.1-0.3-0.2c-0.1-0.1-0.1-0.2-0.1-0.3V7.3c-0.2,0.3-0.5,0.6-0.9,0.8S112.7,8.4,112.3,8.4z M112.4,7.9
			c0.2,0,0.4,0,0.6-0.1s0.4-0.2,0.6-0.3c0.2-0.1,0.3-0.3,0.5-0.4c0.1-0.2,0.2-0.3,0.2-0.5V4.8c-0.1-0.2-0.2-0.4-0.3-0.5
			c-0.1-0.2-0.3-0.3-0.5-0.4c-0.2-0.1-0.4-0.2-0.6-0.3s-0.4-0.1-0.6-0.1c-0.3,0-0.6,0.1-0.8,0.2c-0.2,0.1-0.5,0.3-0.6,0.5
			c-0.2,0.2-0.3,0.4-0.4,0.7c-0.1,0.3-0.1,0.5-0.1,0.8c0,0.3,0.1,0.6,0.2,0.9s0.3,0.5,0.4,0.7c0.2,0.2,0.4,0.4,0.7,0.5
			C111.8,7.9,112.1,7.9,112.4,7.9z"/>
		<path class="st4" d="M121.3,8.4c-0.4,0-0.8-0.1-1.1-0.3c-0.4-0.2-0.6-0.5-0.8-0.8v1h-0.5V1h0.5v3.2c0.2-0.4,0.5-0.7,0.9-0.9
			c0.3-0.2,0.7-0.3,1.2-0.3c0.4,0,0.7,0.1,1,0.2c0.3,0.2,0.5,0.4,0.8,0.6c0.2,0.3,0.4,0.5,0.5,0.9c0.1,0.3,0.2,0.7,0.2,1
			c0,0.4-0.1,0.7-0.2,1c-0.1,0.3-0.3,0.6-0.5,0.9c-0.2,0.2-0.5,0.4-0.8,0.6C122,8.3,121.6,8.4,121.3,8.4z M121.2,7.9
			c0.3,0,0.6-0.1,0.8-0.2c0.3-0.1,0.5-0.3,0.7-0.5c0.2-0.2,0.3-0.4,0.4-0.7s0.2-0.5,0.2-0.8c0-0.3,0-0.6-0.1-0.8s-0.2-0.5-0.4-0.7
			c-0.2-0.2-0.4-0.4-0.6-0.5s-0.5-0.2-0.8-0.2c-0.2,0-0.4,0-0.6,0.1s-0.4,0.2-0.5,0.3c-0.2,0.1-0.3,0.3-0.4,0.4
			c-0.1,0.2-0.2,0.3-0.3,0.5v1.7c0,0.2,0.1,0.4,0.2,0.5c0.1,0.2,0.3,0.3,0.5,0.4s0.4,0.2,0.6,0.3C120.8,7.9,121,7.9,121.2,7.9z"/>
		<path class="st4" d="M125.1,10.1c0,0,0.1,0,0.2,0c0.1,0,0.1,0,0.2,0c0.1,0,0.1,0,0.2,0c0,0,0.1,0,0.1-0.1s0.1-0.1,0.1-0.2
			c0.1-0.1,0.1-0.3,0.2-0.5c0.1-0.2,0.2-0.5,0.4-0.9l-2.3-5.2h0.5l2.1,4.7l1.9-4.7h0.5l-2.8,6.8c-0.1,0.2-0.2,0.3-0.4,0.4
			c-0.2,0.1-0.4,0.2-0.7,0.2c0,0-0.1,0-0.1,0c0,0-0.1,0-0.1,0V10.1z"/>
	</g>
</g>
</svg>
