<?xml version="1.0" encoding="UTF-8" ?>
<!DOCTYPE svg PUBLIC "-//W3C//DTD SVG 1.1//EN" "http://www.w3.org/Graphics/SVG/1.1/DTD/svg11.dtd">
<svg width="1753pt" height="787pt" viewBox="0 0 1753 787" version="1.1" xmlns="http://www.w3.org/2000/svg">
<g id="#000000ff">
</g>
<g id="#0750efff">
<path fill="#0750ef" opacity="1.00" d=" M 138.75 80.92 C 140.93 75.29 146.90 71.41 152.96 71.95 C 194.01 73.97 234.65 84.31 271.61 102.31 C 328.83 129.89 377.00 175.48 408.42 230.62 C 433.45 274.23 448.05 323.79 450.73 374.00 C 452.76 396.50 450.64 419.12 447.71 441.44 C 443.32 470.59 435.04 499.16 423.01 526.08 C 420.04 532.65 416.70 539.06 413.87 545.69 C 413.29 544.55 412.38 543.44 412.61 542.08 C 412.62 532.02 412.66 521.96 412.56 511.91 C 412.08 520.26 412.54 528.64 412.36 537.00 C 412.31 539.82 412.08 542.73 413.20 545.43 L 411.32 546.24 C 411.90 546.11 413.06 545.83 413.65 545.69 C 408.55 554.94 403.37 564.17 397.39 572.89 C 404.39 527.78 400.74 480.99 386.31 437.65 C 370.70 390.27 342.25 347.17 304.71 314.30 C 267.70 281.81 221.81 259.12 173.16 250.92 C 174.61 249.79 176.34 249.35 178.17 249.43 C 176.21 249.51 173.72 248.43 172.38 250.39 C 170.48 250.24 168.59 250.04 166.72 249.77 C 168.08 248.37 170.18 248.64 171.96 248.29 C 169.99 248.39 167.84 248.17 166.28 249.60 C 159.22 248.28 152.10 247.45 144.96 246.79 C 140.57 246.64 137.33 242.27 137.40 238.09 C 137.35 190.08 137.40 142.07 137.38 94.06 C 137.45 89.67 136.85 85.04 138.75 80.92 Z" />
<path fill="#0750ef" opacity="1.00" d=" M 214.95 269.14 C 270.36 291.33 317.86 332.08 349.31 382.70 C 384.71 439.12 399.51 507.88 391.31 573.91 C 390.64 577.59 391.05 581.71 388.99 584.98 C 352.90 634.45 302.33 673.54 244.75 694.65 C 276.14 671.78 302.47 641.84 320.22 607.23 C 355.09 540.93 357.75 458.86 327.62 390.32 C 315.66 362.63 298.55 337.16 277.43 315.62 C 259.32 296.82 237.86 281.53 214.95 269.14 Z" />
<path fill="#0750ef" opacity="1.00" d=" M 239.11 290.00 C 272.94 315.23 300.05 349.39 316.90 388.08 C 344.24 449.72 344.87 522.54 318.78 584.70 C 299.50 631.39 265.40 671.89 222.43 698.52 C 217.83 701.26 213.41 704.72 208.06 705.84 C 189.68 710.14 170.89 712.76 152.03 713.59 C 144.19 713.90 137.41 706.68 137.63 698.95 C 137.51 681.20 137.75 663.44 137.51 645.69 C 174.98 635.32 209.58 614.56 235.78 585.77 C 264.62 554.71 283.64 514.74 289.83 472.83 C 294.88 440.20 292.25 406.42 282.35 374.93 C 279.96 366.74 276.15 359.04 274.21 350.72 C 267.63 328.00 255.25 307.23 239.11 290.00 Z" />
<path fill="#0750ef" opacity="1.00" d=" M 126.61 298.78 C 145.92 296.31 165.98 300.44 182.82 310.16 C 200.82 320.45 215.11 336.96 222.92 356.14 C 231.35 376.57 232.39 399.91 225.90 421.02 C 219.06 443.79 203.30 463.76 182.60 475.50 C 165.90 485.08 146.08 489.15 126.97 486.80 C 103.72 484.18 81.87 471.98 67.06 453.93 C 54.88 439.29 47.32 420.89 45.61 401.92 C 43.12 377.25 50.68 351.70 66.36 332.47 C 81.10 314.05 103.12 301.51 126.61 298.78 Z" />
<path fill="#0750ef" opacity="1.00" d=" M 279.23 373.78 C 294.71 426.01 289.21 484.29 263.34 532.31 C 237.68 581.38 191.21 619.26 137.61 633.55 C 137.64 604.69 137.57 575.83 137.64 546.97 C 137.52 543.06 140.48 539.26 144.40 538.70 C 148.64 538.19 152.92 538.06 157.14 537.31 C 190.81 532.79 222.32 515.18 244.41 489.45 C 260.29 471.14 271.46 448.81 276.67 425.14 C 280.54 408.32 280.95 390.90 279.23 373.78 Z" />
</g>
<g id="#ffffffff">
<path fill="#ffffff" opacity="1.00" d=" M 1065.53 261.39 C 1066.02 259.44 1068.83 259.53 1069.30 261.46 C 1109.09 348.28 1148.77 435.15 1188.51 522.00 C 1166.91 522.01 1145.31 521.98 1123.71 522.02 C 1104.94 477.64 1086.14 433.27 1067.46 388.85 C 1048.54 433.17 1029.92 477.63 1011.10 522.00 C 989.50 521.99 967.89 522.00 946.29 522.00 C 986.04 435.13 1025.72 348.23 1065.53 261.39 Z" />
<path fill="#ffffff" opacity="1.00" d=" M 1567.66 261.83 C 1568.02 259.66 1571.06 259.21 1571.66 261.48 C 1611.44 348.30 1651.13 435.16 1690.85 522.00 C 1669.24 522.00 1647.64 522.00 1626.03 522.00 C 1607.21 477.65 1588.66 433.18 1569.66 388.90 C 1551.06 433.28 1532.12 477.51 1513.58 521.91 C 1491.93 522.11 1470.28 521.95 1448.63 522.00 C 1488.31 435.27 1527.96 348.53 1567.66 261.83 Z" />
<path fill="#ffffff" opacity="1.00" d=" M 1259.52 282.57 C 1275.44 269.12 1296.57 263.91 1316.95 262.45 C 1337.92 260.52 1359.65 264.35 1377.97 274.98 C 1387.80 280.48 1396.62 287.66 1404.57 295.61 C 1391.64 309.52 1378.71 323.44 1365.78 337.36 C 1359.78 330.47 1352.50 324.38 1343.81 321.26 C 1336.26 318.52 1328.04 317.97 1320.09 318.66 C 1313.50 319.35 1306.14 321.48 1302.46 327.47 C 1299.65 332.72 1298.94 339.57 1302.16 344.82 C 1304.97 349.42 1309.85 352.30 1314.81 354.10 C 1328.84 359.18 1342.85 364.30 1356.88 369.40 C 1372.43 374.67 1388.09 381.39 1399.79 393.29 C 1412.44 405.65 1418.72 423.44 1418.70 440.95 C 1418.69 461.70 1413.92 483.76 1399.58 499.51 C 1385.93 514.67 1365.64 521.74 1345.88 524.33 C 1322.78 527.12 1298.91 526.26 1276.55 519.42 C 1253.62 512.54 1233.43 497.73 1219.36 478.43 C 1235.48 465.93 1251.68 453.54 1267.83 441.09 C 1277.71 454.07 1291.63 464.66 1307.93 467.69 C 1317.65 469.47 1327.84 469.24 1337.39 466.62 C 1343.23 464.97 1349.20 461.28 1351.05 455.16 C 1352.96 447.98 1350.90 439.69 1345.20 434.77 C 1340.37 430.29 1333.84 428.62 1327.83 426.38 C 1314.28 421.55 1300.58 417.15 1287.16 411.96 C 1270.76 405.65 1255.33 395.26 1245.89 380.16 C 1235.92 364.57 1233.59 345.18 1236.22 327.14 C 1238.47 310.20 1246.20 293.59 1259.52 282.57 Z" />
<path fill="#ffffff" opacity="1.00" d=" M 554.22 265.14 C 584.80 265.13 615.37 265.14 645.94 265.13 C 652.62 265.18 659.33 264.92 665.99 265.70 C 687.94 267.37 709.60 274.69 727.57 287.51 C 753.06 305.31 770.07 333.82 775.90 364.16 C 780.86 389.47 779.52 416.12 771.39 440.63 C 764.08 462.39 750.38 482.05 732.09 495.99 C 709.97 513.17 681.87 521.95 653.98 521.99 C 620.72 521.99 587.47 522.00 554.22 521.98 C 554.23 436.37 554.22 350.75 554.22 265.14 M 621.20 322.69 C 621.20 369.74 621.20 416.79 621.20 463.84 C 632.12 463.69 643.06 464.17 653.96 463.56 C 667.19 462.45 680.07 456.87 689.62 447.58 C 701.72 436.00 707.88 419.39 709.18 402.92 C 710.75 384.07 707.61 364.08 696.83 348.18 C 688.05 335.06 673.70 325.84 658.06 323.48 C 645.84 321.92 633.48 323.01 621.20 322.69 Z" />
<path fill="#ffffff" opacity="1.00" d=" M 832.00 265.00 C 854.33 265.00 876.67 265.00 899.00 265.00 C 899.00 350.67 899.00 436.33 899.00 522.00 C 876.67 522.00 854.33 522.00 832.00 522.00 C 832.00 436.33 832.00 350.67 832.00 265.00 Z" />
</g>
</svg>
