<?xml version="1.0" encoding="utf-8"?>
<!-- Generator: Adobe Illustrator 25.2.3, SVG Export Plug-In . SVG Version: 6.00 Build 0)  -->
<svg version="1.1" id="YouTube" xmlns="http://www.w3.org/2000/svg" xmlns:xlink="http://www.w3.org/1999/xlink" x="0px" y="0px"
	 viewBox="0 0 512 512" style="enable-background:new 0 0 512 512;" xml:space="preserve">
<style type="text/css">
	.st0{fill:#FFFFFF;}
</style>
<g>
	<path class="st0" d="M224.1,303.9l83.2-47.9l-83.2-47.9V303.9z"/>
	<path class="st0" d="M256,0.2C114.8,0.2,0.2,114.8,0.2,256S114.8,511.8,256,511.8S511.8,397.2,511.8,256S397.2,0.2,256,0.2z
		 M415.8,256.3c0,0,0,51.9-6.6,76.9c-3.7,13.7-14.5,24.5-28.2,28.2c-25,6.6-125.1,6.6-125.1,6.6s-99.8,0-125.1-6.8
		c-13.7-3.7-24.5-14.5-28.2-28.2c-6.6-24.7-6.6-76.9-6.6-76.9s0-51.9,6.6-76.9c3.7-13.7,14.7-24.7,28.2-28.4
		c25-6.6,125.1-6.6,125.1-6.6s100,0,125.1,6.8c13.7,3.7,24.5,14.5,28.2,28.2C416.1,204.1,415.8,256.3,415.8,256.3z"/>
</g>
</svg>
