<?xml version="1.0" encoding="UTF-8" ?>
<!DOCTYPE svg PUBLIC "-//W3C//DTD SVG 1.1//EN" "http://www.w3.org/Graphics/SVG/1.1/DTD/svg11.dtd">
<svg width="779pt" height="706pt" viewBox="0 0 779 706" version="1.1" xmlns="http://www.w3.org/2000/svg">
<g id="#ffffffff">
</g>
<g id="#000000ff">
<path fill="#000000" opacity="1.00" d=" M 429.19 29.65 C 464.39 22.87 502.90 37.17 524.52 65.88 C 529.27 62.64 534.94 61.34 540.59 60.80 C 558.45 58.30 577.00 61.62 593.04 69.81 C 612.23 79.51 627.76 96.24 635.87 116.17 C 651.08 154.30 666.30 192.44 681.51 230.57 C 690.47 250.70 692.16 274.07 685.40 295.10 C 683.39 301.84 680.23 308.15 677.54 314.62 C 639.13 403.46 600.72 492.30 562.31 581.15 C 554.75 598.55 541.59 613.47 525.18 623.01 C 506.98 633.71 484.91 637.86 464.12 633.87 C 457.39 632.40 450.23 631.25 444.55 627.08 C 433.57 641.94 418.35 653.62 401.13 660.33 C 376.74 668.97 349.11 667.88 325.42 657.52 C 263.98 630.89 202.53 604.26 141.09 577.63 C 123.12 569.76 107.52 556.47 97.19 539.77 C 85.34 521.01 80.09 498.14 82.76 476.09 C 83.95 465.22 87.21 454.64 91.77 444.71 C 134.07 347.27 176.37 249.83 218.68 152.40 C 223.19 142.22 227.08 131.65 233.50 122.47 C 244.41 106.01 260.60 93.24 278.95 86.05 C 318.09 70.84 357.24 55.64 396.38 40.43 C 407.14 36.34 417.75 31.52 429.19 29.65 M 439.09 68.19 C 430.69 69.20 422.98 72.85 415.17 75.87 C 376.39 91.20 337.61 106.53 298.83 121.86 C 295.03 123.37 291.17 124.75 287.57 126.70 C 276.12 132.70 266.86 142.70 261.68 154.54 C 216.97 257.81 172.24 361.08 127.53 464.36 C 120.93 479.78 121.57 498.00 129.06 512.98 C 134.98 525.12 145.26 535.04 157.61 540.51 C 219.22 567.12 280.86 593.71 342.48 620.32 C 352.35 624.62 363.46 626.33 374.13 624.59 C 391.00 622.27 406.56 611.93 415.23 597.27 C 418.11 592.82 419.89 587.80 422.06 582.99 C 465.44 483.09 508.79 383.18 552.18 283.29 C 556.96 272.77 558.67 260.84 556.78 249.43 C 555.59 241.46 552.11 234.15 549.25 226.70 C 533.37 186.52 517.49 146.35 501.61 106.17 C 499.14 99.58 495.62 93.34 491.02 87.99 C 478.61 73.07 458.27 65.45 439.09 68.19 M 543.52 102.45 C 559.49 142.83 575.49 183.19 591.47 223.57 C 600.92 247.60 600.30 275.34 589.80 298.94 C 547.40 396.37 505.21 493.90 462.69 591.28 C 475.14 596.40 489.74 595.68 501.81 589.80 C 512.51 584.72 521.11 575.56 525.78 564.70 C 565.36 472.78 604.97 380.87 644.55 288.94 C 649.47 277.24 649.71 263.67 645.16 251.81 C 629.71 212.30 614.23 172.80 598.77 133.30 C 594.95 123.65 588.18 115.12 579.40 109.55 C 568.92 102.70 555.82 100.34 543.52 102.45 Z" />
<path fill="#000000" opacity="1.00" d=" M 439.45 102.62 C 453.46 99.54 468.73 108.05 473.68 121.46 C 476.74 130.31 475.82 140.69 470.42 148.45 C 465.07 156.51 455.65 161.57 446.00 161.74 C 439.23 161.90 431.78 161.09 426.50 156.42 C 417.47 149.51 413.10 137.24 415.56 126.16 C 417.86 114.45 427.72 104.77 439.45 102.62 Z" />
<path fill="#000000" opacity="1.00" d=" M 367.70 240.44 C 383.19 247.36 398.69 254.27 414.18 261.20 C 412.25 265.80 409.98 270.26 408.22 274.93 C 407.57 276.63 409.70 277.36 410.66 278.28 C 429.76 292.14 439.68 317.14 435.37 340.34 C 418.70 338.24 402.04 336.10 385.37 333.99 C 387.81 327.44 387.62 319.88 384.25 313.68 C 377.78 301.39 361.59 295.45 348.73 300.79 C 343.69 302.64 339.76 307.55 339.88 313.05 C 339.85 320.32 344.83 326.29 349.63 331.24 C 360.33 341.49 373.84 348.19 384.41 358.61 C 392.89 366.83 402.16 375.11 406.48 386.41 C 411.11 398.02 411.31 411.33 406.94 423.05 C 402.20 436.60 391.47 448.00 377.99 453.07 C 370.36 456.10 362.05 456.44 353.97 457.27 C 345.99 458.05 338.01 457.09 330.08 456.36 C 326.71 460.93 325.57 466.87 322.67 471.79 C 307.27 464.64 291.64 457.99 276.18 450.97 C 278.29 445.97 280.69 441.08 282.64 436.01 C 282.96 434.11 280.61 433.41 279.57 432.25 C 260.48 417.36 250.79 392.39 252.82 368.51 C 269.56 370.63 286.31 372.70 303.05 374.88 C 300.68 382.18 301.58 390.54 306.05 396.86 C 311.23 404.02 319.08 408.68 327.15 411.94 C 334.80 414.82 343.45 414.75 351.11 411.93 C 355.19 410.38 358.03 406.30 358.21 401.95 C 358.89 393.70 353.33 386.55 347.49 381.38 C 337.65 373.93 328.02 366.19 317.91 359.11 C 305.71 350.02 296.02 337.55 290.30 323.45 C 286.00 308.59 288.88 291.98 297.39 279.13 C 304.52 268.14 316.10 260.19 328.89 257.42 C 339.08 255.27 349.60 255.67 359.91 256.52 L 360.78 255.84 C 363.32 250.82 365.33 245.54 367.70 240.44 Z" />
</g>
</svg>
