<?xml version="1.0" encoding="UTF-8" ?>
<!DOCTYPE svg PUBLIC "-//W3C//DTD SVG 1.1//EN" "http://www.w3.org/Graphics/SVG/1.1/DTD/svg11.dtd">
<svg width="779pt" height="706pt" viewBox="0 0 779 706" version="1.1" xmlns="http://www.w3.org/2000/svg">
<g id="#ffffffff">
</g>
<g id="#000000ff">
<path fill="#000000" opacity="1.00" d=" M 344.02 73.61 C 358.27 71.99 372.64 72.71 386.95 72.55 C 401.61 72.71 416.33 71.98 430.93 73.64 C 472.84 77.66 513.44 94.33 546.11 120.90 C 577.67 146.33 601.77 180.87 614.81 219.25 C 620.60 235.65 623.72 252.85 625.94 270.05 C 628.12 270.84 630.51 270.65 632.77 271.11 C 651.04 273.53 668.51 281.53 682.30 293.77 C 703.41 312.05 715.39 340.10 714.38 367.97 C 714.38 384.96 714.38 401.95 714.38 418.95 C 714.29 429.99 714.95 441.16 712.73 452.06 C 709.37 470.02 700.64 486.95 687.89 500.05 C 672.26 516.43 650.49 526.79 627.91 528.50 C 626.60 528.46 624.91 528.84 624.78 530.43 C 622.02 545.75 616.95 560.75 609.03 574.20 C 590.65 606.60 557.45 630.04 520.80 636.63 C 507.05 639.52 492.96 638.68 479.01 638.79 C 462.68 638.77 446.34 638.83 430.01 638.77 C 419.74 638.60 411.03 629.21 410.99 619.05 C 410.92 604.34 410.92 589.64 410.98 574.94 C 410.98 566.98 416.06 559.33 423.45 556.35 C 429.61 553.61 437.05 554.53 442.53 558.38 C 447.64 561.83 450.90 567.75 451.28 573.88 C 451.48 581.78 451.09 589.69 451.44 597.58 C 451.67 597.80 452.14 598.24 452.37 598.46 C 462.22 598.79 472.10 598.49 481.97 598.60 C 491.27 598.45 500.64 599.11 509.87 597.59 C 528.78 594.86 546.68 585.72 560.07 572.10 C 571.42 560.82 579.47 546.33 583.41 530.84 C 583.13 530.48 582.59 529.77 582.32 529.41 C 574.88 528.98 567.40 529.66 559.97 529.09 C 550.20 527.92 542.27 518.81 542.51 508.96 C 542.52 435.98 542.52 363.01 542.51 290.03 C 542.33 280.21 550.25 271.13 560.00 269.98 C 568.24 269.17 576.60 270.37 584.83 269.35 C 580.60 228.39 560.55 189.50 530.61 161.35 C 499.92 132.08 458.39 114.48 415.99 112.92 C 400.65 112.45 385.30 112.84 369.96 112.71 C 347.31 112.42 324.54 116.05 303.35 124.15 C 273.22 135.49 246.30 155.21 226.40 180.52 C 206.45 205.64 193.67 236.32 189.69 268.14 C 189.95 269.38 190.71 269.90 191.98 269.71 C 199.33 269.89 206.71 269.47 214.06 269.89 C 224.00 270.83 232.04 279.90 232.15 289.83 C 232.19 362.94 232.20 436.05 232.14 509.16 C 232.13 519.50 223.41 528.85 213.03 529.25 C 193.67 529.37 174.30 529.26 154.94 529.30 C 135.75 529.32 116.54 523.49 100.83 512.42 C 76.32 495.67 60.65 466.72 60.34 437.00 C 60.29 412.31 60.31 387.62 60.33 362.92 C 60.50 339.45 70.13 316.26 86.44 299.42 C 102.47 282.38 125.11 271.91 148.43 270.40 C 149.65 267.10 149.43 263.54 150.10 260.13 C 154.74 225.89 167.71 192.81 187.64 164.58 C 208.35 135.12 236.53 110.95 268.83 95.03 C 292.32 83.43 317.93 76.06 344.02 73.61 M 151.19 310.22 C 140.44 310.79 129.90 314.73 121.44 321.40 C 108.36 331.33 100.48 347.59 100.49 363.98 C 100.50 387.99 100.47 411.99 100.50 436.00 C 100.75 451.57 108.09 466.88 120.20 476.70 C 129.38 484.24 141.12 488.89 153.06 488.88 C 162.38 489.17 171.70 488.83 181.03 488.92 C 184.50 489.00 188.14 489.65 191.49 488.42 C 192.09 486.00 191.71 483.47 191.80 481.01 C 191.79 424.98 191.78 368.95 191.80 312.91 C 192.00 311.73 191.55 309.99 190.00 310.19 C 177.07 310.10 164.12 310.06 151.19 310.22 M 582.73 310.79 C 582.79 369.97 582.65 429.16 582.80 488.35 C 584.17 488.76 585.56 489.26 587.03 489.05 C 600.70 488.37 614.42 489.87 628.06 488.46 C 640.83 486.59 652.80 479.91 661.13 470.06 C 669.54 460.47 673.97 447.78 674.16 435.08 C 674.16 411.71 674.14 388.34 674.17 364.97 C 674.01 358.29 673.11 351.56 670.73 345.29 C 663.39 324.90 642.79 310.07 621.03 310.14 C 609.68 310.10 598.32 310.18 586.97 310.11 C 585.50 309.99 584.09 310.28 582.73 310.79 Z" />
</g>
</svg>
