<?xml version="1.0" encoding="UTF-8" ?>
<!DOCTYPE svg PUBLIC "-//W3C//DTD SVG 1.1//EN" "http://www.w3.org/Graphics/SVG/1.1/DTD/svg11.dtd">
<svg width="174pt" height="147pt" viewBox="0 0 174 147" version="1.1" xmlns="http://www.w3.org/2000/svg">
<g id="#000000ff">
</g>
<g id="#ffffffff">
<path fill="#ffffff" opacity="1.00" d=" M 53.69 12.77 C 57.82 10.35 62.44 13.89 64.54 17.42 C 69.61 25.48 75.30 33.26 78.95 42.12 C 79.83 44.45 80.75 47.21 79.32 49.53 C 76.83 53.54 72.67 56.07 69.28 59.24 C 74.72 75.80 88.30 89.36 104.85 94.83 C 108.85 91.00 111.73 84.26 117.97 84.04 C 127.24 86.14 134.82 92.29 142.86 97.04 C 146.92 99.64 152.21 102.54 152.21 108.08 C 150.64 113.25 146.22 116.86 142.52 120.56 C 136.20 126.02 129.76 131.71 122.06 135.12 C 111.23 134.92 101.00 130.23 91.54 125.27 C 74.64 115.64 59.85 102.40 48.18 86.84 C 39.60 75.20 32.25 62.20 29.49 47.87 C 29.15 45.45 28.23 42.80 29.58 40.53 C 31.44 36.93 33.82 33.61 36.21 30.34 C 41.43 23.96 46.57 17.15 53.69 12.77 M 37.03 43.26 C 38.08 51.09 40.86 58.58 44.44 65.58 C 51.39 78.91 61.00 90.76 72.00 100.96 C 85.89 113.22 102.08 124.27 120.78 127.09 C 129.21 121.60 136.98 115.09 143.73 107.62 C 135.69 101.64 126.98 96.56 117.92 92.28 C 114.36 96.18 111.33 100.61 107.06 103.79 C 84.39 98.76 65.32 79.72 60.31 57.04 C 63.48 52.74 67.99 49.78 71.80 46.13 C 67.53 37.09 62.45 28.39 56.48 20.37 C 49.02 27.10 42.55 34.88 37.03 43.26 Z" />
</g>
</svg>
