<?xml version="1.0" encoding="UTF-8" ?>
<!DOCTYPE svg PUBLIC "-//W3C//DTD SVG 1.1//EN" "http://www.w3.org/Graphics/SVG/1.1/DTD/svg11.dtd">
<svg width="849pt" height="839pt" viewBox="0 0 849 839" version="1.1" xmlns="http://www.w3.org/2000/svg">

<g id="#FF9C00">
<path fill="#FF9C00" opacity="1.00" d=" M 97.39 166.36 C 101.01 157.91 109.82 152.09 119.01 152.03 C 150.35 152.00 181.70 152.00 213.05 152.03 C 223.91 152.06 233.99 160.37 236.06 171.04 C 242.62 203.57 249.10 236.12 255.63 268.66 C 381.08 268.68 506.53 268.68 631.99 268.66 C 640.82 268.50 649.69 273.43 653.72 281.37 C 656.46 286.42 657.19 292.43 656.03 298.03 C 644.51 358.38 633.03 418.74 621.53 479.10 C 619.55 489.10 618.29 499.41 613.83 508.70 C 604.97 528.54 586.38 543.41 565.27 548.26 C 556.04 550.65 546.46 549.90 537.03 550.00 C 467.03 550.00 397.04 550.01 327.04 550.01 C 305.29 551.47 282.89 543.03 268.40 526.56 C 259.88 517.14 254.01 505.36 251.58 492.90 C 232.05 395.26 212.49 297.64 192.93 200.01 C 168.63 200.02 144.32 200.01 120.02 200.02 C 112.23 200.20 104.45 196.43 99.92 190.06 C 94.95 183.34 93.93 173.98 97.39 166.36 M 265.26 316.67 C 276.33 372.09 287.46 427.49 298.54 482.91 C 299.79 490.59 305.13 497.51 312.43 500.32 C 317.33 502.46 322.78 501.99 327.99 502.01 C 399.65 502.02 471.31 502.01 542.97 502.02 C 548.30 502.08 553.88 502.23 558.84 499.93 C 565.76 497.07 570.71 490.38 571.93 483.05 C 582.47 427.59 593.05 372.14 603.60 316.68 C 490.82 316.67 378.04 316.68 265.26 316.67 Z" />
<path fill="#FF9C00" opacity="1.00" d=" M 303.38 603.49 C 314.62 602.68 326.05 607.13 333.89 615.20 C 342.65 623.91 346.90 636.91 344.78 649.11 C 342.43 664.41 330.14 677.52 315.09 681.04 C 302.60 684.17 288.75 680.49 279.41 671.66 C 272.51 665.28 267.93 656.39 266.98 647.02 C 265.65 635.65 269.71 623.85 277.65 615.63 C 284.32 608.57 293.67 604.09 303.38 603.49 Z" />
<path fill="#FF9C00" opacity="1.00" d=" M 559.40 603.55 C 570.43 602.54 581.74 606.59 589.72 614.25 C 596.79 620.90 601.34 630.22 601.97 639.94 C 602.88 651.17 598.52 662.64 590.49 670.53 C 582.14 679.03 569.77 683.39 557.94 681.83 C 543.24 680.21 530.14 669.43 525.47 655.44 C 521.54 644.10 523.18 630.94 529.99 621.03 C 536.46 611.15 547.60 604.47 559.40 603.55 Z" />
</g>
</svg>
