<?xml version="1.0" encoding="UTF-8" ?>
<!DOCTYPE svg PUBLIC "-//W3C//DTD SVG 1.1//EN" "http://www.w3.org/Graphics/SVG/1.1/DTD/svg11.dtd">
<svg width="185pt" height="180pt" viewBox="0 0 185 180" version="1.1" xmlns="http://www.w3.org/2000/svg">
<g id="#000000ff">
</g>
<g id="#FF9C00">
<path fill="#FF9C00" opacity="1.00" d=" M 31.15 12.20 C 33.07 11.96 35.01 11.98 36.93 11.99 C 74.98 12.06 113.03 11.93 151.07 12.05 C 160.39 12.23 168.41 20.73 168.15 30.03 C 168.17 67.68 168.13 105.33 168.17 142.98 C 168.22 146.54 168.19 150.24 166.67 153.54 C 163.96 160.07 157.06 164.51 149.99 164.35 C 111.00 164.33 72.02 164.40 33.03 164.31 C 23.92 164.20 15.88 156.10 15.85 146.98 C 15.78 107.99 15.83 69.01 15.82 30.02 C 15.60 21.35 22.54 13.27 31.15 12.20 M 27.75 29.98 C 27.70 68.65 27.73 107.31 27.73 145.98 C 27.41 149.46 30.54 152.73 34.06 152.43 C 55.35 152.46 76.65 152.44 97.94 152.44 C 97.94 136.28 97.95 120.11 97.94 103.95 C 91.99 103.95 86.04 103.95 80.08 103.95 C 80.08 97.80 80.08 91.65 80.08 85.50 C 86.04 85.48 91.99 85.50 97.95 85.49 C 98.23 77.91 96.93 69.99 99.85 62.76 C 103.48 53.19 112.85 46.19 123.06 45.43 C 127.87 45.20 132.70 45.38 137.51 45.34 C 137.50 51.49 137.52 57.64 137.50 63.78 C 131.02 64.52 122.30 61.40 117.86 67.76 C 114.99 73.18 116.96 79.63 116.40 85.50 C 123.53 85.49 130.66 85.50 137.80 85.49 C 136.80 91.64 135.77 97.79 134.77 103.94 C 128.64 103.96 122.52 103.94 116.39 103.95 C 116.39 120.12 116.37 136.28 116.40 152.45 C 127.58 152.42 138.76 152.47 149.94 152.43 C 153.42 152.70 156.52 149.49 156.24 146.04 C 156.26 107.70 156.23 69.35 156.26 31.00 C 156.41 28.80 155.70 26.42 153.82 25.11 C 151.90 23.58 149.31 23.94 147.03 23.89 C 109.33 23.94 71.62 23.88 33.92 23.92 C 30.62 23.74 27.60 26.67 27.75 29.98 Z" />
</g>
</svg>
