<?xml version="1.0" encoding="UTF-8" ?>
<!DOCTYPE svg PUBLIC "-//W3C//DTD SVG 1.1//EN" "http://www.w3.org/Graphics/SVG/1.1/DTD/svg11.dtd">
<svg width="210pt" height="163pt" viewBox="0 0 210 163" version="1.1" xmlns="http://www.w3.org/2000/svg">
<g id="#000000ff">
</g>
<g id="#ffffffff">
<path fill="#ffffff" opacity="1.00" d=" M 58.28 18.51 C 92.50 17.85 126.73 17.87 160.94 18.72 C 167.69 19.19 174.66 18.84 181.14 21.09 C 187.48 23.38 191.14 29.64 193.51 35.58 C 197.97 47.52 198.27 60.42 198.95 73.00 C 199.16 88.31 199.10 103.74 196.42 118.86 C 194.82 126.85 192.17 135.24 185.99 140.89 C 179.62 146.15 170.77 145.57 163.02 146.08 C 133.70 146.85 104.35 147.06 75.03 146.61 C 61.87 146.25 48.65 146.67 35.55 145.18 C 29.57 144.62 23.84 141.45 20.77 136.19 C 14.05 125.44 13.05 112.34 12.28 100.00 C 11.26 85.34 11.67 70.61 12.87 55.97 C 14.26 45.30 15.90 33.74 23.29 25.37 C 27.19 20.89 33.34 19.72 38.98 19.28 C 45.41 18.87 51.84 18.55 58.28 18.51 M 81.98 47.33 C 81.97 70.74 81.97 94.15 81.98 117.55 C 101.49 105.85 121.01 94.16 140.50 82.43 C 120.99 70.75 101.50 59.02 81.98 47.33 Z" />
</g>
</svg>
