<?xml version="1.0" encoding="UTF-8" ?>
<!DOCTYPE svg PUBLIC "-//W3C//DTD SVG 1.1//EN" "http://www.w3.org/Graphics/SVG/1.1/DTD/svg11.dtd">
<svg width="779pt" height="706pt" viewBox="0 0 779 706" version="1.1" xmlns="http://www.w3.org/2000/svg">
<g id="#ffffffff">
</g>
<g id="#000000ff">
<path fill="#000000" opacity="1.00" d=" M 553.46 34.74 C 560.87 32.86 568.21 30.24 575.95 30.24 C 594.27 29.41 612.57 39.32 622.07 54.97 C 627.35 62.85 628.97 72.32 631.48 81.29 C 655.92 172.55 680.58 263.76 704.83 355.08 C 709.97 375.59 700.88 398.65 683.26 410.28 C 676.32 415.30 667.96 417.55 659.78 419.60 C 642.63 424.24 625.46 428.81 608.31 433.42 C 606.60 433.62 605.38 435.24 605.61 436.94 C 605.58 491.31 605.60 545.68 605.60 600.04 C 605.64 606.59 604.41 613.13 602.05 619.23 C 594.72 638.67 574.93 652.78 554.05 652.66 C 414.36 652.67 274.67 652.68 134.99 652.66 C 115.11 652.71 96.19 639.90 88.20 621.81 C 85.13 614.98 83.55 607.47 83.61 599.99 C 83.62 501.67 83.60 403.35 83.62 305.03 C 83.72 290.39 90.42 276.03 101.44 266.43 C 110.68 258.11 122.99 253.87 135.30 253.25 C 137.18 251.03 135.80 248.33 135.21 245.90 C 132.19 234.88 129.31 223.82 126.33 212.79 C 124.65 206.30 122.45 199.85 122.31 193.08 C 121.53 179.23 126.67 165.23 136.07 155.05 C 142.63 147.72 151.44 142.57 160.89 139.93 C 291.75 104.88 422.60 69.81 553.46 34.74 M 573.43 61.66 C 439.43 97.44 305.48 133.44 171.51 169.30 C 167.76 170.19 164.04 171.57 161.06 174.08 C 155.00 179.11 151.96 187.57 153.83 195.29 C 157.38 208.61 161.02 221.92 164.53 235.26 C 164.92 236.54 165.17 237.94 166.04 239.03 C 168.06 240.30 170.44 238.84 172.54 238.47 C 317.11 199.68 461.71 161.00 606.28 122.22 C 608.14 121.93 610.15 120.24 609.17 118.20 C 605.43 104.18 601.73 90.15 597.87 76.17 C 594.97 66.04 583.71 59.36 573.43 61.66 M 612.46 152.75 C 494.59 184.42 376.68 215.93 258.80 247.56 C 256.84 247.76 254.41 249.78 255.84 251.84 C 256.57 253.56 258.40 253.51 259.98 253.49 C 307.33 253.46 354.69 253.50 402.04 253.48 C 431.35 245.02 461.08 237.49 490.58 229.48 C 535.53 217.39 580.52 205.40 625.47 193.31 C 626.89 192.93 628.91 191.86 628.38 190.07 C 625.50 178.84 622.38 167.66 619.44 156.43 C 619.01 155.00 618.72 153.41 617.62 152.32 C 615.89 151.86 614.13 152.37 612.46 152.75 M 634.31 223.23 C 603.80 231.29 573.30 239.49 542.83 247.71 C 539.66 247.84 538.93 252.46 542.05 253.39 C 546.87 253.68 551.72 253.32 556.55 253.55 C 568.64 254.33 580.39 259.46 589.15 267.83 C 599.57 277.55 605.68 291.70 605.60 305.95 C 605.58 335.64 605.62 365.33 605.57 395.02 C 605.75 397.03 604.93 399.86 607.26 400.90 C 610.05 401.16 612.70 399.90 615.38 399.32 C 630.04 395.32 644.75 391.49 659.42 387.51 C 670.30 384.75 677.51 372.55 674.41 361.72 C 662.41 316.67 650.27 271.65 638.23 226.62 C 637.95 224.70 636.56 222.46 634.31 223.23 M 129.41 285.64 C 120.76 288.29 114.62 297.00 114.65 305.99 C 114.64 404.00 114.65 502.00 114.64 600.00 C 114.53 608.55 119.98 616.89 127.96 620.03 C 132.70 622.10 137.97 621.58 143.00 621.62 C 279.69 621.62 416.38 621.62 553.06 621.62 C 564.20 621.91 574.36 612.18 574.43 601.01 C 574.49 502.68 574.44 404.34 574.45 306.01 C 574.81 294.52 564.47 284.24 552.99 284.58 C 414.00 284.59 275.00 284.57 136.01 284.58 C 133.77 284.60 131.55 284.99 129.41 285.64 Z" />
<path fill="#000000" opacity="1.00" d=" M 170.33 327.34 C 211.55 326.90 252.81 327.30 294.04 327.14 C 299.77 326.73 305.65 329.48 308.62 334.46 C 310.86 337.85 311.04 342.05 311.17 345.97 C 311.16 368.32 311.15 390.67 311.17 413.03 C 311.03 416.94 310.86 421.16 308.58 424.52 C 305.74 429.08 300.42 432.04 295.02 431.74 C 254.03 431.71 213.04 431.76 172.05 431.72 C 163.89 431.76 156.86 424.11 157.16 416.03 C 157.16 391.67 157.15 367.32 157.16 342.97 C 156.91 335.45 162.80 328.22 170.33 327.34 M 190.31 358.33 C 188.56 358.70 188.20 360.52 188.32 362.04 C 188.35 373.97 188.26 385.90 188.37 397.82 C 188.03 399.99 190.23 400.93 192.04 400.70 C 220.31 400.66 248.58 400.75 276.84 400.65 C 278.96 400.96 280.10 398.85 279.84 397.00 C 279.81 385.04 279.91 373.07 279.79 361.10 C 279.99 358.96 277.84 357.92 276.00 358.23 C 247.43 358.30 218.86 358.10 190.31 358.33 Z" />
<path fill="#000000" opacity="1.00" d=" M 451.40 327.56 C 452.88 327.22 454.41 327.15 455.94 327.14 C 475.98 327.17 496.02 327.14 516.05 327.15 C 521.69 326.95 527.25 330.12 529.94 335.07 C 533.63 341.50 531.89 350.48 525.89 354.91 C 522.82 357.28 518.88 358.41 515.03 358.25 C 495.00 358.20 474.98 358.26 454.95 358.22 C 449.29 358.15 443.77 354.88 441.23 349.78 C 436.40 341.32 441.90 329.48 451.40 327.56 Z" />
<path fill="#000000" opacity="1.00" d=" M 450.37 401.40 C 452.17 400.79 454.09 400.65 455.99 400.65 C 476.00 400.68 496.01 400.66 516.03 400.67 C 521.50 400.56 526.91 403.53 529.71 408.23 C 533.15 413.94 532.47 421.95 527.77 426.77 C 524.99 429.72 521.04 431.73 516.94 431.70 C 496.28 431.73 475.61 431.70 454.95 431.71 C 446.92 432.06 439.76 424.93 439.48 417.02 C 439.06 410.12 443.71 403.33 450.37 401.40 Z" />
<path fill="#000000" opacity="1.00" d=" M 169.39 474.69 C 182.56 473.97 195.80 474.60 209.00 474.38 C 218.22 473.76 226.57 482.89 224.98 492.02 C 224.09 499.34 217.39 505.37 210.02 505.47 C 197.34 505.49 184.65 505.52 171.97 505.45 C 164.34 505.25 157.63 498.58 157.23 490.98 C 156.57 483.53 162.13 476.26 169.39 474.69 Z" />
<path fill="#000000" opacity="1.00" d=" M 280.39 474.61 C 293.57 474.09 306.81 474.53 320.01 474.39 C 328.69 474.12 336.41 482.34 335.52 491.01 C 335.20 498.95 327.92 505.61 320.02 505.48 C 308.01 505.51 296.00 505.47 283.99 505.49 C 278.19 505.73 272.40 502.52 269.61 497.41 C 264.22 488.65 270.38 476.19 280.39 474.61 Z" />
<path fill="#000000" opacity="1.00" d=" M 390.39 474.67 C 403.58 474.01 416.83 474.58 430.05 474.38 C 438.41 473.94 446.37 481.56 445.86 490.00 C 446.27 498.07 438.98 505.31 431.02 505.46 C 418.34 505.50 405.66 505.51 392.98 505.46 C 385.64 505.31 379.06 499.22 378.19 491.96 C 376.96 484.16 382.72 476.24 390.39 474.67 Z" />
<path fill="#000000" opacity="1.00" d=" M 170.30 548.18 C 171.50 547.94 172.71 547.82 173.94 547.82 C 213.98 547.83 254.02 547.83 294.06 547.82 C 299.28 547.76 304.71 549.83 307.86 554.15 C 312.76 560.43 311.69 570.46 305.41 575.44 C 302.28 578.08 298.10 579.20 294.06 579.17 C 254.02 579.15 213.98 579.15 173.94 579.17 C 167.77 579.32 161.34 576.08 158.78 570.27 C 154.03 561.43 160.34 549.36 170.30 548.18 Z" />
</g>
</svg>
