<?xml version="1.0" encoding="UTF-8" ?>
<!DOCTYPE svg PUBLIC "-//W3C//DTD SVG 1.1//EN" "http://www.w3.org/Graphics/SVG/1.1/DTD/svg11.dtd">
<svg width="708pt" height="700pt" viewBox="0 0 708 700" version="1.1" xmlns="http://www.w3.org/2000/svg">
<g id="#eaeaeaff">
</g>
<g id="#ffffffff">
<path fill="rgba(17,16,16,0.322)" opacity="1.00" d=" M 341.39 43.49 C 405.28 41.07 469.76 59.43 522.68 95.33 C 552.58 115.43 578.87 140.85 600.01 170.02 C 624.81 204.19 642.45 243.56 651.27 284.86 C 660.40 327.28 660.36 371.64 651.17 414.04 C 642.73 453.19 626.40 490.60 603.51 523.46 C 582.68 553.45 556.44 579.70 526.44 600.53 C 493.40 623.57 455.73 639.94 416.34 648.34 C 370.29 658.21 321.97 657.30 276.35 645.59 C 204.21 627.39 139.66 581.50 98.32 519.71 C 61.95 466.13 43.58 400.66 46.58 335.99 C 48.32 293.96 58.89 252.30 77.53 214.59 C 111.59 144.75 173.29 88.95 246.27 62.22 C 276.70 50.91 308.96 44.63 341.39 43.49 M 373.34 222.22 C 366.61 224.51 361.42 229.56 356.63 234.60 C 327.81 263.44 298.97 292.27 270.14 321.09 C 265.88 325.26 261.40 329.44 258.83 334.92 C 254.25 344.16 254.43 355.59 259.42 364.63 C 262.41 370.36 267.44 374.56 271.90 379.10 C 301.58 408.79 331.28 438.46 360.94 468.16 C 372.00 479.83 391.71 481.33 404.29 471.27 C 415.74 462.66 419.91 445.95 413.99 432.93 C 410.65 424.88 403.53 419.49 397.66 413.38 C 376.32 391.91 354.57 370.84 333.44 349.17 C 355.07 327.23 377.10 305.67 398.85 283.84 C 403.93 278.62 409.87 273.94 413.18 267.28 C 418.50 257.11 417.73 244.15 411.28 234.66 C 403.47 222.45 386.86 217.04 373.34 222.22 Z" />
</g>
</svg>
