<?xml version="1.0" encoding="UTF-8" ?>
<!DOCTYPE svg PUBLIC "-//W3C//DTD SVG 1.1//EN" "http://www.w3.org/Graphics/SVG/1.1/DTD/svg11.dtd">
<svg width="708pt" height="700pt" viewBox="0 0 708 700" version="1.1" xmlns="http://www.w3.org/2000/svg">
<g id="#eaeaeaff">
</g>
<g id="#ffffffff">
<path fill="#ffffff" opacity="1.00" d=" M 337.37 45.45 C 403.91 41.21 471.62 59.68 526.75 97.20 C 588.03 138.39 633.63 202.39 651.95 273.98 C 663.89 319.90 664.91 368.61 654.92 415.00 C 638.95 490.93 592.45 559.72 528.32 603.32 C 495.69 625.69 458.67 641.69 419.96 649.91 C 374.15 659.76 326.07 658.88 280.66 647.35 C 242.56 637.76 206.42 620.56 174.79 597.27 C 143.06 573.91 115.84 544.41 95.20 510.84 C 62.98 458.87 47.15 397.00 50.29 335.95 C 53.20 270.29 78.33 205.92 120.50 155.53 C 163.85 103.09 225.09 65.71 291.70 51.64 C 306.73 48.41 322.02 46.38 337.37 45.45 M 299.61 232.54 C 294.14 238.63 291.06 246.85 291.33 255.05 C 291.48 263.54 295.31 271.77 301.33 277.70 C 311.85 288.17 322.36 298.65 332.87 309.13 C 346.69 323.10 360.96 336.64 374.49 350.88 C 349.91 375.82 324.87 400.32 300.17 425.15 C 294.61 430.97 291.34 438.92 291.28 446.97 C 291.12 455.11 294.32 463.19 299.72 469.24 C 306.86 476.99 317.89 481.01 328.34 479.40 C 335.36 478.37 341.91 474.90 346.88 469.87 C 379.02 437.65 411.25 405.54 443.39 373.33 C 451.52 365.01 454.57 352.20 451.00 341.12 C 449.16 334.99 445.25 329.72 440.65 325.36 C 409.44 294.24 378.30 263.04 347.15 231.87 C 341.52 226.32 333.99 222.59 326.05 222.08 C 316.25 221.27 306.20 225.24 299.61 232.54 Z" />
</g>
</svg>
