<?xml version="1.0" encoding="UTF-8" ?>
<!DOCTYPE svg PUBLIC "-//W3C//DTD SVG 1.1//EN" "http://www.w3.org/Graphics/SVG/1.1/DTD/svg11.dtd">
<svg width="149pt" height="117pt" viewBox="0 0 149 117" version="1.1" xmlns="http://www.w3.org/2000/svg">
<g id="#000000ff">
</g>
<g id="#ffffffff">
<path fill="#ffffff" opacity="1.00" d=" M 22.21 10.28 C 56.48 9.94 90.77 10.24 125.05 10.13 C 132.69 9.61 139.84 16.23 139.75 23.92 C 139.79 46.95 139.76 69.99 139.76 93.03 C 140.03 100.48 133.51 107.30 126.03 107.22 C 92.01 107.26 57.99 107.25 23.97 107.22 C 16.48 107.36 9.87 100.56 10.13 93.10 C 10.12 70.02 10.10 46.94 10.14 23.86 C 10.13 17.18 15.57 11.05 22.21 10.28 M 17.57 24.04 C 34.49 35.25 51.35 46.56 68.24 57.80 C 72.21 60.35 77.74 60.35 81.69 57.76 C 98.57 46.53 115.41 35.24 132.31 24.04 C 131.95 20.39 128.75 17.29 124.96 17.74 C 91.31 17.77 57.65 17.70 23.99 17.77 C 20.51 17.70 17.97 20.79 17.57 24.04 M 17.73 33.25 C 17.73 53.19 17.71 73.13 17.74 93.07 C 17.56 96.52 20.61 99.70 24.08 99.62 C 57.72 99.68 91.37 99.62 125.01 99.65 C 128.72 100.04 132.31 96.90 132.15 93.12 C 132.19 73.16 132.16 53.21 132.17 33.25 C 116.79 43.49 101.43 53.73 86.07 63.99 C 79.59 68.39 70.44 68.43 63.94 64.06 C 48.54 53.79 33.14 43.51 17.73 33.25 Z" />
</g>
</svg>
