<?xml version="1.0" encoding="UTF-8" ?>
<!DOCTYPE svg PUBLIC "-//W3C//DTD SVG 1.1//EN" "http://www.w3.org/Graphics/SVG/1.1/DTD/svg11.dtd">
<svg width="887pt" height="732pt" viewBox="0 0 887 732" version="1.1" xmlns="http://www.w3.org/2000/svg">

<g id="#ffffffff">
<path fill="#ffffff" opacity="1.00" d=" M 25.00 41.99 C 30.51 33.82 40.19 28.78 50.03 28.77 C 89.69 28.77 129.34 28.75 169.00 28.78 C 182.78 28.79 195.54 39.28 198.28 52.77 C 206.59 94.12 214.83 135.50 223.13 176.86 C 382.74 176.86 542.36 176.85 701.98 176.87 C 710.82 176.96 719.48 181.12 725.16 187.88 C 730.89 194.83 733.29 204.34 731.61 213.19 C 716.06 294.82 700.51 376.45 684.97 458.08 C 681.10 482.81 666.52 505.77 645.38 519.28 C 631.63 528.20 615.48 533.61 599.05 534.02 C 500.70 534.00 402.35 534.01 304.01 534.02 C 284.39 533.63 265.09 526.41 249.77 514.21 C 237.20 503.98 227.32 490.40 221.79 475.14 C 218.76 467.18 217.47 458.74 215.77 450.45 C 191.68 330.19 167.64 209.92 143.51 89.67 C 112.34 89.71 81.17 89.69 50.01 89.69 C 39.57 89.69 29.35 83.96 24.03 74.97 C 17.85 65.03 18.25 51.55 25.00 41.99 M 235.33 237.79 C 249.47 308.50 263.65 379.21 277.82 449.91 C 280.19 463.08 292.67 473.28 306.04 473.11 C 402.36 473.10 498.68 473.09 594.99 473.08 C 602.00 473.09 609.07 470.95 614.58 466.55 C 619.66 462.35 623.23 456.38 624.50 449.91 C 637.96 379.21 651.42 308.50 664.89 237.80 C 521.70 237.78 378.51 237.79 235.33 237.79 Z" />
<path fill="#ffffff" opacity="1.00" d=" M 278.42 602.52 C 290.95 600.26 304.31 603.09 314.84 610.24 C 326.82 618.21 335.05 631.56 336.62 645.88 C 338.24 658.98 334.29 672.64 325.97 682.88 C 317.71 693.26 305.17 700.12 291.95 701.34 C 277.13 702.92 261.80 697.29 251.44 686.59 C 240.24 675.34 235.01 658.54 237.93 642.92 C 241.26 622.74 258.24 605.82 278.42 602.52 Z" />
<path fill="#ffffff" opacity="1.00" d=" M 603.49 602.65 C 616.27 600.15 629.96 602.98 640.74 610.27 C 652.74 618.22 661.09 631.53 662.70 645.87 C 664.32 658.78 660.44 672.22 652.33 682.37 C 644.44 692.42 632.63 699.30 619.97 701.06 C 606.63 703.08 592.56 699.29 582.01 690.90 C 571.55 682.73 564.55 670.26 563.21 657.05 C 561.70 643.93 565.78 630.30 574.19 620.13 C 581.52 611.12 592.06 604.78 603.49 602.65 Z" />
</g>
</svg>
