<?xml version="1.0" encoding="UTF-8" ?>
<!DOCTYPE svg PUBLIC "-//W3C//DTD SVG 1.1//EN" "http://www.w3.org/Graphics/SVG/1.1/DTD/svg11.dtd">
<svg width="177pt" height="179pt" viewBox="0 0 177 179" version="1.1" xmlns="http://www.w3.org/2000/svg">
<g id="#000000ff">
</g>
<g id="#FF9C00">
<path fill="#FF9C00" opacity="1.00" d=" M 42.55 12.69 C 45.66 12.09 48.84 11.96 52.01 11.99 C 77.36 12.05 102.71 11.94 128.06 12.04 C 147.50 12.37 164.71 29.54 165.09 48.98 C 165.17 75.64 165.17 102.30 165.09 128.96 C 164.71 148.38 147.51 165.53 128.10 165.87 C 105.43 165.99 82.76 165.89 60.09 165.92 C 52.41 165.84 44.47 166.56 37.14 163.77 C 22.29 158.69 11.31 143.88 11.25 128.10 C 11.24 101.73 11.19 75.35 11.27 48.98 C 11.69 31.57 25.46 15.76 42.55 12.69 M 43.39 25.66 C 32.49 28.27 24.18 38.72 24.08 49.93 C 24.02 74.97 24.09 100.01 24.05 125.05 C 23.97 128.34 24.20 131.66 25.17 134.82 C 28.25 145.53 38.90 153.32 50.03 153.08 C 76.03 153.05 102.03 153.17 128.02 153.03 C 141.01 152.61 152.26 140.99 152.29 127.99 C 152.34 103.66 152.28 79.34 152.31 55.01 C 152.42 50.24 152.32 45.30 150.38 40.85 C 146.71 31.45 137.04 24.89 126.96 24.85 C 102.97 24.81 78.98 24.85 55.00 24.83 C 51.12 24.82 47.18 24.64 43.39 25.66 Z" />
<path fill="#FF9C00" opacity="1.00" d=" M 127.21 38.05 C 134.05 35.67 141.46 43.08 139.10 49.92 C 137.45 56.72 127.81 59.33 123.12 54.03 C 117.82 49.35 120.42 39.72 127.21 38.05 Z" />
<path fill="#FF9C00" opacity="1.00" d=" M 78.55 51.71 C 88.63 49.08 99.80 50.73 108.57 56.40 C 116.75 61.49 122.89 69.77 125.37 79.08 C 128.19 89.54 126.34 101.21 120.20 110.17 C 113.27 120.84 100.74 127.61 88.00 127.44 C 73.29 127.55 59.20 118.27 53.19 104.90 C 48.82 95.47 48.55 84.23 52.51 74.61 C 56.97 63.46 66.91 54.70 78.55 51.71 M 83.55 63.77 C 72.00 65.67 62.84 76.35 62.55 88.03 C 61.93 100.15 71.06 111.86 83.02 114.04 C 95.64 117.03 109.45 108.58 112.78 96.10 C 115.47 87.31 112.81 77.20 106.24 70.80 C 100.43 64.95 91.65 62.16 83.55 63.77 Z" />
</g>
</svg>
