<?xml version="1.0" encoding="UTF-8" ?>
<!DOCTYPE svg PUBLIC "-//W3C//DTD SVG 1.1//EN" "http://www.w3.org/Graphics/SVG/1.1/DTD/svg11.dtd">
<svg width="779pt" height="706pt" viewBox="0 0 779 706" version="1.1" xmlns="http://www.w3.org/2000/svg">
<g id="#ffffffff">
</g>
<g id="#000000ff">
<path fill="#000000" opacity="1.00" d=" M 187.40 134.56 C 189.19 133.98 191.06 133.70 192.94 133.74 C 292.61 133.76 392.28 133.75 491.96 133.75 C 499.43 133.59 506.88 137.92 510.07 144.75 C 513.76 152.15 511.41 160.64 512.35 168.52 C 513.08 169.83 514.48 170.59 515.99 170.38 C 532.95 170.41 549.91 170.32 566.86 170.42 C 591.19 171.01 614.15 187.18 623.05 209.80 C 634.26 240.06 645.36 270.36 656.53 300.64 C 658.01 304.43 660.32 307.89 663.25 310.73 C 677.40 323.94 691.64 337.05 705.81 350.24 C 709.46 353.81 711.79 358.80 711.77 363.95 C 711.82 413.29 711.77 462.63 711.80 511.97 C 711.78 515.80 712.04 519.80 710.53 523.42 C 707.82 530.51 700.72 535.69 693.09 535.88 C 677.02 535.95 660.94 535.87 644.86 535.91 C 642.95 535.70 641.29 537.07 641.12 538.97 C 636.94 555.11 626.84 569.67 613.00 579.00 C 599.14 588.47 581.77 592.71 565.12 590.52 C 549.14 588.64 533.96 580.84 523.03 569.04 C 514.95 560.46 509.31 549.74 506.36 538.36 C 506.03 536.45 503.89 535.68 502.17 535.89 C 464.77 535.93 427.36 535.88 389.96 535.91 C 388.01 535.75 386.64 537.40 386.38 539.19 C 382.27 555.08 372.33 569.40 358.78 578.70 C 343.35 589.47 323.44 593.53 305.03 589.64 C 280.23 584.81 259.14 565.21 252.44 540.85 C 251.88 538.94 251.62 536.22 249.12 535.98 C 229.74 535.79 210.35 535.99 190.97 535.87 C 183.13 535.78 176.51 527.84 178.10 520.12 C 179.28 512.28 187.49 507.38 195.06 508.54 C 212.68 508.56 230.30 508.54 247.92 508.55 C 250.01 508.86 251.53 506.92 251.74 505.02 C 256.44 485.34 270.40 468.24 288.50 459.30 C 302.16 452.44 318.13 450.52 333.10 453.49 C 358.00 458.20 379.20 477.84 385.88 502.28 C 386.70 504.60 386.75 508.68 390.10 508.54 C 427.70 508.55 465.31 508.56 502.91 508.54 C 504.97 508.77 506.12 506.74 506.38 504.98 C 510.62 487.70 521.80 472.27 536.88 462.83 C 549.57 454.72 564.97 451.04 579.96 452.41 C 598.15 453.81 615.56 462.90 627.16 476.97 C 634.18 485.30 638.98 495.36 641.54 505.92 C 641.79 507.55 643.42 508.75 645.06 508.55 C 657.03 508.55 668.99 508.55 680.95 508.55 C 683.40 508.85 684.92 506.22 684.46 504.04 C 684.28 458.70 684.71 413.34 684.25 368.02 C 671.84 356.02 658.59 344.87 645.91 333.13 C 644.09 331.79 642.58 329.37 640.06 329.59 C 596.36 329.61 552.67 329.59 508.98 329.60 C 505.35 329.57 501.62 329.88 498.14 328.64 C 490.27 326.17 484.58 318.26 484.68 310.02 C 484.70 261.67 484.68 213.33 484.70 164.99 C 485.11 162.82 483.17 160.90 481.01 161.27 C 384.68 161.27 288.35 161.26 192.02 161.27 C 184.00 161.65 176.69 153.88 178.02 145.88 C 178.70 140.73 182.49 136.19 187.40 134.56 M 513.38 198.44 C 511.55 199.71 512.32 202.16 512.15 204.02 C 512.20 235.68 512.15 267.35 512.18 299.01 C 511.98 301.01 514.02 302.62 515.94 302.25 C 551.66 302.25 587.38 302.26 623.11 302.25 C 625.23 302.62 627.45 300.31 626.59 298.22 C 617.38 273.23 608.06 248.27 598.86 223.27 C 597.37 219.07 595.47 214.94 592.65 211.45 C 586.16 202.99 575.67 197.89 565.03 197.73 C 549.35 197.71 533.68 197.76 518.01 197.71 C 516.49 197.89 514.59 197.27 513.38 198.44 M 312.24 480.11 C 293.42 482.86 278.00 499.93 277.21 518.94 C 276.17 532.80 282.71 546.91 293.86 555.17 C 303.46 562.51 316.37 565.39 328.16 562.66 C 338.89 560.40 348.50 553.60 354.47 544.43 C 360.11 535.79 362.43 525.00 360.67 514.82 C 358.94 503.39 352.06 492.93 342.45 486.57 C 333.68 480.73 322.63 478.24 312.24 480.11 M 563.51 480.83 C 547.90 484.58 535.20 498.09 532.48 513.93 C 529.69 527.89 534.81 543.06 545.38 552.58 C 554.95 561.52 568.89 565.51 581.74 562.88 C 592.24 560.94 601.87 554.73 608.03 546.01 C 614.86 536.59 617.45 524.23 614.98 512.86 C 612.74 501.84 605.75 491.93 596.23 485.97 C 586.64 479.90 574.51 477.90 563.51 480.83 Z" />
<path fill="#000000" opacity="1.00" d=" M 115.41 228.58 C 118.81 227.40 122.46 227.84 125.99 227.78 C 187.34 227.78 248.69 227.77 310.04 227.78 C 318.32 227.46 325.63 235.76 323.87 243.94 C 322.83 250.46 316.56 255.53 309.98 255.30 C 246.65 255.29 183.33 255.30 120.00 255.30 C 112.88 255.45 106.18 249.26 106.19 242.05 C 105.77 236.14 109.85 230.43 115.41 228.58 Z" />
<path fill="#000000" opacity="1.00" d=" M 40.28 321.33 C 130.22 321.10 220.18 321.30 310.13 321.23 C 316.20 320.92 321.97 325.29 323.56 331.12 C 326.29 339.26 319.35 348.55 310.83 348.57 C 221.22 348.61 131.61 348.58 42.01 348.59 C 35.13 348.70 28.71 342.94 28.33 336.03 C 27.51 328.98 33.21 321.92 40.28 321.33 Z" />
<path fill="#000000" opacity="1.00" d=" M 83.31 415.15 C 84.83 414.63 86.44 414.56 88.03 414.54 C 126.66 414.57 165.30 414.54 203.94 414.56 C 211.17 414.30 217.75 420.77 217.65 427.99 C 218.04 435.35 211.41 442.00 204.10 441.91 C 165.39 441.94 126.68 441.91 87.97 441.93 C 81.73 442.24 75.67 437.80 74.12 431.75 C 72.06 424.92 76.47 417.06 83.31 415.15 Z" />
</g>
</svg>
