<?xml version="1.0" encoding="UTF-8" ?>
<!DOCTYPE svg PUBLIC "-//W3C//DTD SVG 1.1//EN" "http://www.w3.org/Graphics/SVG/1.1/DTD/svg11.dtd">
<svg width="679pt" height="604pt" viewBox="0 0 679 604" version="1.1" xmlns="http://www.w3.org/2000/svg">
<g id="#0060eaff">
</g>
<g id="#FF9C00">
<path fill="#FF9C00" opacity="1.00" d=" M 73.19 59.23 C 246.79 59.01 420.40 59.20 594.01 59.14 C 600.68 59.22 607.43 58.76 614.03 60.04 C 628.41 62.57 641.58 71.14 649.77 83.22 C 657.91 95.00 661.14 110.04 658.56 124.13 C 655.89 139.62 646.18 153.69 632.69 161.74 C 624.11 166.96 614.09 169.68 604.06 169.69 C 428.03 169.69 252.01 169.70 75.98 169.68 C 63.30 169.62 50.69 165.08 40.97 156.94 C 29.93 147.84 22.66 134.30 21.29 120.04 C 19.70 105.39 24.37 90.20 33.89 78.95 C 43.53 67.32 58.10 60.00 73.19 59.23 Z" />
<path fill="#FF9C00" opacity="1.00" d=" M 66.48 247.67 C 69.29 247.24 72.13 247.01 74.98 246.99 C 250.99 246.98 426.99 246.99 603.00 246.98 C 615.53 246.96 628.02 251.33 637.74 259.24 C 648.93 268.20 656.40 281.66 657.96 295.92 C 659.92 311.90 654.35 328.57 643.23 340.20 C 632.95 351.18 618.05 357.59 603.01 357.53 C 426.99 357.53 250.97 357.54 74.94 357.53 C 59.46 357.53 44.16 350.64 33.92 339.04 C 22.57 326.50 17.60 308.57 20.85 291.98 C 24.78 269.55 43.96 250.94 66.48 247.67 Z" />
<path fill="#FF9C00" opacity="1.00" d=" M 64.49 435.71 C 67.94 435.04 71.45 434.69 74.97 434.67 C 247.63 434.66 420.30 434.66 592.96 434.66 C 600.04 434.73 607.21 434.27 614.19 435.81 C 628.47 438.66 641.39 447.50 649.32 459.71 C 657.65 472.29 660.39 488.37 656.76 503.01 C 652.99 518.93 641.69 532.80 626.92 539.79 C 619.48 543.37 611.23 545.18 602.99 545.21 C 427.00 545.21 251.02 545.22 75.04 545.21 C 59.38 545.24 43.91 538.22 33.64 526.41 C 22.52 513.93 17.66 496.24 20.82 479.84 C 24.58 458.04 42.73 439.70 64.49 435.71 Z" />
</g>
</svg>
