<?xml version="1.0" encoding="UTF-8" ?>
<!DOCTYPE svg PUBLIC "-//W3C//DTD SVG 1.1//EN" "http://www.w3.org/Graphics/SVG/1.1/DTD/svg11.dtd">
<svg width="184pt" height="173pt" viewBox="0 0 184 173" version="1.1" xmlns="http://www.w3.org/2000/svg">
<g id="#000000ff">
</g>
<g id="#FF9C00">
<path fill="#FF9C00" opacity="1.00" d=" M 46.01 27.83 C 57.25 18.44 71.36 12.51 85.95 11.13 C 104.81 9.17 124.35 14.89 139.13 26.78 C 152.65 37.42 162.27 52.95 165.65 69.84 C 168.87 85.31 166.92 101.80 160.19 116.10 C 152.32 132.98 137.86 146.64 120.55 153.51 C 100.40 161.75 76.79 160.10 57.70 149.79 C 44.67 153.25 31.62 156.65 18.57 160.07 C 22.06 147.29 25.58 134.52 29.06 121.74 C 20.24 106.25 17.02 87.57 20.69 70.08 C 23.95 53.64 33.10 38.50 46.01 27.83 M 54.24 37.23 C 41.94 47.25 33.75 62.17 32.09 77.96 C 30.36 92.58 34.36 107.63 42.55 119.80 C 40.48 127.37 38.40 134.93 36.34 142.49 C 44.11 140.47 51.87 138.39 59.65 136.40 C 71.55 143.96 86.04 147.56 100.08 145.88 C 115.82 144.19 130.71 136.02 140.70 123.74 C 151.35 110.92 156.36 93.61 154.18 77.09 C 152.34 61.54 144.16 46.89 131.99 37.07 C 122.90 29.59 111.60 24.85 99.89 23.64 C 83.67 21.76 66.81 26.81 54.24 37.23 Z" />
<path fill="#FF9C00" opacity="1.00" d=" M 63.46 51.70 C 65.93 50.13 69.01 50.48 71.77 50.75 C 74.00 51.18 74.54 53.72 75.39 55.47 C 77.09 60.02 79.30 64.38 80.84 68.99 C 80.58 73.40 75.39 75.72 74.69 79.92 C 80.39 90.81 90.31 99.35 101.90 103.45 C 106.62 102.26 107.86 96.11 111.86 93.79 C 117.89 95.02 123.24 98.68 128.83 101.21 C 131.80 102.20 130.46 105.73 130.28 108.00 C 129.80 112.64 126.11 115.97 122.17 117.98 C 117.14 120.91 110.92 120.80 105.45 119.31 C 98.75 117.22 92.12 114.64 86.27 110.71 C 76.52 104.32 68.64 95.47 62.06 85.94 C 59.44 81.61 56.82 77.10 55.96 72.04 C 54.44 64.56 57.45 56.40 63.46 51.70 Z" />
</g>
</svg>
