<?xml version="1.0" encoding="UTF-8" ?>
<!DOCTYPE svg PUBLIC "-//W3C//DTD SVG 1.1//EN" "http://www.w3.org/Graphics/SVG/1.1/DTD/svg11.dtd">
<svg width="779pt" height="706pt" viewBox="0 0 779 706" version="1.1" xmlns="http://www.w3.org/2000/svg">
<g id="#ffffffff">
</g>
<g id="#000000ff">
<path fill="#000000" opacity="1.00" d=" M 206.76 148.76 C 260.04 102.92 332.22 80.40 402.11 86.40 C 443.63 89.83 484.23 103.40 519.58 125.43 C 522.78 127.31 525.70 129.65 529.06 131.25 C 531.01 131.90 532.54 129.93 533.57 128.56 C 538.10 122.08 542.57 115.55 547.08 109.05 C 548.71 106.75 550.11 104.20 552.37 102.44 C 554.32 101.52 555.02 104.16 555.58 105.52 C 562.14 128.40 568.25 151.41 574.78 174.30 C 575.61 177.03 576.23 179.95 575.62 182.80 C 574.71 186.24 571.25 188.40 567.83 188.59 C 543.22 190.88 518.59 193.02 493.97 195.29 C 492.23 195.60 490.59 194.91 489.06 194.18 C 489.75 192.54 490.45 190.88 491.47 189.41 C 496.97 181.29 502.76 173.36 508.15 165.17 C 509.36 163.50 508.54 161.14 506.83 160.17 C 472.60 137.31 432.11 123.94 390.98 121.95 C 336.92 119.07 282.03 136.07 239.11 169.10 C 194.23 203.35 162.68 254.62 152.68 310.21 C 147.32 339.81 147.81 370.45 154.08 399.87 C 163.35 444.00 185.80 485.37 218.32 516.68 C 250.87 548.68 293.19 570.54 338.10 578.65 C 346.81 579.92 353.72 588.23 353.32 597.03 C 353.21 606.88 343.83 615.47 333.96 614.41 C 260.50 602.30 193.45 557.13 153.88 494.15 C 125.58 449.38 111.19 395.93 113.03 343.02 C 114.85 268.83 150.32 196.69 206.76 148.76 Z" />
<path fill="#000000" opacity="1.00" d=" M 357.86 182.78 C 363.70 178.29 373.02 179.71 377.16 185.84 C 379.98 189.25 379.92 193.83 379.80 198.01 C 379.78 247.69 379.78 297.38 379.80 347.06 C 379.65 348.66 380.56 350.23 381.95 351.01 C 428.96 375.35 476.01 399.62 523.02 423.98 C 528.73 426.76 531.74 433.77 530.00 439.85 C 528.05 448.04 517.78 452.70 510.36 448.60 C 457.62 421.37 404.91 394.09 352.17 366.85 C 352.14 309.56 352.18 252.26 352.15 194.97 C 351.90 190.28 353.96 185.48 357.86 182.78 Z" />
<path fill="#000000" opacity="1.00" d=" M 604.41 242.60 C 610.99 240.31 618.75 242.46 623.38 247.64 C 626.53 251.33 627.83 256.11 629.58 260.54 C 630.94 264.65 632.74 268.69 633.20 273.03 C 633.49 279.52 630.01 286.11 624.37 289.39 C 617.57 293.62 607.91 292.45 602.40 286.61 C 597.70 282.04 597.05 275.18 594.42 269.47 C 591.60 263.61 590.99 256.23 594.51 250.53 C 596.66 246.76 600.28 243.92 604.41 242.60 Z" />
<path fill="#000000" opacity="1.00" d=" M 622.29 325.10 C 630.42 322.40 640.11 326.48 643.71 334.28 C 645.99 338.48 645.55 343.38 645.71 347.99 C 645.69 352.13 645.89 356.30 645.44 360.43 C 644.02 370.08 633.69 377.33 624.14 375.08 C 616.16 373.54 609.95 366.14 609.74 358.03 C 609.75 352.68 609.71 347.34 609.60 341.99 C 609.58 334.37 615.02 327.26 622.29 325.10 Z" />
<path fill="#000000" opacity="1.00" d=" M 612.35 408.44 C 616.80 407.71 621.67 407.95 625.56 410.49 C 632.44 414.34 635.95 423.13 633.79 430.69 C 632.09 436.27 630.23 441.81 628.08 447.24 C 624.85 455.19 615.37 460.17 607.04 457.75 C 598.81 455.81 592.70 447.42 593.49 438.98 C 594.28 432.94 597.38 427.51 598.91 421.64 C 600.59 415.24 605.81 409.85 612.35 408.44 Z" />
<path fill="#000000" opacity="1.00" d=" M 573.43 483.70 C 582.68 481.12 593.02 487.17 595.34 496.46 C 596.90 502.33 595.30 508.76 591.34 513.34 C 587.60 517.91 584.27 522.90 579.91 526.91 C 574.12 531.78 565.13 532.32 558.80 528.18 C 553.11 524.61 549.83 517.64 550.61 510.98 C 551.03 506.29 553.73 502.24 556.85 498.87 C 561.74 493.25 565.55 485.54 573.43 483.70 Z" />
<path fill="#000000" opacity="1.00" d=" M 512.35 541.52 C 518.88 539.91 526.13 542.45 530.40 547.60 C 535.04 553.23 535.89 561.74 532.06 568.02 C 529.51 572.80 524.47 575.24 520.15 578.10 C 514.60 581.46 508.84 585.81 501.93 584.85 C 490.19 584.46 481.95 570.51 487.01 559.96 C 489.31 553.80 495.48 550.86 500.77 547.74 C 504.52 545.50 507.97 542.47 512.35 541.52 Z" />
<path fill="#000000" opacity="1.00" d=" M 433.54 575.79 C 438.24 574.75 443.52 574.67 447.80 577.20 C 452.91 579.93 456.43 585.29 457.07 591.03 C 458.06 598.89 453.17 606.98 445.74 609.74 C 439.98 611.64 433.97 612.63 428.04 613.86 C 419.33 615.98 409.79 610.16 407.20 601.68 C 404.32 593.10 409.03 582.84 417.52 579.60 C 422.69 577.72 428.26 577.35 433.54 575.79 Z" />
</g>
</svg>
