<?xml version="1.0" encoding="UTF-8" ?>
<!DOCTYPE svg PUBLIC "-//W3C//DTD SVG 1.1//EN" "http://www.w3.org/Graphics/SVG/1.1/DTD/svg11.dtd">
<svg width="188pt" height="178pt" viewBox="0 0 188 178" version="1.1" xmlns="http://www.w3.org/2000/svg">
<g id="#000000ff">
</g>
<g id="#ffffffff">
<path fill="#ffffff" opacity="1.00" d=" M 35.48 12.78 C 43.95 10.25 53.68 15.27 56.69 23.54 C 59.29 29.98 57.55 37.79 52.63 42.65 C 47.95 47.47 40.40 49.28 34.10 46.84 C 26.21 44.10 21.06 35.32 22.55 27.10 C 23.56 20.34 28.85 14.48 35.48 12.78 Z" />
<path fill="#ffffff" opacity="1.00" d=" M 104.23 75.30 C 109.53 66.14 119.40 60.08 129.92 59.26 C 141.12 58.41 153.98 60.43 161.59 69.50 C 169.04 78.52 170.12 90.77 170.60 102.00 C 170.71 121.44 170.63 140.88 170.64 160.32 C 160.38 160.31 150.12 160.32 139.87 160.31 C 139.81 142.55 139.96 124.78 139.79 107.02 C 139.53 100.12 138.68 91.61 132.01 87.81 C 124.91 84.41 114.92 85.46 109.94 92.00 C 106.40 96.89 105.86 103.17 105.59 109.01 C 105.53 126.17 105.59 143.34 105.56 160.50 C 95.30 160.50 85.04 160.50 74.78 160.49 C 74.77 127.49 74.78 94.48 74.78 61.47 C 84.60 61.46 94.43 61.46 104.26 61.47 C 104.26 66.08 104.28 70.69 104.23 75.30 Z" />
<path fill="#ffffff" opacity="1.00" d=" M 25.00 61.00 C 35.33 61.00 45.67 61.00 56.00 61.00 C 56.00 94.33 56.00 127.67 56.00 161.00 C 45.67 161.00 35.33 161.00 25.00 161.00 C 25.00 127.67 25.00 94.33 25.00 61.00 Z" />
</g>
</svg>
