<svg xmlns="http://www.w3.org/2000/svg" viewBox="0 0 41.78 42.35"><defs><style>.cls-1{fill:#fff;stroke:#fff;stroke-miterlimit:10;stroke-width:1.5px;}</style></defs><g id="Cantidad_de_productos_según_múltiplo" data-name="Cantidad de productos según múltiplo"><path class="cls-1" d="M16.29,40.79H3.13A1.83,1.83,0,0,1,1.31,39V26.28a1.83,1.83,0,0,1,1.82-1.83H16.29a1.83,1.83,0,0,1,1.83,1.83V39A1.83,1.83,0,0,1,16.29,40.79ZM3.13,25.89a.39.39,0,0,0-.38.39V39a.38.38,0,0,0,.38.38H16.29a.38.38,0,0,0,.39-.38V26.28a.39.39,0,0,0-.39-.39Z"/><path class="cls-1" d="M38.65,40.79H25.49A1.83,1.83,0,0,1,23.66,39V26.28a1.83,1.83,0,0,1,1.83-1.83H38.65a1.83,1.83,0,0,1,1.82,1.83V39A1.83,1.83,0,0,1,38.65,40.79ZM25.49,25.89a.39.39,0,0,0-.39.39V39a.38.38,0,0,0,.39.38H38.65A.38.38,0,0,0,39,39V26.28a.39.39,0,0,0-.38-.39Z"/><path class="cls-1" d="M16.29,17.9H3.13a1.83,1.83,0,0,1-1.82-1.83V3.38A1.83,1.83,0,0,1,3.13,1.56H16.29a1.83,1.83,0,0,1,1.83,1.82V16.07A1.83,1.83,0,0,1,16.29,17.9ZM3.13,3a.38.38,0,0,0-.38.38V16.07a.39.39,0,0,0,.38.39H16.29a.39.39,0,0,0,.39-.39V3.38A.38.38,0,0,0,16.29,3Z"/><path class="cls-1" d="M38.73,17.9H26.13a1.8,1.8,0,0,1-1.75-1.83V3.38a1.79,1.79,0,0,1,1.75-1.82h12.6a1.79,1.79,0,0,1,1.74,1.82V16.07A1.79,1.79,0,0,1,38.73,17.9ZM26.13,3a.38.38,0,0,0-.37.38V16.07a.39.39,0,0,0,.37.39h12.6a.38.38,0,0,0,.36-.39V3.38A.37.37,0,0,0,38.73,3Z"/></g></svg>