<svg id="Capa_1" data-name="Capa 1" xmlns="http://www.w3.org/2000/svg" viewBox="0 0 46 46"><defs><style>.cls-1{fill:#106de1;}.cls-2{fill:#faf7f7;}</style></defs><path class="cls-1" d="M46,23A23,23,0,1,1,23,0,23,23,0,0,1,46,23"/><path class="cls-2" d="M25.91,28.38a9.5,9.5,0,1,1,2.47-2.44,6.27,6.27,0,0,1,.53.43q2.73,2.72,5.44,5.44a1.8,1.8,0,0,1,.22,2.57,1.77,1.77,0,0,1-2.44.27,4.06,4.06,0,0,1-.48-.45q-2.71-2.7-5.41-5.41a4.54,4.54,0,0,1-.33-.41M20.5,14.25a6.26,6.26,0,1,0,6.25,6.27,6.24,6.24,0,0,0-6.25-6.27"/></svg>