<svg id="Capa_1" data-name="Capa 1" xmlns="http://www.w3.org/2000/svg" xmlns:xlink="http://www.w3.org/1999/xlink" viewBox="0 0 605.38 236.05"><defs><style>.cls-1{fill:url(#Degradado_sin_nombre_25);}.cls-2{fill:url(#Degradado_sin_nombre_6);}.cls-3{fill:#092ddb;}.cls-4{fill:url(#Degradado_sin_nombre_8);}.cls-5{fill:url(#Degradado_sin_nombre_8-2);}.cls-6{fill:url(#Degradado_sin_nombre_16);}.cls-7{fill:url(#Degradado_sin_nombre_10);}.cls-8{fill:url(#Degradado_sin_nombre_18);}.cls-9{fill:#0065eb;}.cls-10{fill:#1777ec;}</style><linearGradient id="Degradado_sin_nombre_25" x1="34.02" y1="118.03" x2="149.44" y2="118.03" gradientUnits="userSpaceOnUse"><stop offset="0" stop-color="#0269eb"/><stop offset="0.44" stop-color="#0164e5"/><stop offset="1" stop-color="#0055d5"/></linearGradient><linearGradient id="Degradado_sin_nombre_6" y1="118.03" x2="68.05" y2="118.03" gradientUnits="userSpaceOnUse"><stop offset="0" stop-color="#1a7aed"/><stop offset="0.55" stop-color="#0058dc"/><stop offset="1" stop-color="#092ddb"/></linearGradient><linearGradient id="Degradado_sin_nombre_8" x1="85.66" y1="64.28" x2="85.66" y2="189.56" gradientUnits="userSpaceOnUse"><stop offset="0" stop-color="#1a7aed"/><stop offset="1" stop-color="#0058dc"/></linearGradient><linearGradient id="Degradado_sin_nombre_8-2" x1="273.83" y1="197.62" x2="273.83" y2="199.2" xlink:href="#Degradado_sin_nombre_8"/><linearGradient id="Degradado_sin_nombre_16" x1="94.83" y1="71.78" x2="94.83" y2="229.06" gradientUnits="userSpaceOnUse"><stop offset="0" stop-color="#0060ea"/><stop offset="1" stop-color="#0b6eec"/></linearGradient><linearGradient id="Degradado_sin_nombre_10" x1="70.86" y1="79.73" x2="70.86" y2="232.9" gradientUnits="userSpaceOnUse"><stop offset="0" stop-color="#005deb"/><stop offset="1" stop-color="#1d7ded"/></linearGradient><linearGradient id="Degradado_sin_nombre_18" x1="61.65" y1="112.99" x2="61.65" y2="199.29" gradientUnits="userSpaceOnUse"><stop offset="0" stop-color="#1575ed"/><stop offset="1" stop-color="#0060eb"/></linearGradient></defs><path class="cls-1" d="M149.44,118c0,63.37-48.74,115.09-109.94,118A5.32,5.32,0,0,1,34,230.66v-56a3,3,0,0,1,2.8-3c27.67-1.49,49.67-24.94,49.67-53.63s-22-52.14-49.67-53.63a3,3,0,0,1-2.8-3v-56A5.31,5.31,0,0,1,39.5,0C100.7,2.94,149.44,54.66,149.44,118Z"/><rect x="289.53" y="71.08" width="24.52" height="94.48"/><path d="M420.59,165.56H396.75l-20.71-49-20.7,49H331.49l43.91-96a.71.71,0,0,1,1.29,0Z"/><path d="M605.38,165.56H581.54l-20.71-49-20.7,49H516.28l43.91-96a.71.71,0,0,1,1.29,0Z"/><path d="M500.07,82.29c-7.53-7.61-16.88-12.67-29.18-12.35-21.47.54-31.61,10.61-33,25.82-1.28,14.34,5.92,23.81,17.63,28.78,4.73,2,14.51,5.12,19.3,6.94,5.15,2,6.23,5.74,5.64,9.1-.75,3.35-4.51,5.42-11.65,5.43-7.46,0-14-3.53-19.06-10.21l-17.84,13.72c7.81,10.6,19.61,17.57,38.31,17.45,18.34-.12,31.15-6.6,34.25-22.93,3.26-17.2-3.78-28-18.92-33.49l-19-6.94c-3.91-1.59-6-4.59-4.36-8.94,1.47-3.78,7.23-4.5,12.39-3.75,4.7.68,8.35,3.35,11.22,6.73Z"/><path d="M224,71.08H187.27v94.48H224c22.71,0,45.84-15.89,45.84-47.24C269.88,91.12,251.08,71.08,224,71.08Zm-2.19,73.09H211.9V92.25h9.95c12.07,0,22.47,9.25,22.57,26.07C244.52,135.39,233.74,144.17,221.85,144.17Z"/><ellipse class="cls-2" cx="34.02" cy="118.03" rx="34.02" ry="34.83"/><path class="cls-3" d="M135.17,167.82c0,2.57-.08,5.12-.28,7.65h0c-.41.76-.83,1.51-1.26,2.26s-.86,1.5-1.31,2.23l-.57.94q-.48.78-1,1.53l-.68,1.05c-.18.28-.36.55-.55.82C109.77,214.17,77,234.26,39.5,236.05A5.32,5.32,0,0,1,34,230.67v-56a3,3,0,0,1,2.8-3c27.68-1.49,49.68-24.94,49.68-53.62,0-26.31-18.48-48.2-42.87-52.82h0c-1.1-.21-2.23-.38-3.36-.52-.47-.06-1-.11-1.45-.15s-1.31-.12-2-.15a1.86,1.86,0,0,1-.33,0,1.67,1.67,0,0,1-.3-.08C91.05,65.46,135.17,111.37,135.17,167.82Z"/><path class="cls-4" d="M135.18,167.81c0,2.58-.09,5.14-.29,7.67-1.64,3-3.42,6-5.32,8.85a106.87,106.87,0,0,0,1.28-16.52c0-52.36-38-95.65-87.25-102.58a48.78,48.78,0,0,0-4.87-.69c-.64-.05-1.27-.12-1.91-.14a3,3,0,0,1-.68-.12C91,65.45,135.18,111.37,135.18,167.81Z"/><path class="cls-3" d="M130.65,184.31c.42-.61.82-1.24,1.22-1.87-.4.64-.81,1.27-1.22,1.89Z"/><path class="cls-5" d="M274.32,197.62c-.32.51-.66,1-1,1.51v0C273.67,198.62,274,198.12,274.32,197.62Z"/><path class="cls-6" d="M128.15,171.47a110,110,0,0,1-1.29,16.75,116,116,0,0,1-53.7,41,91.77,91.77,0,0,0,38.43-75.05c0-36.06-20.41-67.22-50.07-82C100.49,87.48,128.15,126.17,128.15,171.47Z"/><path class="cls-7" d="M107.7,153.27a90.62,90.62,0,0,1-46.5,79.6,111.79,111.79,0,0,1-21.7,3.18A5.32,5.32,0,0,1,34,230.66V213.91C67.8,205.25,92.8,174,92.8,136.68a80.69,80.69,0,0,0-11-40.91A53.26,53.26,0,0,0,71,80,90.86,90.86,0,0,1,107.7,153.27Z"/><path class="cls-8" d="M89.29,133.08c0,35.28-23.46,64.94-55.27,73.53V174.69a3,3,0,0,1,2.8-3c27.67-1.48,49.67-24.93,49.67-53.62a54.93,54.93,0,0,0-.5-7.42A77.78,77.78,0,0,1,89.29,133.08Z"/><path class="cls-9" d="M92.8,136.68c0,37.28-25,68.57-58.78,77.23V211c32.75-8.76,56.92-39.25,56.92-75.53a79.58,79.58,0,0,0-6-30.43,54.27,54.27,0,0,0-3.17-9.28A80.69,80.69,0,0,1,92.8,136.68Z"/><path class="cls-10" d="M64.8,118A31.52,31.52,0,0,1,47,146.62,31.65,31.65,0,0,0,60.52,120.5C60.52,103.1,46.74,89,29.75,89a29.91,29.91,0,0,0-12.91,2.91A30.12,30.12,0,0,1,34,86.52C51,86.52,64.8,100.62,64.8,118Z"/></svg>