<svg id="Capa_1" data-name="Capa 1" xmlns="http://www.w3.org/2000/svg" viewBox="0 0 39.16 39.24"><defs><style>.cls-1{fill:#FF9C00;stroke:#FF9C00;stroke-miterlimit:10;}</style></defs><path class="cls-1" d="M15.19,38.36H2.62A1.75,1.75,0,0,1,.87,36.62V24.49a1.75,1.75,0,0,1,1.75-1.74H15.19a1.75,1.75,0,0,1,1.75,1.74V36.62A1.75,1.75,0,0,1,15.19,38.36ZM2.62,24.13a.36.36,0,0,0-.37.36V36.62a.36.36,0,0,0,.37.36H15.19a.37.37,0,0,0,.37-.36V24.49a.37.37,0,0,0-.37-.36Z"/><path class="cls-1" d="M36.55,38.36H24a1.74,1.74,0,0,1-1.74-1.74V24.49A1.74,1.74,0,0,1,24,22.75H36.55a1.74,1.74,0,0,1,1.74,1.74V36.62A1.74,1.74,0,0,1,36.55,38.36ZM24,24.13a.36.36,0,0,0-.36.36V36.62A.36.36,0,0,0,24,37H36.55a.36.36,0,0,0,.36-.36V24.49a.36.36,0,0,0-.36-.36Z"/><path class="cls-1" d="M15.19,16.49H2.62A1.76,1.76,0,0,1,.87,14.74V2.62A1.76,1.76,0,0,1,2.62.87H15.19a1.76,1.76,0,0,1,1.75,1.75V14.74A1.76,1.76,0,0,1,15.19,16.49ZM2.62,2.25a.37.37,0,0,0-.37.37V14.74a.36.36,0,0,0,.37.37H15.19a.37.37,0,0,0,.37-.37V2.62a.38.38,0,0,0-.37-.37Z"/><path class="cls-1" d="M36.62,16.49h-12a1.72,1.72,0,0,1-1.67-1.75V2.62A1.72,1.72,0,0,1,24.59.87h12a1.72,1.72,0,0,1,1.67,1.75V14.74A1.72,1.72,0,0,1,36.62,16.49Zm-12-14.24a.36.36,0,0,0-.35.37V14.74a.35.35,0,0,0,.35.37h12a.35.35,0,0,0,.35-.37V2.62a.36.36,0,0,0-.35-.37Z"/></svg>