<svg xmlns="http://www.w3.org/2000/svg" viewBox="0 0 74.28 56.84"><defs><style>.cls-1{fill:#0060ea;}</style></defs><g id="Textos_y_Cajas_de_Texto" data-name="Textos y Cajas de Texto"><path class="cls-1" d="M69.34,11.46H52.26V5a5,5,0,0,0-5-5H27a5,5,0,0,0-5,5v6.47H4.94A5,5,0,0,0,0,16.41v6.92a2.22,2.22,0,0,0,2.22,2.22h.33V51.89a5,5,0,0,0,4.94,5h59.3a5,5,0,0,0,4.94-5V25.55h.33a2.22,2.22,0,0,0,2.22-2.22V16.41A5,5,0,0,0,69.34,11.46ZM24.2,5A2.81,2.81,0,0,1,27,2.18H47.26A2.81,2.81,0,0,1,50.08,5v6.47H48.5V5a1.24,1.24,0,0,0-1.24-1.23H27A1.24,1.24,0,0,0,25.78,5v6.47H24.2Zm22.12,1v5.52H28V5.94Zm23.24,46h0a2.77,2.77,0,0,1-2.77,2.77H7.49a2.77,2.77,0,0,1-2.77-2.77V25.55h8.91V29.9a2.69,2.69,0,0,0,2.68,2.68H21a2.68,2.68,0,0,0,2.68-2.68V25.55h26.9V29.9a2.68,2.68,0,0,0,2.68,2.68H58a2.68,2.68,0,0,0,2.68-2.68V25.55h8.91Zm-53.75-22V21.27a.51.51,0,0,1,.5-.51H21a.51.51,0,0,1,.51.51V29.9a.51.51,0,0,1-.51.51h-4.7A.51.51,0,0,1,15.81,29.9Zm36.95,0V21.27a.51.51,0,0,1,.51-.51H58a.5.5,0,0,1,.5.51V29.9a.5.5,0,0,1-.5.51h-4.7A.51.51,0,0,1,52.76,29.9ZM72.1,23.33a0,0,0,0,1,0,0H60.65v-2.1A2.68,2.68,0,0,0,58,18.59h-4.7a2.68,2.68,0,0,0-2.68,2.68v2.1H23.69v-2.1A2.68,2.68,0,0,0,21,18.59h-4.7a2.69,2.69,0,0,0-2.68,2.68v2.1H2.22a0,0,0,0,1,0,0V16.41a2.77,2.77,0,0,1,2.76-2.77h64.4a2.77,2.77,0,0,1,2.76,2.77Z"/></g></svg>