<svg xmlns="http://www.w3.org/2000/svg" viewBox="0 0 36 23"><defs><style>.cls-1{fill:#972dea;}.cls-2{fill:#fff;}</style></defs><g id="Productos"><rect class="cls-1" width="36" height="23" rx="7.36"/><path class="cls-2" d="M24.86,7h-2a2.5,2.5,0,0,0-2-4,2.26,2.26,0,0,0-1.93.94,9.8,9.8,0,0,0-1.07,2.22,9.8,9.8,0,0,0-1.07-2.22A2.26,2.26,0,0,0,14.82,3a2.5,2.5,0,0,0-2,4h-2a1.5,1.5,0,0,0-1.5,1.5v1a1.52,1.52,0,0,0,1,1.42v7.65a1.5,1.5,0,0,0,1.5,1.5H23.85a1.51,1.51,0,0,0,1.51-1.5V10.92a1.52,1.52,0,0,0,1-1.42v-1A1.5,1.5,0,0,0,24.86,7Zm-6.12-.44C19.5,4.62,19.8,4,20.82,4a1.5,1.5,0,0,1,0,3H18.56ZM14.82,4c1,0,1.32.62,2.08,2.56l.18.44H14.82a1.5,1.5,0,0,1,0-3Zm1,15.07h-4a.5.5,0,0,1-.5-.5V11h4.54Zm0-9.07h-5a.5.5,0,0,1-.5-.5v-1a.51.51,0,0,1,.5-.5h5Zm3,9.07h-2V8h2Zm5.54-.5a.5.5,0,0,1-.51.5h-4V11h4.54Zm1-9.07a.5.5,0,0,1-.5.5h-5V8h5a.51.51,0,0,1,.5.5Z"/></g></svg>