<svg id="Capa_1" data-name="Capa 1" xmlns="http://www.w3.org/2000/svg" viewBox="0 0 25.82 24.38"><defs><style>.cls-1{fill:#00aa08;}</style></defs><path class="cls-1" d="M11.5,22.57a1.81,1.81,0,1,1-1.81-1.81,1.81,1.81,0,0,1,1.81,1.81"/><path class="cls-1" d="M23.31,22.57a1.82,1.82,0,1,1-1.82-1.81,1.82,1.82,0,0,1,1.82,1.81"/><path class="cls-1" d="M25.56,5.77a1.08,1.08,0,0,0-.85-.4H7.37L6.48.89A1.11,1.11,0,0,0,5.39,0H1.1a1.11,1.11,0,0,0,0,2.21H4.49l.89,4.45a.43.43,0,0,0,0,0l1.8,9a3.24,3.24,0,0,0,1.15,1.91,3.3,3.3,0,0,0,2,.72H20.83a3.29,3.29,0,0,0,2.1-.72,3.24,3.24,0,0,0,1.15-1.91l1.72-9a1.1,1.1,0,0,0-.24-.91m-3.65,9.49a1,1,0,0,1-.36.6,1.08,1.08,0,0,1-.7.24H10.4a1.14,1.14,0,0,1-.68-.23,1.08,1.08,0,0,1-.37-.61L7.82,7.57H23.38Z"/></svg>