<svg id="Capa_1" data-name="Capa 1" xmlns="http://www.w3.org/2000/svg" xmlns:xlink="http://www.w3.org/1999/xlink" viewBox="0 0 41.55 55.56"><defs><style>.cls-1{fill:none;}.cls-2{fill:#f60000;}.cls-2,.cls-5{fill-rule:evenodd;}.cls-3{opacity:0.3;isolation:isolate;}.cls-4{clip-path:url(#clip-path);}.cls-5,.cls-6{fill:#fff;}</style><clipPath id="clip-path"><rect id="SVGID" class="cls-1" x="25.8" width="15.76" height="16.28"/></clipPath></defs><path class="cls-2" d="M7.23,0H25.81L41.55,16.41V48.33a7.23,7.23,0,0,1-7.22,7.23H7.23A7.23,7.23,0,0,1,0,48.33V7.23A7.23,7.23,0,0,1,7.23,0"/><g class="cls-3"><g class="cls-4"><polygon class="cls-5" points="25.79 0 25.79 16.28 41.55 16.28 25.79 0"/></g></g><path class="cls-6" d="M8,41.45V31.31h4.32a3.61,3.61,0,0,1,2.55.88,3.38,3.38,0,0,1,0,4.72,3.57,3.57,0,0,1-2.55.89H10.63v3.65Zm2.59-5.86h1.43a1.32,1.32,0,0,0,.91-.27,1.07,1.07,0,0,0,0-1.53,1.32,1.32,0,0,0-.91-.28H10.63Zm6.31,5.86V31.31h3.59a6.21,6.21,0,0,1,2,.3,5.43,5.43,0,0,1,1.7.9,4,4,0,0,1,1.19,1.59,6.26,6.26,0,0,1,0,4.56,4,4,0,0,1-1.19,1.59,5.43,5.43,0,0,1-1.7.9,6.21,6.21,0,0,1-2,.3Zm2.54-2.2h.75a4.46,4.46,0,0,0,1.12-.14,3.52,3.52,0,0,0,1-.46,2,2,0,0,0,.69-.89A3.93,3.93,0,0,0,23,35a2,2,0,0,0-.69-.89,3.52,3.52,0,0,0-1-.46,4,4,0,0,0-1.12-.14h-.75Zm7.67,2.2V31.31h7.22v2.2H29.75v1.63h3.69v2.19H29.75v4.12Z"/></svg>