<svg id="Capa_1" data-name="Capa 1" xmlns="http://www.w3.org/2000/svg" viewBox="0 0 48.39 47.54"><defs><style>.cls-1{fill:#972dea;}.cls-2{fill:#fff;}</style></defs><path class="cls-1" d="M41,47.54H7.36A7.37,7.37,0,0,1,0,40.18V7.36A7.37,7.37,0,0,1,7.36,0H41a7.37,7.37,0,0,1,7.36,7.36V40.18A7.37,7.37,0,0,1,41,47.54"/><path class="cls-2" d="M33.41,16.89H30.67a3.29,3.29,0,0,0,.68-2A3.36,3.36,0,0,0,28,11.52a3,3,0,0,0-2.59,1.25,13,13,0,0,0-1.45,3,13.05,13.05,0,0,0-1.44-3,3,3,0,0,0-2.59-1.25,3.36,3.36,0,0,0-2.69,5.37H14.5a2,2,0,0,0-2,2v1.35a2,2,0,0,0,1.34,1.9V32.45a2,2,0,0,0,2,2H32.07a2,2,0,0,0,2-2V22.16a2,2,0,0,0,1.35-1.9V18.91a2,2,0,0,0-2-2m-8.22-.59c1-2.61,1.42-3.44,2.8-3.44a2,2,0,0,1,0,4H25l.24-.59m-5.27-3.44c1.38,0,1.77.83,2.8,3.44.07.19.15.39.23.59h-3a2,2,0,1,1,0-4m1.34,20.26H15.84a.67.67,0,0,1-.67-.67V22.27h6.09Zm0-12.19H14.5a.68.68,0,0,1-.68-.67V18.91a.68.68,0,0,1,.68-.67h6.76Zm4,12.19H22.61V18.24H25.3Zm7.44-.67a.67.67,0,0,1-.67.67H26.64V22.27h6.1Zm1.34-12.19a.67.67,0,0,1-.67.67H26.64V18.24h6.77a.67.67,0,0,1,.67.67Z"/></svg>