<?xml version="1.0" encoding="UTF-8" ?>
<!DOCTYPE svg PUBLIC "-//W3C//DTD SVG 1.1//EN" "http://www.w3.org/Graphics/SVG/1.1/DTD/svg11.dtd">
<svg width="917pt" height="438pt" viewBox="0 0 917 438" version="1.1" xmlns="http://www.w3.org/2000/svg">
<g id="#0060eaff">
</g>
<g id="#ffffffff">
<path fill="#ffffff" opacity="1.00" d=" M 54.88 50.99 C 54.57 46.54 58.45 42.24 63.00 42.54 C 96.20 43.99 128.81 55.65 155.58 75.31 C 185.25 96.91 207.77 128.05 219.25 162.89 C 236.59 214.57 229.05 274.03 198.66 319.38 C 202.76 291.84 199.90 263.23 189.73 237.28 C 177.06 204.47 152.95 176.15 122.34 158.76 C 103.04 147.60 81.17 141.31 59.04 139.22 C 56.35 139.26 54.57 136.50 54.87 134.02 C 54.86 106.34 54.85 78.66 54.88 50.99 Z" />
<path fill="#ffffff" opacity="1.00" d=" M 558.17 169.09 C 561.86 161.43 564.93 153.45 569.05 146.01 C 570.78 148.10 571.77 150.66 572.87 153.12 C 593.95 199.25 615.08 245.36 636.15 291.49 C 624.18 291.46 612.21 291.55 600.24 291.45 C 589.95 266.89 579.54 242.38 569.17 217.85 C 558.77 242.39 548.41 266.94 538.04 291.49 C 526.08 291.50 514.13 291.48 502.18 291.49 C 520.83 250.69 539.51 209.89 558.17 169.09 Z" />
<path fill="#ffffff" opacity="1.00" d=" M 836.68 167.68 C 840.20 160.49 842.96 152.91 847.00 146.00 C 848.63 148.22 849.71 150.77 850.82 153.28 C 871.87 199.36 892.98 245.42 914.03 291.50 C 902.06 291.46 890.09 291.54 878.13 291.45 C 867.85 266.93 857.40 242.48 847.13 217.95 C 836.48 242.36 826.35 266.99 815.91 291.48 C 803.96 291.50 792.00 291.48 780.05 291.49 C 798.92 250.21 817.81 208.95 836.68 167.68 Z" />
<path fill="#ffffff" opacity="1.00" d=" M 692.03 150.48 C 704.11 147.27 717.14 146.41 729.26 149.87 C 739.39 152.73 748.28 158.86 755.69 166.21 C 748.51 173.89 741.45 181.69 734.17 189.27 C 728.97 183.00 721.24 178.66 712.95 178.85 C 707.48 178.65 699.96 179.81 698.30 186.02 C 696.49 190.86 699.63 196.05 704.21 197.82 C 714.62 201.90 725.23 205.46 735.68 209.42 C 745.27 213.12 754.42 219.37 759.24 228.71 C 764.76 239.27 764.29 251.89 761.38 263.14 C 758.90 272.72 752.67 281.34 743.98 286.19 C 732.51 292.68 718.93 293.88 706.00 293.49 C 690.53 293.02 674.72 288.34 662.96 277.94 C 659.31 274.81 656.13 271.18 653.21 267.37 C 662.13 260.48 671.07 253.61 680.01 246.75 C 686.06 254.60 694.81 260.88 704.90 261.83 C 710.93 262.30 717.57 262.20 722.83 258.82 C 727.23 255.96 727.37 249.48 724.70 245.39 C 722.80 242.43 719.53 240.80 716.32 239.68 C 707.07 236.28 697.62 233.43 688.50 229.68 C 678.27 225.40 669.03 217.68 664.90 207.16 C 660.55 195.92 661.21 182.97 665.83 171.93 C 670.42 161.01 680.81 153.50 692.03 150.48 Z" />
<path fill="#ffffff" opacity="1.00" d=" M 285.31 149.41 C 304.20 149.43 323.09 149.38 341.98 149.43 C 357.77 149.64 373.68 154.91 385.71 165.30 C 399.43 176.89 407.49 194.31 409.10 212.06 C 410.93 230.43 407.11 249.96 395.80 264.87 C 383.40 281.61 362.69 291.14 342.05 291.47 C 323.14 291.54 304.24 291.46 285.33 291.51 C 285.28 244.14 285.32 196.78 285.31 149.41 M 322.36 181.25 C 322.39 207.29 322.29 233.32 322.41 259.36 C 331.55 258.95 341.13 260.55 349.84 256.98 C 358.60 253.63 365.41 246.12 368.51 237.34 C 371.95 227.60 372.05 216.79 369.43 206.85 C 366.81 196.84 359.87 187.74 350.15 183.79 C 341.38 179.96 331.62 181.60 322.36 181.25 Z" />
<path fill="#ffffff" opacity="1.00" d=" M 439.00 149.00 C 451.33 149.00 463.67 149.00 476.00 149.00 C 476.00 196.50 476.00 244.00 476.00 291.50 C 463.67 291.50 451.33 291.50 439.00 291.50 C 439.00 244.00 439.00 196.50 439.00 149.00 Z" />
<path fill="#ffffff" opacity="1.00" d=" M 98.64 152.03 C 128.34 164.14 153.83 185.96 171.04 212.97 C 192.14 245.79 200.52 286.42 194.52 324.94 C 193.85 326.91 192.27 328.42 191.08 330.10 C 171.30 355.70 144.41 375.91 113.98 387.03 C 137.00 370.58 154.69 346.85 163.87 320.08 C 173.42 292.51 174.02 261.94 165.60 234.01 C 156.70 204.01 137.21 177.24 111.21 159.79 C 107.19 156.92 102.77 154.71 98.64 152.03 Z" />
<path fill="#ffffff" opacity="1.00" d=" M 111.63 163.66 C 135.65 181.67 153.21 207.99 160.92 236.98 C 168.24 264.18 167.04 293.60 157.44 320.09 C 147.40 348.13 127.86 372.72 102.62 388.59 C 99.62 390.44 96.71 392.66 93.17 393.34 C 83.27 395.60 73.16 397.02 63.02 397.45 C 58.47 397.77 54.58 393.48 54.88 389.02 C 54.84 379.30 54.88 369.58 54.87 359.86 C 86.31 351.51 113.40 328.94 127.83 299.86 C 143.34 269.34 144.47 232.21 131.55 200.58 C 128.09 186.83 121.09 174.18 111.63 163.66 Z" />
<path fill="#ffffff" opacity="1.00" d=" M 44.53 168.71 C 58.08 165.78 72.77 168.88 84.02 176.98 C 95.78 185.27 103.74 198.65 105.55 212.92 C 107.46 226.68 103.70 241.13 95.24 252.16 C 87.30 262.67 75.18 270.01 62.10 271.84 C 49.27 273.78 35.76 270.40 25.31 262.72 C 13.78 254.41 5.98 241.18 4.20 227.09 C 2.29 213.26 6.09 198.72 14.65 187.67 C 21.95 178.09 32.71 171.17 44.53 168.71 Z" />
<path fill="#ffffff" opacity="1.00" d=" M 133.16 229.92 C 134.09 223.19 133.67 216.39 133.36 209.63 C 140.65 235.50 139.34 263.87 128.57 288.59 C 115.38 319.74 87.66 344.48 54.88 353.22 C 54.84 337.83 54.90 322.44 54.85 307.05 C 54.88 305.33 54.79 303.38 56.09 302.07 C 57.54 300.42 59.90 300.68 61.87 300.40 C 78.68 298.95 94.87 291.70 107.29 280.31 C 121.61 267.34 130.90 249.08 133.16 229.92 Z" />
</g>
</svg>
