<?xml version="1.0" encoding="utf-8"?>
<!-- Generator: Adobe Illustrator 25.2.3, SVG Export Plug-In . SVG Version: 6.00 Build 0)  -->
<svg version="1.1" id="Capa_1" xmlns="http://www.w3.org/2000/svg" xmlns:xlink="http://www.w3.org/1999/xlink" x="0px" y="0px"
	 viewBox="0 0 53.6 38.3" style="enable-background:new 0 0 53.6 38.3;" xml:space="preserve">
<style type="text/css">
	.st0{fill:#FF9C00;}
</style>
<path class="st0" d="M4.8,5.3h34.3c1.5,0,2.7,1.2,2.7,2.7v0c0,1.5-1.2,2.7-2.7,2.7H4.8c-1.5,0-2.7-1.2-2.7-2.7v0
	C2.1,6.5,3.3,5.3,4.8,5.3z"/>
<circle class="st0" cx="48.4" cy="8" r="3.5"/>
<path class="st0" d="M4.8,16.5h34.3c1.5,0,2.7,1.2,2.7,2.7v0c0,1.5-1.2,2.7-2.7,2.7H4.8c-1.5,0-2.7-1.2-2.7-2.7v0
	C2.1,17.7,3.3,16.5,4.8,16.5z"/>
<circle class="st0" cx="48.4" cy="19.1" r="3.5"/>
<path class="st0" d="M4.8,27.6h34.3c1.5,0,2.7,1.2,2.7,2.7v0c0,1.5-1.2,2.7-2.7,2.7H4.8c-1.5,0-2.7-1.2-2.7-2.7v0
	C2.1,28.8,3.3,27.6,4.8,27.6z"/>
<circle class="st0" cx="48.4" cy="30.2" r="3.5"/>
</svg>
