<svg xmlns="http://www.w3.org/2000/svg" viewBox="0 0 62.39 39.02"><defs><style>.cls-1{fill:#7c7c7c;}.cls-2{font-size:3.66px;fill:#535353;font-family:Poppins-Light, Poppins;font-weight:300;letter-spacing:0.07em;}</style></defs><g id="cotiza_aqui" data-name="cotiza aqui"><path class="cls-1" d="M31.38,28.06A10.95,10.95,0,1,1,42.3,17.12,11,11,0,0,1,31.38,28.06Zm-2.64-9a4.42,4.42,0,0,1-.57-6.53,4.37,4.37,0,0,1,6.09-.27,4.12,4.12,0,0,1,1.45,2.81,4.4,4.4,0,0,1-1.76,4,7.28,7.28,0,0,1,4.29,4.63,9.43,9.43,0,0,0,2.1-9.9,9.57,9.57,0,0,0-18.23.88,9.32,9.32,0,0,0,2.38,9C25.44,21.26,26,20.69,28.74,19ZM31,26.69a8.68,8.68,0,0,0,5.74-2,.5.5,0,0,0,.18-.62,5.81,5.81,0,0,0-11.14,0,.5.5,0,0,0,.19.62A8.28,8.28,0,0,0,31,26.69Zm.37-8.19a3,3,0,1,0-3-3A3,3,0,0,0,31.38,18.5Z"/><text class="cls-2" transform="translate(14.38 36.96)">Personas Físicas</text></g></svg>