<svg xmlns="http://www.w3.org/2000/svg" viewBox="0 0 62.39 37.76"><defs><style>.cls-1{fill:#7c7c7c;}.cls-2{font-size:3.66px;fill:#535353;font-family:Poppins-Light, Poppins;font-weight:300;letter-spacing:0.07em;}</style></defs><g id="cotiza_aqui" data-name="cotiza aqui"><path class="cls-1" d="M30.75,12.84V11.61h.83v1.23h1.9c.73,0,1,.3,1,1v1.06h.72c.39,0,.54.15.54.54v5.32h2.82c.37,0,.52.14.52.52V27c0,.38-.15.52-.52.52-.84,0-1.68,0-2.51,0h-.31c0,.14,0,.26,0,.38a.42.42,0,0,1-.45.46H27.24c-.57,0-.66-.08-.67-.66a1.28,1.28,0,0,0,0-.18H26c-.77,0-1.53,0-2.3,0-.34,0-.5-.15-.5-.48V21.26a.42.42,0,0,1,.48-.47h2.86V15.51c0-.45.13-.58.57-.58h.68V13.8a.86.86,0,0,1,1-1Zm4.16,14.62V15.78H27.42V27.46H29.5V25.92c0-.39.14-.53.53-.54H32.3c.4,0,.54.15.54.56v1.52Zm-8.35-.83v-5H24.08v5Zm9.22,0h2.48v-5H35.78ZM33.66,13.7h-5v1.22h5ZM32,26.23H30.35v1.23H32Z"/><path class="cls-1" d="M31.17,3.23A3.76,3.76,0,1,1,27.41,7,3.76,3.76,0,0,1,31.17,3.23Zm2.34,5.45a2.86,2.86,0,0,0-.31-3.79A2.92,2.92,0,0,0,29.07,5a2.85,2.85,0,0,0-.24,3.73,2.23,2.23,0,0,1,1-1.07,1.67,1.67,0,0,1,2.38-2.32,1.71,1.71,0,0,1,.24,2.33A2.13,2.13,0,0,1,33.51,8.68Zm-2.33-.46v0h-.5a1.24,1.24,0,0,0-1.14,1,.32.32,0,0,0,.1.25,2.87,2.87,0,0,0,3.06,0,.28.28,0,0,0,.09-.25,1.16,1.16,0,0,0-.86-.92A6.14,6.14,0,0,0,31.18,8.22ZM32,6.56a.83.83,0,0,0-.83-.82.84.84,0,1,0,.83.82Z"/><path class="cls-1" d="M18.63,10.33a3.76,3.76,0,1,1,3.74,3.77A3.77,3.77,0,0,1,18.63,10.33Zm6.11,1.72a2.92,2.92,0,0,0-4.48-3.72A2.84,2.84,0,0,0,20.05,12a2.21,2.21,0,0,1,1-1.06,1.7,1.7,0,0,1,.22-2.31A1.67,1.67,0,0,1,23.7,11,2.13,2.13,0,0,1,24.74,12.05Zm-2.36,1.21a3,3,0,0,0,1.52-.42.21.21,0,0,0,.12-.29,1.23,1.23,0,0,0-1.11-1,9.2,9.2,0,0,0-1.05,0,1.26,1.26,0,0,0-1.1.93.25.25,0,0,0,.13.32A3.15,3.15,0,0,0,22.38,13.26Zm0-4.18a.84.84,0,0,0,0,1.67.84.84,0,1,0,0-1.67Z"/><path class="cls-1" d="M36.18,10.32a3.77,3.77,0,1,1,3.74,3.78A3.78,3.78,0,0,1,36.18,10.32Zm2.45.64a1.69,1.69,0,0,1,.19-2.28A1.67,1.67,0,0,1,41,8.61,1.7,1.7,0,0,1,41.27,11a2.26,2.26,0,0,1,1,1.07,2.87,2.87,0,0,0-.43-3.9,2.92,2.92,0,0,0-4.12.29,2.82,2.82,0,0,0-.13,3.6A2.15,2.15,0,0,1,38.63,11Zm1.3,2.3a2.9,2.9,0,0,0,1.52-.42.21.21,0,0,0,.12-.29,1.24,1.24,0,0,0-1.13-1h-1a1.26,1.26,0,0,0-1.12.94.24.24,0,0,0,.13.32A3.08,3.08,0,0,0,39.93,13.26Zm0-4.18a.84.84,0,0,0-.83.84.84.84,0,1,0,1.67,0A.85.85,0,0,0,39.94,9.08Z"/><path class="cls-1" d="M33.65,17.85h-5V17h5Z"/><path class="cls-1" d="M33.66,19.13v.81h-5v-.81Z"/><path class="cls-1" d="M33.67,21.22V22h-5v-.8Z"/><path class="cls-1" d="M28.67,24.12v-.81h5v.81Z"/><path class="cls-1" d="M25.73,22.48v.79h-.81v-.79Z"/><path class="cls-1" d="M25.72,25h-.8v-.8h.8Z"/><path class="cls-1" d="M36.61,22.47h.81v.81h-.81Z"/><path class="cls-1" d="M36.61,25v-.8h.81V25Z"/><text class="cls-2" transform="translate(13.24 35.7)">Personas Morales</text></g></svg>