<?xml version="1.0" encoding="utf-8"?>
<!-- Generator: Adobe Illustrator 25.2.3, SVG Export Plug-In . SVG Version: 6.00 Build 0)  -->
<svg version="1.1" id="Capa_1" xmlns="http://www.w3.org/2000/svg" xmlns:xlink="http://www.w3.org/1999/xlink" x="0px" y="0px"
	 viewBox="0 0 35 35" style="enable-background:new 0 0 35 35;" xml:space="preserve">
<style type="text/css">
	.st0{fill:#1BD741;}
	.st1{fill:#FFFFFF;}
</style>
<g>
	<path class="st0" d="M1.9,0h31.2C34.1,0,35,0.9,35,1.9v31.2c0,1.1-0.9,1.9-1.9,1.9H1.9C0.9,35,0,34.1,0,33.1V1.9C0,0.9,0.9,0,1.9,0
		z"/>
	<g>
		<path class="st1" d="M5.3,29.8L7,23.7c-1.1-1.9-1.7-4-1.7-6.2c0-6.7,5.5-12.2,12.2-12.2s12.2,5.5,12.2,12.2s-5.5,12.2-12.2,12.2
			c-2.1,0-4.2-0.5-6-1.6L5.3,29.8z M11.9,25.9l0.4,0.2c1.6,1,3.4,1.5,5.3,1.5c5.6,0,10.2-4.6,10.2-10.2S23.1,7.3,17.5,7.3
			S7.4,11.9,7.4,17.5c0,2,0.6,3.8,1.6,5.5l0.3,0.4l-1,3.5L11.9,25.9z"/>
		<path class="st1" d="M14.1,11.8l-0.8,0c-0.2,0-0.5,0.1-0.7,0.2c-0.4,0.3-1,1-1.2,1.8c-0.3,1.3,0.2,2.8,1.3,4.3s3.2,4,6.9,5
			c1.2,0.3,2.1,0.1,2.9-0.4c0.6-0.4,1-1,1.1-1.6l0.1-0.6c0-0.2-0.1-0.4-0.2-0.5l-2.7-1.2c-0.2-0.1-0.4,0-0.5,0.1l-1.1,1.4
			c-0.1,0.1-0.2,0.1-0.3,0.1c-0.7-0.3-3.1-1.3-4.5-3.8c-0.1-0.1,0-0.2,0-0.3l1-1.2c0.1-0.1,0.1-0.3,0.1-0.4L14.4,12
			C14.4,11.9,14.2,11.8,14.1,11.8z"/>
	</g>
</g>
</svg>
